<?xml version="1.0" encoding="UTF-8" standalone="no"?>
<!-- Created with Inkscape (http://www.inkscape.org/) -->

<svg
   width="69.344276mm"
   height="20.314577mm"
   viewBox="0 0 69.344276 20.314578"
   version="1.1"
   id="svg1"
   xml:space="preserve"
   xmlns="http://www.w3.org/2000/svg"
   xmlns:svg="http://www.w3.org/2000/svg"><defs
     id="defs1" /><g
     id="layer1"
     transform="translate(-74.537742,-93.098316)"><path
       id="path4"
       style="fill:none;fill-rule:nonzero;stroke:#000000;stroke-width:0.62;stroke-linecap:round;stroke-linejoin:round;stroke-dasharray:none;stroke-opacity:1;paint-order:fill markers stroke"
       d="m 113.1013,101.3211 c -1.43602,1.3519 -1.6766,4.16244 0.16811,3.72732 1.84471,-0.43513 0.70837,-3.03475 -0.76795,-3.94755 -0.0393,1.30259 0.16209,3.18557 2.53977,3.2573 2.37768,0.0717 2.56677,-1.33208 2.27042,-2.58842 0.34106,1.44593 0.71959,2.33017 1.63539,2.11414 0.91581,-0.216 1.5381,-1.42428 1.16825,-2.99229 0.50219,2.12901 3.8519,10.82814 2.05382,11.25225 -1.7981,0.42414 -3.95245,-0.86917 -3.89432,-2.79592 0.0581,-1.92673 0.33081,-4.28942 2.16658,-6.01765 1.83575,-1.72824 5.78717,-2.61114 6.81349,-2.30268 1.02633,0.30846 1.34367,2.54653 1.34367,2.54653 0,0 0.32201,-2.02562 -1.97401,-2.09488 -2.29603,-0.0693 -3.61089,2.63979 -2.06212,3.59738 1.54877,0.95758 3.78136,0.32916 4.64729,-2.55202 0.86593,-2.881171 -0.20638,-6.753666 -0.20638,-6.753666 0,0 -0.94305,5.677236 0.5765,7.291326 1.51955,1.61409 5.3789,1.23336 5.66854,0.76491 0.28964,-0.46847 -0.1604,-2.78068 -1.71351,-2.82753 -1.55312,-0.0469 -1.80859,3.30458 0.15073,3.89346 0.81173,0.24396 10e-4,-2.8234 10e-4,-2.8234 0,0 1.56267,1.8295 3.32073,2.35788 1.75807,0.52838 4.1581,0.56054 4.1581,0.56054 m -38.474,-6.313092 c 0,0 0.19264,5.920752 0.61312,7.264042 m -5.277648,-7.404764 c 0,0 -0.887731,-0.278486 -0.201309,-0.647655 0.686423,-0.369169 9.600177,-2.648753 10.332497,0.456 0.40158,1.702479 -3.13798,2.270569 -3.13798,2.270569 0,0 5.63386,1.81708 5.57842,3.65463 -0.0554,1.83753 -6.47314,1.57385 -7.37782,0.61287 1.65585,-0.39058 1.92214,-0.44154 1.92214,-0.44154 m -24.74761,3.07189 c 0,0 -2.22097,-7.729985 -4.196785,-10.26885 1.909606,1.360198 10.888776,6.00857 10.813832,8.49276 -0.07494,2.48419 -6.355804,0.60106 -6.355804,0.60106 0,0 1.189403,1.18664 3.99685,1.27134 2.807447,0.0847 4.322153,-1.10176 3.254716,-3.20781 -0.772458,1.85137 0.912507,2.78677 2.295813,2.8285 1.383309,0.0417 2.014722,-2.11624 2.094462,-4.75942 0.07974,-2.643165 -1.83008,-4.909823 -1.83008,-4.909823 0,0 -0.126603,7.956803 2.203133,8.657003 2.329739,0.70019 3.890296,0.35646 3.913712,-0.41974 0.02341,-0.7762 -0.931531,-2.58569 -2.574554,-2.63526 -1.643021,-0.0496 -1.791571,2.25077 -1.827751,3.45003" /></g></svg>
