<?xml version="1.0" encoding="UTF-8" standalone="no"?>
<!-- Created with Inkscape (http://www.inkscape.org/) -->

<svg
   width="85.655273mm"
   height="21.385105mm"
   viewBox="0 0 85.655276 21.385106"
   version="1.1"
   id="svg1"
   xml:space="preserve"
   inkscape:version="1.4.2 (ebf0e940d0, 2025-05-08)"
   sodipodi:docname="Francesca_DeBiase_Signature.svg"
   xmlns:inkscape="http://www.inkscape.org/namespaces/inkscape"
   xmlns:sodipodi="http://sodipodi.sourceforge.net/DTD/sodipodi-0.dtd"
   xmlns="http://www.w3.org/2000/svg"
   xmlns:svg="http://www.w3.org/2000/svg"><sodipodi:namedview
     id="namedview1"
     pagecolor="#ffffff"
     bordercolor="#000000"
     borderopacity="0.25"
     inkscape:showpageshadow="2"
     inkscape:pageopacity="0.0"
     inkscape:pagecheckerboard="0"
     inkscape:deskcolor="#d1d1d1"
     inkscape:document-units="mm"
     inkscape:zoom="3.2533951"
     inkscape:cx="252.81283"
     inkscape:cy="36.423489"
     inkscape:window-width="2048"
     inkscape:window-height="1080"
     inkscape:window-x="0"
     inkscape:window-y="0"
     inkscape:window-maximized="1"
     inkscape:current-layer="layer1" /><defs
     id="defs1" /><g
     inkscape:label="Layer 1"
     inkscape:groupmode="layer"
     id="layer1"><g
       id="g5"
       transform="translate(-12.641301,-59.762248)"><path
         style="opacity:1;fill:none;fill-opacity:1;stroke:#000000;stroke-width:0.446;stroke-linecap:round;stroke-linejoin:round;stroke-dasharray:none;stroke-opacity:0.999946;paint-order:stroke fill markers"
         d="m 20.162278,64.154206 c 0,0 1.743989,1.984356 5.233017,1.049476 3.489027,-0.93488 3.392834,-3.421583 3.392834,-3.421583 0,0 3.715529,10.962877 -7.360726,13.930746 -11.076254,2.96788 -10.888219,-3.501249 -2.415238,-5.117999 8.137053,-1.55266 11.731157,-1.32263 11.731157,-1.32263"
         id="path1"
         sodipodi:nodetypes="cscssc" /><path
         style="opacity:1;fill:none;fill-opacity:1;stroke:#000000;stroke-width:0.446;stroke-linecap:round;stroke-linejoin:round;stroke-dasharray:none;stroke-opacity:0.999946;paint-order:stroke fill markers"
         d="m 16.941961,69.530986 c 0,0 14.002631,-3.70912 14.347665,-3.70912 0.345034,0 -4.437803,7.023452 -5.329141,7.080962 -0.891338,0.0575 0.287529,-1.06386 0.287529,-1.06386"
         id="path2"
         sodipodi:nodetypes="cssc" /><path
         style="opacity:1;fill:none;fill-opacity:1;stroke:#000000;stroke-width:0.446;stroke-linecap:round;stroke-linejoin:round;stroke-dasharray:none;stroke-opacity:0.999946;paint-order:stroke fill markers"
         d="m 31.289626,65.821866 c 0,0 -2.300227,4.83048 -1.523901,5.60681 0.776327,0.77632 5.717512,-1.984553 5.808072,-5.52055 0.04774,-1.863967 -5.98811,4.433272 -5.081887,5.620913 0.567334,0.743514 5.283159,-3.493203 5.283159,-5.275873 0,-1.78268 -3.090931,4.64358 -2.443992,5.29052 0.646939,0.64694 4.284174,-4.62921 4.284174,-5.11801 0,-0.48879 -2.373897,4.47135 -1.552655,4.94549 0.821243,0.47415 3.709117,-3.70112 3.65161,-4.68671 -0.0575,-0.98559 -1.885714,3.87905 -0.373787,4.28417 1.51193,0.40512 4.089196,-4.58955 4.456689,-4.80172 0.367493,-0.21217 0.89567,1.46476 0.172519,2.7173 -0.723154,1.25254 0.178157,-2.62334 -0.172519,-2.7173 -0.350673,-0.094 -3.702881,2.62764 -2.990294,3.86187 0.712586,1.23424 1.938136,1.00991 3.105306,0.33604 1.167172,-0.67386 4.251425,-4.066138 3.723494,-4.594068 -0.527933,-0.52793 -3.309673,3.185738 -2.832155,4.967858 0.477517,1.78212 5.319273,-3.924764 5.319273,-4.241044 0,-0.31628 0.773748,3.282088 -0.488796,4.011018 -1.262547,0.72893 -3.33533,0.690066 -3.33533,0.690066 0,0 4.082248,-1.070876 5.664308,-4.60045 0.955256,-2.131174 1.821022,2.0408 0.316281,2.44399 -1.504739,0.4032 0.590737,-2.343838 0.424375,-2.964698 -0.166359,-0.62087 -3.843999,2.028068 -2.954623,3.568508 0.889373,1.54044 3.186441,0.70224 4.05415,0.20127 0.867709,-0.50097 3.424129,-2.51511 2.817778,-3.56535 -0.606354,-1.05023 -5.028262,2.477912 -3.364082,3.91039 1.060789,0.913096 3.507846,-2.35774 3.507846,-2.35774 0,0 -1.270193,1.92644 -0.115012,2.78903 1.155181,0.86258 2.961542,0.43129 2.961542,0.43129"
         id="path3"
         sodipodi:nodetypes="cssssssssssscsssssscssssssscsc" /><path
         style="opacity:1;fill:none;stroke:#000000;stroke-width:0.446;stroke-linecap:round;stroke-linejoin:round;stroke-dasharray:none;stroke-opacity:0.999946;paint-order:stroke fill markers"
         d="m 63.067769,63.685549 c 0,0 -1.38253,8.213855 -1.748494,8.213855 -0.365963,0 -2.26509,-4.295161 -0.691263,-4.716867 1.573826,-0.421707 0.3253,6.831324 0.3253,6.831324 l 0.406627,-2.195782 c 0,0 0.603083,0.543692 2.480421,0.04066 1.877338,-0.503031 3.456326,-1.951807 3.456326,-5.774095 0,-3.822289 -4.280135,-4.987104 -6.790663,-3.537651 -2.510528,1.449454 -3.334338,7.075303 2.683735,7.075303 6.018072,0 7.729161,-1.889551 7.481927,-2.317772 -0.247232,-0.428222 -4.398809,1.885675 -4.14759,2.823245 0.251222,0.937567 2.71316,0 3.496987,0 1.367061,10e-7 1.911147,1.202356 2.927713,1.202356 1.016566,0 3.938632,-0.963599 4.432228,-2.805723 0.493596,-1.842122 -2.43976,-2.073794 -3.334337,-2.073794 -0.894577,0 -2.92771,0.609939 -2.92771,-0.406627 0,-1.016567 1.54518,-4.757529 2.277107,-4.757529 0.731928,0 -1.191387,10.285145 -1.720196,12.258691 -0.52881,1.973542 -2.183418,7.381372 -2.183418,7.381372 l 3.092839,-10.455806 c 0,0 5.588637,-5.910914 6.178245,-6.500522 0.589608,-0.589611 -2.59584,4.214228 -1.789157,5.611445 0.806685,1.397217 3.552782,1.589974 5.245483,-1.341869 1.692699,-2.93184 1.463855,-3.862951 0.650603,-3.862951 -0.813255,0 -5.37874,3.381541 -4.025604,6.221386 0.692191,1.452711 4.960845,-5.04217 4.960845,-5.04217 0,0 -2.752511,3.988591 -2.073796,5.164159 0.678714,1.175567 3.734226,-0.272785 5.326806,-4.960845 0.671521,-1.97675 1.513935,5.317944 -2.236444,4.635542 -3.153721,-0.573837 5.009533,-0.894969 6.180721,-2.124623 1.171188,-1.229654 1.177029,-2.990699 0.691265,-3.120858 -0.485762,-0.130159 -3.29873,2.930631 -2.643071,4.066265 0.655659,1.135634 2.958206,1.392696 4.625376,1.392696 1.667169,0 4.849215,-1.086319 4.320406,-3.059865"
         id="path4"
         sodipodi:nodetypes="cssccsssssssssssssccssssscssszsszc" /><path
         style="opacity:1;fill:none;stroke:#000000;stroke-width:0.446;stroke-linecap:round;stroke-linejoin:round;stroke-dasharray:none;stroke-opacity:0.999946;paint-order:stroke fill markers"
         d="m 80.105419,59.985248 0.853917,0.691264"
         id="path5" /></g></g></svg>
