<?xml version="1.0" encoding="UTF-8" standalone="no"?>
<!-- Created with Inkscape (http://www.inkscape.org/) -->

<svg
   width="80.880539mm"
   height="28.189817mm"
   viewBox="0 0 80.880539 28.189817"
   version="1.1"
   id="svg1"
   xml:space="preserve"
   xmlns="http://www.w3.org/2000/svg"
   xmlns:svg="http://www.w3.org/2000/svg"><defs
     id="defs1" /><g
     id="layer1"
     transform="translate(-90.987698,-84.56949)"><path
       style="fill:#000000;fill-opacity:1;fill-rule:nonzero;stroke:none;stroke-width:0.3;stroke-linecap:round;stroke-linejoin:round;stroke-dasharray:none;stroke-opacity:1;paint-order:stroke markers fill"
       d="m 103.47807,99.789169 c 0.006,0.0191 0.33066,0.04336 1.53377,-0.362775 0.22886,-0.07726 0.4804,-0.167364 0.75202,-0.270267 1.04698,-0.396656 2.64391,-1.081358 4.35579,-2.020991 0.17635,-0.0968 0.36228,-0.201082 0.5555,-0.312488 0.79945,-0.460952 1.71814,-1.040576 2.61998,-1.727462 0.84451,-0.643218 1.62132,-1.340083 2.28192,-2.088661 0.75656,-0.857328 1.26747,-1.676838 1.60206,-2.439302 0.21847,-0.497864 0.34335,-0.92985 0.41755,-1.266494 0.15387,-0.698123 0.14101,-1.252301 0.13363,-1.498531 -0.007,0.248498 -0.0434,0.795328 -0.22302,1.476924 -0.0867,0.329013 -0.22277,0.749019 -0.4506,1.232415 -0.34869,0.739847 -0.86707,1.532717 -1.62695,2.362565 -0.66365,0.724748 -1.43981,1.399336 -2.28325,2.023012 -0.9009,0.66616 -1.81608,1.227935 -2.61326,1.676318 -0.19255,0.1083 -0.37778,0.209741 -0.55343,0.303987 -1.69168,0.907674 -3.31693,1.570631 -4.33368,1.975631 -0.26464,0.105416 -0.51747,0.204767 -0.73734,0.291611 -1.17048,0.462301 -1.44235,0.605388 -1.43069,0.644508 z"
       id="path1" /><path
       style="fill:#000000;fill-opacity:1;fill-rule:nonzero;stroke:none;stroke-width:0.3;stroke-linecap:round;stroke-linejoin:round;stroke-dasharray:none;stroke-opacity:1;paint-order:stroke markers fill"
       d="m 117.73029,87.802198 c -0.0375,-0.02698 -0.4341,0.439434 -2.50887,3.10057 -0.006,0.0079 -0.24699,0.316899 -0.25313,0.324776 -1.11892,1.436013 -3.15269,4.050867 -5.36718,6.690708 -1.03919,1.238796 -2.15563,2.528718 -3.28315,3.758248 -1.08865,1.18713 -2.18078,2.31048 -3.22172,3.27767 -1.03946,0.96581 -2.0092,1.75849 -2.86847,2.31066 -0.436212,0.28032 -0.838178,0.49491 -1.202814,0.63986 -0.373925,0.14865 -0.70113,0.22107 -0.981922,0.22131 -0.289623,2.4e-4 -0.540499,-0.0372 -0.750484,-0.10954 -0.200431,-0.0691 -0.360897,-0.16899 -0.483169,-0.29552 -0.118429,-0.12255 -0.203838,-0.27295 -0.254196,-0.45113 -0.04965,-0.17567 -0.06543,-0.37935 -0.04344,-0.60917 0.02183,-0.22804 0.0806,-0.47895 0.17749,-0.74845 0.09701,-0.26985 0.231238,-0.55556 0.401664,-0.85201 0.35003,-0.60887 0.843471,-1.24723 1.456757,-1.87535 1.47056,-1.50611 3.37475,-2.70996 5.3333,-3.557501 0.49102,-0.212485 0.9679,-0.395477 1.42372,-0.553997 2.81701,-0.979647 5.31415,-1.197855 6.80181,-1.226935 -1.46455,-0.02863 -4.02551,0.01968 -6.89695,0.942422 -0.46627,0.149837 -0.95456,0.326992 -1.45694,0.535897 -2.00102,0.832074 -3.956277,2.062614 -5.459111,3.612844 -0.627852,0.64766 -1.136519,1.31264 -1.498324,1.95428 -0.176322,0.31269 -0.316591,0.61785 -0.418171,0.91002 -0.101363,0.29154 -0.164196,0.57016 -0.185812,0.83025 -0.02179,0.26224 -0.0017,0.50624 0.06335,0.72508 0.06647,0.22377 0.178949,0.41825 0.33622,0.57758 0.161774,0.16389 0.365821,0.28549 0.604433,0.36651 0.24873,0.0845 0.53372,0.12448 0.847849,0.12472 0.329986,2.4e-4 0.696008,-0.0829 1.093471,-0.23855 0.388792,-0.15229 0.809655,-0.37477 1.259057,-0.65975 0.88461,-0.56095 1.87489,-1.36125 2.92753,-2.32793 1.05525,-0.96909 2.16026,-2.09358 3.25856,-3.28034 1.13774,-1.2294 2.26275,-2.51967 3.307,-3.759483 2.26384,-2.68781 4.21905,-5.22102 5.34578,-6.729344 0.0838,-0.112215 0.1659,-0.222575 0.24613,-0.330912 2.01138,-2.716157 2.26224,-3.288493 2.24973,-3.297493 z"
       id="path2" /><path
       style="fill:#000000;fill-opacity:1;fill-rule:nonzero;stroke:none;stroke-width:0.3;stroke-linecap:round;stroke-linejoin:round;stroke-dasharray:none;stroke-opacity:1;paint-order:stroke markers fill"
       d="m 107.6389,101.91284 v 0 c 0.005,0.009 0.15869,-0.0265 0.6942,-0.29843 0.0907,-0.0461 0.18086,-0.0934 0.26475,-0.13916 0.3729,-0.20328 0.77267,-0.45511 1.19792,-0.73068 -1.4e-4,1e-4 0.0364,-0.0236 0.0363,-0.0235 0.23635,-0.15347 0.49575,-0.3248 0.74979,-0.50801 0.25863,-0.18651 0.49335,-0.372193 0.68826,-0.553901 0.0707,-0.06592 0.13457,-0.12982 0.19156,-0.191686 0.10924,-0.118595 0.20611,-0.244123 0.2793,-0.368322 0.0575,-0.0976 0.0957,-0.186226 0.11851,-0.265741 0.032,-0.111583 0.0298,-0.190947 0.0254,-0.238436 -0.005,0.04834 -0.0204,0.122759 -0.07,0.221055 -0.0353,0.06992 -0.0846,0.146159 -0.15101,0.230599 -0.0852,0.108327 -0.18767,0.216661 -0.29965,0.326374 -0.0581,0.05694 -0.12157,0.116859 -0.19146,0.180149 -0.19362,0.17532 -0.41819,0.359646 -0.67176,0.549919 -0.2471,0.18542 -0.50206,0.3616 -0.73684,0.51298 -0.0121,0.008 -0.0242,0.0155 -0.0361,0.0232 -0.40306,0.25785 -0.85791,0.51091 -1.20037,0.71181 -0.0801,0.047 -0.171,0.101 -0.25603,0.15189 -0.51316,0.30711 -0.64015,0.39511 -0.63265,0.40991 z"
       id="path3" /><path
       style="fill:#000000;fill-opacity:1;fill-rule:nonzero;stroke:none;stroke-width:0.3;stroke-linecap:round;stroke-linejoin:round;stroke-dasharray:none;stroke-opacity:1;paint-order:stroke markers fill"
       d="m 112.31296,98.446139 v 0 c -0.015,-0.0195 -0.10724,-0.06617 -0.3767,0.113411 -0.0432,0.02881 -0.093,0.06454 -0.14925,0.107678 -0.20557,0.157612 -0.55036,0.456576 -0.88363,0.825814 -0.14465,0.160264 -0.28816,0.335201 -0.41302,0.515548 -0.12172,0.17582 -0.2266,0.35799 -0.29785,0.53857 -0.0359,0.0909 -0.0635,0.182 -0.0803,0.27227 -0.0172,0.0919 -0.0233,0.18313 -0.0156,0.27237 0.008,0.0921 0.0305,0.18031 0.069,0.26305 0.0401,0.0862 0.0958,0.16286 0.16471,0.23012 0.0186,0.0182 0.0381,0.0349 0.0583,0.0501 0.066,0.0498 0.14052,0.0843 0.22084,0.10542 0.10189,0.0268 0.21194,0.0319 0.32607,0.0213 0.11229,-0.0104 0.23133,-0.0363 0.35484,-0.0741 0.12266,-0.0375 0.25122,-0.0873 0.3837,-0.14658 0.26596,-0.11907 0.54996,-0.27778 0.8348,-0.45592 0.29453,-0.18421 0.59022,-0.38936 0.86725,-0.59284 0.64116,-0.47091 1.19925,-0.944525 1.50467,-1.214233 8e-5,-6.8e-5 0.0207,-0.01828 0.0207,-0.01834 0.53706,-0.475731 0.60312,-0.594315 0.5969,-0.601286 -0.0125,-0.01401 -0.12106,0.05638 -0.68637,0.493197 4.8e-4,-3.73e-4 -0.0223,0.01722 -0.0218,0.01685 -0.30464,0.235291 -0.91386,0.70548 -1.54664,1.136556 -0.28095,0.1914 -0.57833,0.38342 -0.87132,0.5538 -0.28435,0.16536 -0.56099,0.30827 -0.81419,0.41199 -0.12581,0.0515 -0.24391,0.0926 -0.35292,0.12201 -0.11018,0.0297 -0.20842,0.0469 -0.29427,0.0518 -0.0875,0.005 -0.15802,-0.003 -0.21381,-0.0198 -0.0431,-0.0131 -0.0773,-0.0315 -0.10494,-0.0539 -0.009,-0.007 -0.0169,-0.0146 -0.0249,-0.023 -0.0405,-0.0422 -0.0695,-0.0866 -0.0889,-0.13325 -0.0187,-0.0448 -0.0295,-0.0938 -0.032,-0.14803 -0.002,-0.0531 0.003,-0.11184 0.0172,-0.17658 0.0141,-0.0637 0.0366,-0.13208 0.0675,-0.20475 0.0619,-0.14546 0.15414,-0.30074 0.26773,-0.46041 0.11593,-0.16296 0.25002,-0.324864 0.38704,-0.477896 0.29914,-0.334074 0.65593,-0.669712 0.81827,-0.830356 0.0493,-0.04877 0.0907,-0.09073 0.12558,-0.12792 0.21551,-0.229667 0.20134,-0.319066 0.18319,-0.342659 z"
       id="path4" /><path
       style="fill:#000000;fill-opacity:1;fill-rule:nonzero;stroke:none;stroke-width:0.3;stroke-linecap:round;stroke-linejoin:round;stroke-dasharray:none;stroke-opacity:1;paint-order:stroke markers fill"
       d="m 115.49847,98.658507 c -0.0194,-0.0074 -0.0935,-0.02116 -0.16946,0.101592 -0.0295,0.04767 -0.0641,0.120963 -0.10712,0.226881 -0.0774,0.19075 -0.1847,0.495012 -0.29272,0.837077 -0.0472,0.149524 -0.0937,0.304243 -0.13474,0.451473 -0.0401,0.14392 -0.0746,0.27988 -0.0996,0.39762 -0.0125,0.059 -0.0227,0.11346 -0.0299,0.16227 -0.007,0.0493 -0.0119,0.0937 -0.0129,0.13199 -5.3e-4,0.0195 -1.8e-4,0.0383 0.001,0.0558 0.002,0.0175 0.005,0.0361 0.0102,0.054 0.003,0.009 0.007,0.0192 0.0124,0.0292 0.006,0.0101 0.0131,0.021 0.0233,0.031 0.0105,0.0103 0.0234,0.0191 0.0385,0.0252 0.0153,0.006 0.0306,0.008 0.0449,0.008 0.0141,-2.5e-4 0.0265,-0.003 0.0366,-0.006 0.01,-0.003 0.0191,-0.007 0.0273,-0.0115 0.0156,-0.008 0.031,-0.0186 0.0458,-0.0299 0.0146,-0.0111 0.0301,-0.0242 0.0466,-0.0389 0.016,-0.0144 0.0334,-0.0306 0.052,-0.0487 0.036,-0.035 0.0772,-0.0771 0.12414,-0.1262 0.0456,-0.0477 0.0957,-0.10097 0.15177,-0.16056 0.10828,-0.11516 0.23717,-0.25231 0.38054,-0.39856 0.14424,-0.14714 0.30123,-0.30154 0.46905,-0.455282 0.37953,-0.34769 0.7557,-0.637852 1.12965,-0.853457 0.23552,-0.13579 0.44253,-0.226011 0.62294,-0.287518 0.18584,-0.06336 0.33123,-0.09188 0.42216,-0.109192 0.12095,-0.02303 0.18249,-0.0381 0.2197,-0.04317 -0.0295,-0.004 -0.10736,-0.02228 -0.22662,-0.01728 -0.0951,0.004 -0.24825,0.02193 -0.44393,0.07783 -0.18983,0.05423 -0.40759,0.140501 -0.65325,0.273818 -0.38962,0.211439 -0.77971,0.50303 -1.16915,0.849906 -0.17246,0.153607 -0.3335,0.307927 -0.48111,0.454467 -0.14644,0.14536 -0.27873,0.28218 -0.38852,0.39506 -0.057,0.0586 -0.1077,0.11051 -0.15352,0.15639 -0.0473,0.0474 -0.0877,0.0866 -0.12228,0.11818 -0.0178,0.0162 -0.0337,0.0301 -0.0477,0.0417 -0.0145,0.012 -0.0267,0.0212 -0.0367,0.0279 -0.0104,0.007 -0.0175,0.0106 -0.0205,0.0115 -0.001,3.2e-4 -0.002,1.1e-4 6.7e-4,-8.8e-4 0.002,-8.1e-4 0.007,-0.002 0.0144,-0.003 0.008,-2.7e-4 0.017,8.8e-4 0.0267,0.005 0.01,0.004 0.0175,0.009 0.0235,0.0148 0.006,0.005 0.009,0.0106 0.0114,0.0139 0.002,0.003 0.003,0.005 0.004,0.006 0.001,9.5e-4 8.6e-4,-0.003 0.001,-0.0113 5.8e-4,-0.008 0.002,-0.0185 0.004,-0.0325 0.004,-0.0275 0.0111,-0.0627 0.0219,-0.10676 0.0105,-0.043 0.024,-0.0923 0.0402,-0.1474 0.0324,-0.11001 0.0745,-0.23883 0.12221,-0.37772 0.0488,-0.14199 0.10233,-0.2914 0.15545,-0.43734 0.12584,-0.345713 0.23231,-0.62674 0.29892,-0.827081 0.0359,-0.108 0.0576,-0.184949 0.0667,-0.240184 0.0234,-0.141342 -0.0402,-0.180237 -0.0599,-0.187778 z"
       id="path5" /><path
       style="fill:#000000;fill-opacity:1;fill-rule:nonzero;stroke:none;stroke-width:0.3;stroke-linecap:round;stroke-linejoin:round;stroke-dasharray:none;stroke-opacity:1;paint-order:stroke markers fill"
       d="m 118.51094,98.601478 c -0.0121,-0.0039 -0.07,0.03918 -0.17694,0.312488 -0.0662,0.169206 -0.13918,0.40266 -0.18302,0.645774 -0.005,0.02989 -0.0105,0.06076 -0.0152,0.0924 -0.0189,0.126226 -0.0321,0.268647 -0.0308,0.409777 0.001,0.12694 0.0142,0.2579 0.0485,0.3759 0.0165,0.0568 0.0384,0.11195 0.0671,0.16258 0.0284,0.05 0.0638,0.0961 0.10725,0.1347 0.0436,0.0386 0.094,0.0686 0.151,0.088 0.0569,0.0193 0.11791,0.0273 0.18214,0.025 0.0625,-0.002 0.12951,-0.0132 0.19842,-0.0298 0.0705,-0.0171 0.14505,-0.0407 0.22161,-0.069 0.1611,-0.0596 0.33445,-0.14128 0.50465,-0.23158 0.27224,-0.14443 0.53621,-0.31076 0.75218,-0.45667 0.12525,-0.08461 0.24137,-0.16743 0.34632,-0.245689 0.19051,-0.142047 0.35385,-0.276188 0.48791,-0.397477 0.14829,-0.134172 0.27358,-0.264123 0.36797,-0.386374 0.006,-0.0076 0.0117,-0.01522 0.0173,-0.02281 0.0386,-0.05173 0.0732,-0.104583 0.10131,-0.156751 0.0313,-0.0581 0.0531,-0.112894 0.0645,-0.163283 0.0125,-0.05504 0.0118,-0.100878 0.002,-0.138354 -0.006,-0.02208 -0.0145,-0.04021 -0.0242,-0.05511 -0.0131,-0.02002 -0.0281,-0.03412 -0.0398,-0.04371 0.01,0.01196 0.0206,0.02846 0.028,0.04963 0.005,0.0156 0.009,0.03321 0.009,0.05315 7.1e-4,0.0335 -0.007,0.07237 -0.0264,0.11825 -0.0178,0.04231 -0.0443,0.08861 -0.0794,0.138944 -0.0316,0.04526 -0.0685,0.09162 -0.10873,0.138306 -0.006,0.0068 -0.0119,0.0137 -0.0179,0.02059 -0.0972,0.11032 -0.22282,0.233422 -0.37,0.361721 -0.13327,0.116178 -0.29531,0.246223 -0.48521,0.382953 -0.10466,0.07536 -0.2205,0.154685 -0.34585,0.235043 -0.21605,0.138499 -0.48233,0.292329 -0.75308,0.420149 -0.17006,0.0803 -0.33937,0.14912 -0.49259,0.1954 -0.0726,0.022 -0.14048,0.0384 -0.20195,0.0487 -0.0605,0.0101 -0.11289,0.0138 -0.15619,0.0115 -0.0407,-0.002 -0.0726,-0.0108 -0.0984,-0.0229 -0.0254,-0.0119 -0.0463,-0.028 -0.0643,-0.0476 -0.0184,-0.0201 -0.0348,-0.0451 -0.0492,-0.0759 -0.0148,-0.0315 -0.0272,-0.0684 -0.0371,-0.11061 -0.0209,-0.0889 -0.0292,-0.19457 -0.0291,-0.30812 9e-5,-0.124665 0.0102,-0.254468 0.0225,-0.374345 0.003,-0.0298 0.006,-0.0591 0.01,-0.0876 0.0282,-0.24915 0.0582,-0.448709 0.0834,-0.642372 0.0371,-0.285552 0.0308,-0.349011 0.0127,-0.35485 z"
       id="path6" /><path
       style="fill:#000000;fill-opacity:1;fill-rule:nonzero;stroke:none;stroke-width:0.3;stroke-linecap:round;stroke-linejoin:round;stroke-dasharray:none;stroke-opacity:1;paint-order:stroke markers fill"
       d="m 121.66106,98.451481 c -0.0104,-0.0019 -0.0244,-0.0032 -0.0434,-0.0024 -0.0155,6.58e-4 -0.0343,0.0027 -0.0568,0.0067 -0.0381,0.0068 -0.0864,0.01921 -0.14698,0.03985 -0.10085,0.03437 -0.23308,0.0908 -0.3928,0.174404 -0.28319,0.148233 -0.63087,0.371124 -0.94234,0.637012 -0.15864,0.135431 -0.29998,0.275351 -0.4166,0.4158 -0.0477,0.05746 -0.0907,0.114315 -0.12893,0.170413 -0.0631,0.09271 -0.11733,0.189351 -0.15801,0.288211 -0.0325,0.0789 -0.0566,0.15981 -0.0695,0.24151 -0.0128,0.0813 -0.0146,0.16327 -0.002,0.24434 0.0121,0.0811 0.0377,0.15952 0.078,0.23396 0.0403,0.0745 0.0943,0.14318 0.1614,0.206 0.0407,0.0386 0.0871,0.0675 0.13777,0.0873 0.0506,0.0198 0.10402,0.0299 0.15871,0.0326 0.0549,0.003 0.11164,-0.002 0.16939,-0.0127 0.0582,-0.0106 0.1184,-0.0273 0.18005,-0.049 0.12455,-0.0437 0.25854,-0.10885 0.39831,-0.18983 0.14307,-0.0829 0.29409,-0.18352 0.44972,-0.29729 0.26098,-0.1908 0.53645,-0.41974 0.81282,-0.66817 0.068,-0.06113 0.13677,-0.124068 0.20619,-0.188718 0.35959,-0.33486 0.73119,-0.710562 1.09535,-1.107878 0.80704,-0.880511 1.48845,-1.767918 1.95242,-2.513379 0.16513,-0.265311 0.29775,-0.504309 0.40183,-0.717112 0.079,-0.161548 0.14565,-0.316836 0.19972,-0.463748 0.0728,-0.197805 0.11899,-0.369936 0.14594,-0.517883 0.0386,-0.211851 0.0341,-0.354502 0.0281,-0.438415 -0.006,0.08451 -0.0274,0.222808 -0.0923,0.422239 -0.0455,0.139611 -0.10918,0.299978 -0.19629,0.486378 -0.0648,0.13867 -0.13934,0.284922 -0.22354,0.440109 -0.11082,0.204222 -0.24527,0.435743 -0.41019,0.696333 -0.46414,0.733396 -1.12298,1.619252 -1.91936,2.502085 -0.35826,0.397146 -0.7255,0.772104 -1.08286,1.102134 -0.069,0.06372 -0.13743,0.125589 -0.20517,0.185462 -0.27565,0.243643 -0.55054,0.463953 -0.81005,0.643753 -0.15474,0.10721 -0.30315,0.19939 -0.4418,0.27302 -0.13598,0.0722 -0.26076,0.12558 -0.37129,0.15796 -0.0544,0.016 -0.10453,0.0266 -0.15008,0.032 -0.0453,0.005 -0.0851,0.005 -0.11951,0.001 -0.0342,-0.004 -0.0623,-0.0129 -0.0854,-0.0244 -0.0228,-0.0114 -0.0418,-0.0262 -0.058,-0.0445 -0.0462,-0.0505 -0.0787,-0.10119 -0.10074,-0.15116 -0.0219,-0.0497 -0.034,-0.10016 -0.0381,-0.15145 -0.004,-0.0516 -3.8e-4,-0.10561 0.0109,-0.16224 0.0114,-0.0572 0.0305,-0.11694 0.0569,-0.17917 0.0331,-0.0781 0.0771,-0.15875 0.12998,-0.24122 0.0319,-0.0497 0.068,-0.101561 0.10853,-0.155485 0.0997,-0.132443 0.22114,-0.270247 0.36214,-0.410985 0.27707,-0.276558 0.58911,-0.524218 0.84558,-0.704434 0.14315,-0.100591 0.2629,-0.175993 0.35165,-0.227016 0.0536,-0.03082 0.0965,-0.05313 0.12997,-0.06876 0.0199,-0.0093 0.0366,-0.0163 0.0506,-0.02149 0.0171,-0.0063 0.0302,-0.01002 0.0406,-0.01194 z"
       id="path7" /><path
       style="fill:#000000;fill-opacity:1;fill-rule:nonzero;stroke:none;stroke-width:0.3;stroke-linecap:round;stroke-linejoin:round;stroke-dasharray:none;stroke-opacity:1;paint-order:stroke markers fill"
       d="m 125.87892,94.063107 v 0 c -0.0104,-0.0092 -0.10625,0.01502 -0.55731,0.510042 -0.0769,0.08436 -0.16984,0.188876 -0.27925,0.314509 -0.34654,0.397913 -0.97242,1.140927 -1.60056,1.949962 -0.26768,0.344779 -0.53801,0.704636 -0.78065,1.048197 -0.23434,0.331793 -0.44206,0.647249 -0.59766,0.92029 -0.0774,0.135815 -0.14204,0.261374 -0.19089,0.373783 -0.049,0.112757 -0.0834,0.215055 -0.0979,0.303122 -0.007,0.04476 -0.0101,0.08809 -0.006,0.128578 0.002,0.02056 0.006,0.04083 0.0123,0.06041 0.006,0.01976 0.0149,0.03881 0.0263,0.05659 0.0115,0.01797 0.0256,0.03406 0.042,0.04792 0.0166,0.01395 0.0349,0.02505 0.0544,0.03358 0.0392,0.01715 0.0825,0.02354 0.1266,0.02325 0.16294,-0.0012 0.33629,-0.03878 0.50185,-0.09058 0.12859,-0.04024 0.25587,-0.09018 0.37412,-0.141436 0.0611,-0.02648 0.12221,-0.05431 0.18287,-0.08304 0.40782,-0.193107 0.82887,-0.442711 1.15657,-0.655599 0.31855,-0.206951 0.5916,-0.406373 0.78813,-0.57395 0.0444,-0.03785 0.0867,-0.07592 0.12613,-0.113076 0.29709,-0.28019 0.3152,-0.384696 0.302,-0.40005 -0.0165,-0.01918 -0.11301,-0.0074 -0.44898,0.214856 -0.0445,0.02943 -0.091,0.06124 -0.13785,0.09444 -0.21047,0.149118 -0.46775,0.350113 -0.77146,0.571331 -0.31281,0.227849 -0.703,0.496806 -1.09557,0.697195 -0.0579,0.02954 -0.11612,0.05776 -0.1744,0.0842 -0.1131,0.0513 -0.23353,0.09941 -0.35412,0.13714 -0.15668,0.04902 -0.31132,0.07976 -0.44929,0.07852 -0.0267,-2.96e-4 -0.043,-0.0048 -0.0524,-0.0093 -0.004,-0.0022 -0.007,-0.0044 -0.009,-0.0064 -0.002,-0.0019 -0.004,-0.0042 -0.005,-0.0071 -0.002,-0.0029 -0.003,-0.0071 -0.005,-0.01301 -0.002,-0.0059 -0.003,-0.01354 -0.004,-0.02323 -0.001,-0.01955 6e-5,-0.04543 0.006,-0.07874 0.0124,-0.06629 0.0417,-0.152018 0.0892,-0.257133 0.0468,-0.103473 0.10935,-0.221805 0.18594,-0.352883 0.15404,-0.263633 0.36031,-0.571483 0.5949,-0.89915 0.24256,-0.338797 0.51255,-0.694821 0.7798,-1.037503 0.59981,-0.769104 1.27514,-1.582193 1.58101,-1.955176 0.10621,-0.129514 0.19271,-0.235696 0.26467,-0.32562 0.41741,-0.521602 0.43594,-0.6134 0.42286,-0.624892 z"
       id="path8" /><path
       style="fill:#000000;fill-opacity:1;fill-rule:nonzero;stroke:none;stroke-width:0.3;stroke-linecap:round;stroke-linejoin:round;stroke-dasharray:none;stroke-opacity:1;paint-order:stroke markers fill"
       d="m 125.46205,97.775608 h 0 c -0.008,-0.01114 -0.10221,-0.02022 -0.49118,0.242911 -0.0306,0.02071 -0.0625,0.04284 -0.0957,0.06638 -0.19296,0.137187 -0.5075,0.379013 -0.83135,0.671205 -0.15175,0.136915 -0.30965,0.288765 -0.45335,0.444506 -0.13372,0.144925 -0.25805,0.29635 -0.35323,0.444019 -0.0461,0.07148 -0.086,0.143137 -0.11689,0.213649 -0.0304,0.06931 -0.0527,0.13913 -0.063,0.207739 -0.0102,0.0681 -0.009,0.13651 0.0102,0.20187 0.009,0.0325 0.0228,0.0637 0.0406,0.0931 0.0178,0.0294 0.0395,0.0564 0.065,0.081 0.0449,0.0432 0.0921,0.0781 0.14147,0.10509 0.0496,0.0271 0.10051,0.0458 0.15232,0.0569 0.0521,0.0112 0.10439,0.0147 0.15614,0.0121 0.0524,-0.003 0.1042,-0.0114 0.1551,-0.0246 0.10433,-0.027 0.20785,-0.0734 0.30665,-0.12679 0.0849,-0.0459 0.16968,-0.0987 0.25033,-0.15163 0.0194,-0.0127 0.0388,-0.0256 0.0583,-0.0387 0.20245,-0.13608 0.41537,-0.294627 0.62145,-0.416357 0.10283,-0.06074 0.20363,-0.112213 0.30213,-0.148958 0.0994,-0.03709 0.19487,-0.05855 0.28657,-0.06032 0.42691,-0.0077 0.78407,0.07061 0.98797,0.124696 0.012,0.0032 0.0236,0.0063 0.0349,0.0094 0.27146,0.0746 0.3671,0.114813 0.36935,0.11038 0.002,-0.0044 -0.0813,-0.07216 -0.35151,-0.167296 -0.0112,-0.0039 -0.0228,-0.0079 -0.0348,-0.01199 -0.20393,-0.06901 -0.56358,-0.166667 -1.00593,-0.174392 -0.10742,-0.0018 -0.21666,0.0196 -0.32657,0.05678 -0.10871,0.03678 -0.21795,0.08899 -0.32649,0.149301 -0.21375,0.118766 -0.44074,0.279156 -0.63801,0.405406 -0.0194,0.0124 -0.0386,0.0246 -0.0577,0.0365 -0.08,0.0499 -0.16176,0.0976 -0.24238,0.13753 -0.0944,0.0468 -0.18633,0.0826 -0.2733,0.10051 -0.042,0.009 -0.0822,0.0131 -0.12064,0.0128 -0.0379,-2.5e-4 -0.0739,-0.005 -0.10826,-0.0146 -0.034,-0.009 -0.0671,-0.0238 -0.0994,-0.0439 -0.0322,-0.02 -0.0643,-0.0461 -0.0961,-0.0797 -0.0129,-0.0138 -0.0228,-0.0278 -0.0303,-0.0418 -0.007,-0.0141 -0.0129,-0.0289 -0.0165,-0.0445 -0.007,-0.0314 -0.008,-0.0687 8.9e-4,-0.11296 0.009,-0.045 0.026,-0.0956 0.0524,-0.151625 0.0268,-0.0567 0.0622,-0.117116 0.10486,-0.180415 0.0885,-0.131254 0.20569,-0.270509 0.33568,-0.408953 0.13905,-0.148088 0.29235,-0.294812 0.44018,-0.429483 0.29649,-0.270093 0.6382,-0.550207 0.79782,-0.684712 0.0307,-0.02588 0.06,-0.05075 0.0877,-0.0746 0.35213,-0.302837 0.38658,-0.378435 0.37452,-0.395667 z"
       id="path9" /><path
       style="fill:#000000;fill-opacity:1;fill-rule:nonzero;stroke:none;stroke-width:0.3;stroke-linecap:round;stroke-linejoin:round;stroke-dasharray:none;stroke-opacity:1;paint-order:stroke markers fill"
       d="m 138.14118,95.34518 c -0.14741,0.140933 -0.4977,0.416644 -0.88446,0.845601 -0.61256,0.679391 -1.85898,2.32203 -2.95208,3.767769 -0.0166,-0.103035 -0.0363,-0.230377 -0.0582,-0.364144 -0.0313,-0.191543 -0.0613,-0.36585 -0.0948,-0.551115 -0.0502,-0.276989 -0.10452,-0.538066 -0.1634,-0.780793 -0.0632,-0.260445 -0.13137,-0.498877 -0.20495,-0.712294 -0.0704,-0.204085 -0.14948,-0.396367 -0.23876,-0.565364 -0.01,-0.01872 -0.02,-0.03738 -0.0304,-0.05592 -0.0494,-0.08836 -0.10323,-0.172097 -0.1615,-0.247294 -0.0581,-0.07496 -0.11809,-0.138198 -0.17989,-0.189246 -0.0683,-0.05639 -0.13458,-0.09447 -0.19779,-0.118916 -0.0886,-0.03427 -0.16364,-0.03869 -0.21377,-0.03724 0.0505,0.0015 0.12394,0.01076 0.2085,0.04972 0.0601,0.02769 0.12214,0.06858 0.18527,0.12683 0.0572,0.05275 0.11233,0.11707 0.16558,0.192606 0.0534,0.07581 0.10269,0.159671 0.14807,0.24798 0.01,0.01853 0.0188,0.03716 0.0279,0.05584 0.082,0.168559 0.15556,0.359968 0.22095,0.562954 0.0684,0.21231 0.13181,0.449728 0.18922,0.709255 0.0533,0.24122 0.10179,0.502985 0.14341,0.778745 0.0268,0.177815 0.0502,0.366412 0.0681,0.550971 0.0312,0.321032 0.041,0.605145 0.0252,0.604945 l 0.18807,0.0577 c 1.20522,-1.422876 2.62703,-3.102327 3.17827,-3.880474 0.33387,-0.471298 0.52619,-0.873455 0.63143,-1.048146 z"
       id="path10" /><path
       style="fill:#000000;fill-opacity:1;fill-rule:nonzero;stroke:none;stroke-width:0.3;stroke-linecap:round;stroke-linejoin:round;stroke-dasharray:none;stroke-opacity:1;paint-order:stroke markers fill"
       d="m 132.7612,96.336224 c -8.1e-4,-0.0012 -0.006,-0.001 -0.0207,0.0072 -0.0101,0.0055 -0.0254,0.01515 -0.0416,0.02836 -0.0145,0.01177 -0.0305,0.02708 -0.0431,0.04485 -0.006,0.0088 -0.0118,0.01841 -0.0158,0.02883 -0.004,0.01059 -0.007,0.02208 -0.007,0.03431 -2.3e-4,0.01273 0.002,0.0256 0.008,0.03827 0.006,0.01337 0.0143,0.02566 0.0251,0.03686 0.0119,0.0123 0.0263,0.02312 0.0421,0.0327 0.006,0.0038 0.0128,0.0074 0.0194,0.01083 0.0124,0.0064 0.0259,0.01247 0.0405,0.01827 0.0487,0.01932 0.11015,0.03568 0.18397,0.04852 0.0807,0.01403 0.17694,0.02399 0.28869,0.02877 0.0325,0.0012 0.072,-2.66e-4 0.11705,-0.0039 0.0458,-0.0037 0.0986,-0.0098 0.15733,-0.01798 0.0571,-0.0079 0.12022,-0.01787 0.1887,-0.02964 0.0771,-0.01326 0.1589,-0.0283 0.24253,-0.04439 0.34814,-0.06696 0.7785,-0.161414 1.25178,-0.272814 0.35873,-0.08444 0.7892,-0.189629 1.3227,-0.324975 0.54344,-0.137868 1.23691,-0.319228 2.04441,-0.535842 1.3403,-0.359535 2.67612,-0.730649 3.55111,-0.981096 0.8897,-0.254656 1.05282,-0.312189 1.05125,-0.317966 -0.002,-0.0068 -0.17089,0.02897 -1.06835,0.254278 -1.49777,0.376011 -2.07361,0.524559 -3.57137,0.90057 -0.84805,0.212026 -1.4688,0.364811 -2.05016,0.507103 -0.52712,0.129016 -0.97105,0.235905 -1.32185,0.319143 -0.46561,0.110483 -0.90595,0.212378 -1.24337,0.28315 -0.0826,0.01732 -0.16301,0.03363 -0.23864,0.04816 -0.0671,0.0129 -0.12852,0.02415 -0.18361,0.03357 -0.0568,0.0097 -0.10658,0.01745 -0.14895,0.02306 -0.0422,0.0056 -0.0754,0.0089 -0.10056,0.01014 -0.10819,0.0048 -0.20014,0.0065 -0.27677,0.0044 -0.0703,-0.0019 -0.12691,-0.007 -0.17068,-0.01561 -0.013,-0.0026 -0.0248,-0.0054 -0.0353,-0.0085 -0.006,-0.0017 -0.011,-0.0034 -0.0161,-0.0053 -0.013,-0.0047 -0.0237,-0.0098 -0.0322,-0.01511 -0.008,-0.0048 -0.0133,-0.0096 -0.0173,-0.01427 -0.004,-0.0044 -0.007,-0.0091 -0.008,-0.01453 -0.002,-0.0053 -0.002,-0.01143 -0.001,-0.01849 7.5e-4,-0.007 0.003,-0.01447 0.006,-0.02231 0.007,-0.01613 0.0172,-0.03196 0.0281,-0.04582 0.0117,-0.01479 0.0245,-0.02803 0.0318,-0.03577 0.0115,-0.01214 0.0141,-0.01556 0.0131,-0.01711 z"
       id="path11" /><path
       style="fill:#000000;fill-opacity:1;fill-rule:nonzero;stroke:none;stroke-width:0.3;stroke-linecap:round;stroke-linejoin:round;stroke-dasharray:none;stroke-opacity:1;paint-order:stroke markers fill"
       d="m 143.16721,94.165358 c -8.2e-4,-0.0019 -0.22998,0.0799 -1.6268,0.690869 -0.91613,0.400712 -3.08618,1.365847 -5.39903,2.437613 -0.86473,0.400716 -1.74454,0.814179 -2.57606,1.214222 -0.83535,0.401887 -1.59828,0.778841 -2.24851,1.114163 -0.3356,0.173067 -0.636,0.332376 -0.89921,0.477055 -0.27584,0.15162 -0.50722,0.28518 -0.69514,0.401 -0.0985,0.0607 -0.1846,0.11626 -0.25873,0.1668 -0.0173,0.0118 -0.0339,0.0233 -0.0498,0.0345 -0.0549,0.0386 -0.10286,0.0744 -0.14375,0.10738 -0.0534,0.0431 -0.0957,0.0822 -0.1254,0.11705 -0.0151,0.0177 -0.0276,0.035 -0.0367,0.052 -0.009,0.017 -0.0157,0.0351 -0.017,0.0539 -0.001,0.0181 0.002,0.0359 0.009,0.0529 0.008,0.0169 0.0192,0.0315 0.0333,0.0441 0.0141,0.0125 0.031,0.0231 0.0496,0.0322 0.0188,0.009 0.0398,0.0169 0.0628,0.0235 0.0463,0.0134 0.10196,0.0226 0.16541,0.0284 0.0641,0.006 0.13713,0.008 0.21783,0.008 0.16278,-0.001 0.35895,-0.0153 0.58123,-0.0398 0.22377,-0.0247 0.47552,-0.0602 0.7492,-0.10514 0.54344,-0.0891 1.17846,-0.21584 1.8672,-0.37075 0.35146,-0.0791 0.71773,-0.16563 1.09418,-0.25863 0.32685,-0.0808 0.67361,-0.16939 1.03591,-0.26467 1.62126,-0.42636 3.31519,-0.922394 4.41467,-1.263966 1.13071,-0.351271 1.34477,-0.446503 1.34153,-0.457709 -0.004,-0.01433 -0.23354,0.02769 -1.3816,0.314628 -1.89021,0.472431 -2.55783,0.647283 -4.44804,1.119714 -0.36838,0.09145 -0.70391,0.174213 -1.03549,0.255733 -0.37539,0.0923 -0.73992,0.18153 -1.08859,0.26575 -0.68292,0.16495 -1.31079,0.31206 -1.84388,0.42572 -0.26881,0.0573 -0.51499,0.10644 -0.73297,0.14519 -0.21679,0.0385 -0.40589,0.0668 -0.56151,0.0827 -0.0771,0.008 -0.14564,0.0126 -0.20505,0.0141 -0.0591,0.001 -0.10807,-3.6e-4 -0.14714,-0.005 -0.0193,-0.002 -0.0357,-0.006 -0.0494,-0.009 -0.0137,-0.004 -0.0241,-0.008 -0.0319,-0.0117 -0.008,-0.004 -0.0129,-0.008 -0.0163,-0.0112 -0.003,-0.003 -0.006,-0.008 -0.008,-0.0141 -0.001,-0.005 -9.7e-4,-0.0143 0.003,-0.0268 0.004,-0.0123 0.012,-0.0269 0.0235,-0.0437 0.0229,-0.0332 0.0593,-0.0725 0.10939,-0.11741 0.0381,-0.0341 0.0837,-0.0711 0.13684,-0.11092 0.0154,-0.0116 0.0316,-0.0234 0.0483,-0.0355 0.0721,-0.0521 0.15652,-0.1091 0.25371,-0.17123 0.18533,-0.11848 0.41502,-0.25422 0.68965,-0.40743 0.26199,-0.146174 0.56179,-0.306534 0.8969,-0.480095 0.6489,-0.336074 1.41312,-0.712806 2.24863,-1.112654 0.83202,-0.398177 1.7134,-0.80906 2.57919,-1.206713 2.24796,-1.032475 4.55852,-2.050661 5.40345,-2.426417 1.3929,-0.619451 1.61273,-0.722683 1.61058,-0.727643 z"
       id="path12" /><path
       style="fill:#000000;fill-opacity:1;fill-rule:nonzero;stroke:none;stroke-width:0.3;stroke-linecap:round;stroke-linejoin:round;stroke-dasharray:none;stroke-opacity:1;paint-order:stroke markers fill"
       d="m 140.97668,98.010185 c -0.0318,0.01328 -0.10597,0.02027 -0.19094,0.07971 -0.32413,0.226763 -1.31061,1.447399 -1.90331,2.115475 a 0.14458093,0.08178515 14.73208 0 0 0.1472,0.14328 c -0.002,-1.5e-4 1.06713,-0.991992 2.10113,-1.867337 0.29363,-0.248573 0.57319,-0.479243 0.83598,-0.689487 0.28652,-0.22922 0.53307,-0.418151 0.74729,-0.575862 0.0148,-0.01087 0.0294,-0.02165 0.044,-0.03234 0.2635,-0.192902 0.47999,-0.341033 0.65978,-0.448736 0.10396,-0.06228 0.18838,-0.106628 0.2579,-0.13781 0.042,-0.01885 0.0778,-0.03251 0.10836,-0.04236 0.0405,-0.01303 0.0716,-0.01923 0.0949,-0.02186 -0.0233,-0.0026 -0.0556,-0.0043 -0.0994,-3.96e-4 -0.0331,0.003 -0.0724,0.0091 -0.11892,0.02021 -0.077,0.0184 -0.1709,0.04972 -0.2853,0.09965 -0.19596,0.08553 -0.43413,0.21794 -0.70927,0.398813 -0.0153,0.01008 -0.0307,0.02028 -0.0462,0.0306 -0.22326,0.148939 -0.4798,0.33446 -0.77153,0.559457 -0.26783,0.206557 -0.55291,0.436836 -0.84886,0.684127 -0.1731,0.144639 -0.34675,0.292788 -0.51602,0.439312 0.21104,-0.240226 0.37348,-0.440317 0.43582,-0.555638 0.0493,-0.09122 0.0478,-0.165676 0.0573,-0.198811 z"
       id="path13" /><path
       style="fill:#000000;fill-opacity:1;fill-rule:nonzero;stroke:none;stroke-width:0.3;stroke-linecap:round;stroke-linejoin:round;stroke-dasharray:none;stroke-opacity:1;paint-order:stroke markers fill"
       d="m 143.87904,96.532863 c 0.0131,0.0047 0.0265,0.01384 0.0341,0.02734 0.006,0.01017 0.007,0.02077 0.006,0.03224 -0.001,0.0093 -0.004,0.02015 -0.007,0.0322 -0.003,0.01014 -0.008,0.02545 -0.0123,0.04067 -0.009,0.03061 -0.0212,0.06721 -0.0388,0.119872 -0.0119,0.03566 -0.0246,0.07294 -0.0403,0.119007 -0.005,0.01578 -0.0111,0.03252 -0.0173,0.05037 -0.0394,0.113835 -0.0911,0.256412 -0.16906,0.450116 -0.064,0.159067 -0.13862,0.335069 -0.22519,0.530509 -0.15846,0.357774 -0.32419,0.706993 -0.46828,1.007248 -0.13716,0.285813 -0.22342,0.46281 -0.21642,0.465905 a 0.15308364,0.00891457 29.052777 0 0 0.17889,0.113464 c -0.006,-0.0033 0.15244,-0.225786 0.35382,-0.481326 0.0399,-0.05063 0.0825,-0.104098 0.12764,-0.160008 0.33131,-0.410615 0.75928,-0.906668 1.22556,-1.390555 0.55595,-0.57695 1.07746,-1.045083 1.54971,-1.395807 0.015,-0.01116 0.03,-0.02217 0.0448,-0.03303 0.25346,-0.185478 0.4911,-0.337222 0.71721,-0.450214 0.33315,-0.166483 0.56636,-0.209877 0.70945,-0.218553 -0.14145,-0.0086 -0.38631,-0.0044 -0.74754,0.130912 -0.24347,0.09117 -0.5037,0.228413 -0.77095,0.406209 -0.0157,0.01045 -0.0315,0.02107 -0.0474,0.03186 -0.49555,0.337149 -1.03281,0.818436 -1.58934,1.399915 -0.47015,0.491221 -0.89552,0.992584 -1.23216,1.405167 -0.0458,0.05609 -0.0891,0.109578 -0.12991,0.160153 -0.20588,0.25517 -0.3754,0.472588 -0.38189,0.469296 l 0.17889,0.113464 c 0.007,0.003 0.10901,-0.167331 0.26141,-0.448456 0.15549,-0.286822 0.34264,-0.651398 0.50507,-1.004346 0.0903,-0.196255 0.1686,-0.379322 0.23162,-0.543865 0.0763,-0.199179 0.12584,-0.3597 0.15281,-0.487104 0.004,-0.02048 0.008,-0.03998 0.0112,-0.05855 0.009,-0.05287 0.0138,-0.10177 0.0146,-0.146381 0.001,-0.06632 -0.006,-0.122766 -0.0215,-0.168724 -0.008,-0.02548 -0.0191,-0.04761 -0.0318,-0.06612 -0.0142,-0.02069 -0.0304,-0.03623 -0.0476,-0.04674 -0.0202,-0.01238 -0.0396,-0.01656 -0.0562,-0.0167 -0.0211,-1.69e-4 -0.0393,0.0063 -0.0512,0.01056 z"
       id="path14" /><path
       style="fill:#000000;fill-opacity:1;fill-rule:nonzero;stroke:none;stroke-width:0.3;stroke-linecap:round;stroke-linejoin:round;stroke-dasharray:none;stroke-opacity:1;paint-order:stroke markers fill"
       d="m 147.63087,95.392313 c 0.0393,0.0059 0.0858,0.02016 0.1224,0.05023 0.0136,0.0112 0.0252,0.02401 0.0345,0.03852 0.009,0.01317 0.0151,0.02758 0.0201,0.0434 0.009,0.02865 0.0129,0.06346 0.0115,0.105899 -0.001,0.04016 -0.007,0.08763 -0.0191,0.143583 -0.0234,0.112537 -0.067,0.248801 -0.12748,0.409822 -0.0124,0.03293 -0.0253,0.06642 -0.0386,0.100426 -0.0524,0.133535 -0.1161,0.284871 -0.19361,0.456521 -0.18179,0.402551 -0.4247,0.883982 -0.7286,1.435427 -0.29559,0.536363 -0.63082,1.105979 -0.97527,1.659605 -0.71625,1.151215 -1.48754,2.261575 -2.04575,3.097025 -0.11779,0.1763 -0.22299,0.33588 -0.31455,0.47885 -0.49968,0.7803 -0.56202,1.00718 -0.53563,1.02604 0.0231,0.0165 0.22691,-0.11012 0.78237,-0.85539 0.10159,-0.13632 0.21374,-0.29237 0.33554,-0.46639 0.57023,-0.8148 1.32036,-1.97666 2.03274,-3.121652 0.3466,-0.557085 0.69264,-1.123067 0.99954,-1.661734 0.31331,-0.549915 0.56982,-1.04347 0.74683,-1.46191 0.0759,-0.179431 0.13597,-0.342209 0.18004,-0.488717 0.0113,-0.0374 0.0217,-0.07463 0.0312,-0.111504 0.046,-0.178276 0.0692,-0.343225 0.0628,-0.482347 -0.003,-0.07019 -0.014,-0.132671 -0.0323,-0.186563 -0.0196,-0.05781 -0.0473,-0.103793 -0.0811,-0.138122 -0.0183,-0.01858 -0.0377,-0.0331 -0.0577,-0.04424 -0.0218,-0.01217 -0.0438,-0.02011 -0.065,-0.02511 -0.0544,-0.0128 -0.10807,-0.0072 -0.14492,-0.0017 z"
       id="path15" /><path
       style="fill:#000000;fill-opacity:1;fill-rule:nonzero;stroke:none;stroke-width:0.3;stroke-linecap:round;stroke-linejoin:round;stroke-dasharray:none;stroke-opacity:1;paint-order:stroke markers fill"
       d="m 150.37591,96.505336 v 0 c -0.003,-0.01319 -0.0877,-0.05864 -0.47033,0.02702 -0.0305,0.0068 -0.0631,0.01453 -0.0978,0.02317 -0.27522,0.06864 -0.73381,0.210917 -1.21841,0.446673 -0.22085,0.107445 -0.44486,0.233323 -0.65666,0.378898 -0.21601,0.148463 -0.41352,0.313417 -0.58226,0.495613 -0.0198,0.02133 -0.0391,0.04285 -0.0579,0.06456 -0.14756,0.169773 -0.27226,0.356949 -0.36311,0.56229 -0.10262,0.231929 -0.16145,0.485768 -0.16137,0.760941 8.1e-4,0.03684 0.006,0.07166 0.0171,0.105068 0.011,0.03351 0.0273,0.06452 0.049,0.09205 0.0216,0.0274 0.0472,0.0498 0.0755,0.06759 0.0279,0.01762 0.0578,0.03042 0.0886,0.03957 0.0602,0.01791 0.12645,0.0226 0.19419,0.01916 0.0676,-0.0034 0.14111,-0.0152 0.21862,-0.03365 0.1004,-0.02389 0.21067,-0.05975 0.32779,-0.106083 0.059,-0.02333 0.12182,-0.05027 0.18829,-0.08112 0.17611,-0.08173 0.37514,-0.189778 0.58557,-0.324614 0.40884,-0.261976 0.81358,-0.594796 1.13294,-0.960658 0.17712,-0.202917 0.31332,-0.399037 0.41402,-0.584101 0.14156,-0.260145 0.19743,-0.469884 0.22197,-0.614842 -0.0336,0.14351 -0.10283,0.346948 -0.2577,0.593953 -0.11007,0.175531 -0.25505,0.359828 -0.43951,0.548462 -0.33282,0.340363 -0.74535,0.644473 -1.15591,0.877962 -0.21138,0.120211 -0.40818,0.213705 -0.57987,0.282533 -0.0647,0.02593 -0.12521,0.04813 -0.18142,0.06701 -0.11206,0.03764 -0.2136,0.06389 -0.30204,0.07889 -0.0685,0.01162 -0.12766,0.01622 -0.17675,0.01468 -0.0501,-0.0016 -0.0859,-0.0094 -0.10911,-0.01956 -0.0114,-0.005 -0.0187,-0.01007 -0.0233,-0.01438 -0.004,-0.0043 -0.006,-0.0077 -0.007,-0.01043 -7.4e-4,-0.0023 -0.001,-0.0062 -0.002,-0.01083 -6.1e-4,-0.0051 -0.001,-0.01324 -4.2e-4,-0.02505 0.006,-0.232724 0.0605,-0.446448 0.15026,-0.642377 0.0798,-0.174244 0.1887,-0.336834 0.31963,-0.48874 0.0168,-0.01943 0.0339,-0.03876 0.0516,-0.058 0.15077,-0.164585 0.32957,-0.317818 0.52963,-0.46019 0.19615,-0.139587 0.40523,-0.263405 0.61395,-0.372694 0.45154,-0.236431 0.90162,-0.403691 1.15523,-0.498154 0.13386,-0.04986 -0.0418,0.01557 0.092,-0.03429 0.35883,-0.134029 0.42206,-0.183289 0.41719,-0.206341 z"
       id="path16" /><path
       style="fill:#000000;fill-opacity:1;fill-rule:nonzero;stroke:none;stroke-width:0.3;stroke-linecap:round;stroke-linejoin:round;stroke-dasharray:none;stroke-opacity:1;paint-order:stroke markers fill"
       d="m 150.28153,96.882875 v 0 c -0.0211,-0.01344 -0.114,-0.04178 -0.23249,0.09253 -0.0186,0.02113 -0.0393,0.04756 -0.0623,0.07978 -0.0833,0.117059 -0.20329,0.319972 -0.3163,0.566507 -0.0465,0.101512 -0.0914,0.210359 -0.12646,0.316491 -0.0332,0.100301 -0.0592,0.202684 -0.0683,0.296589 -0.004,0.04639 -0.005,0.09355 7.8e-4,0.138992 0.006,0.04518 0.0188,0.0928 0.0443,0.136411 0.013,0.0221 0.029,0.04291 0.0486,0.06137 0.0197,0.01859 0.0419,0.0338 0.066,0.04547 0.0242,0.01169 0.0493,0.01931 0.0746,0.02371 0.0254,0.0044 0.0509,0.0056 0.076,0.0044 0.0526,-0.0023 0.10683,-0.01632 0.15788,-0.0343 0.0536,-0.01886 0.11056,-0.04456 0.1685,-0.07392 0.12328,-0.06248 0.26306,-0.147895 0.40031,-0.236755 0.13125,-0.08497 0.26959,-0.179279 0.39414,-0.264961 0.19049,-0.131047 0.39855,-0.277251 0.59569,-0.41478 0.40534,-0.282779 0.71594,-0.494309 1.00055,-0.670181 0.17706,-0.109407 0.30162,-0.178515 0.40003,-0.230986 0.0151,-0.008 0.0292,-0.01551 0.0425,-0.0225 0.0426,-0.02246 0.082,-0.04396 0.11187,-0.06003 0.0633,-0.03411 0.1014,-0.05331 0.12646,-0.06063 -0.0234,-0.0068 -0.0694,-0.02219 -0.14792,-0.01717 -0.0388,0.0025 -0.084,0.0099 -0.13551,0.02475 -0.0155,0.0045 -0.0318,0.0096 -0.0491,0.01554 -0.1101,0.03768 -0.25054,0.10339 -0.43341,0.20739 -0.29053,0.165237 -0.61897,0.386205 -1.02135,0.660065 -0.20065,0.136558 -0.40676,0.277178 -0.60034,0.403551 -0.12637,0.0825 -0.26413,0.16951 -0.39636,0.246954 -0.13888,0.08134 -0.27401,0.153516 -0.38888,0.201621 -0.0537,0.02251 -0.10143,0.03906 -0.14168,0.0489 -0.0397,0.0097 -0.0678,0.01173 -0.0833,0.0092 -0.009,-0.0012 -0.014,-0.0031 -0.0167,-0.0049 -0.003,-0.0018 -0.002,-0.0032 -4.8e-4,-0.0035 0.002,-3.56e-4 0.005,4.32e-4 0.008,0.0016 0.003,0.0011 0.005,0.0022 0.006,0.0019 0.002,-5.95e-4 0.001,-0.0076 0.002,-0.02418 7.7e-4,-0.01697 0.003,-0.03932 0.009,-0.0693 0.0125,-0.06148 0.0368,-0.137318 0.0714,-0.224929 0.0358,-0.09066 0.0798,-0.187038 0.12546,-0.281346 0.11013,-0.227227 0.22053,-0.426743 0.27877,-0.552848 0.0161,-0.03479 0.0286,-0.06457 0.0379,-0.09036 0.0607,-0.168206 -0.002,-0.231604 -0.0252,-0.246124 z"
       id="path17" /><path
       style="fill:#000000;fill-opacity:1;fill-rule:nonzero;stroke:none;stroke-width:0.3;stroke-linecap:round;stroke-linejoin:round;stroke-dasharray:none;stroke-opacity:1;paint-order:stroke markers fill"
       d="m 153.18388,96.576125 c 0.0115,0.0029 0.0238,0.0083 0.0339,0.01717 0.008,0.0068 0.0136,0.01496 0.0174,0.02456 0.003,0.0082 0.005,0.01738 0.006,0.02778 6.6e-4,0.0094 4.8e-4,0.02035 -5.4e-4,0.03281 -0.002,0.02301 -0.007,0.05226 -0.0152,0.08857 -0.008,0.03447 -0.019,0.07412 -0.033,0.119722 -0.0191,0.06201 -0.0422,0.129744 -0.0684,0.204494 -0.0121,0.03437 -0.0251,0.07053 -0.0392,0.108559 -0.0415,0.112106 -0.0901,0.235605 -0.14553,0.369579 -0.10195,0.246547 -0.21192,0.492731 -0.30857,0.703405 -0.0866,0.188861 -0.15051,0.322524 -0.14782,0.32261 a 0.20449283,0.07043192 13.886028 0 0 0.25007,0.161718 c -0.007,0.0018 0.40122,-0.521121 1.1534,-1.117006 0.39546,-0.313293 0.80873,-0.579507 1.22859,-0.778695 0.56288,-0.267041 0.97809,-0.338334 1.20864,-0.379934 0.14319,-0.02584 0.21445,-0.04799 0.25837,-0.05535 -0.036,-0.006 -0.12381,-0.03198 -0.26595,-0.03254 -0.23314,-9.22e-4 -0.68745,0.04852 -1.27779,0.295667 -0.44474,0.186188 -0.88305,0.448094 -1.29991,0.757799 -0.79432,0.590146 -1.2292,1.116126 -1.23573,1.117895 l 0.25007,0.161718 c 0.003,8.6e-5 0.0695,-0.135349 0.15525,-0.328922 0.0938,-0.211755 0.20231,-0.47426 0.29093,-0.729965 0.0487,-0.140655 0.0897,-0.27407 0.1202,-0.395969 0.0104,-0.04156 0.0195,-0.08151 0.0273,-0.119795 0.0168,-0.08236 0.0275,-0.162191 0.0307,-0.234972 0.002,-0.054 4.8e-4,-0.103336 -0.006,-0.147 -0.007,-0.04643 -0.0185,-0.08569 -0.0348,-0.117066 -0.009,-0.01707 -0.0191,-0.0315 -0.0302,-0.04329 -0.0123,-0.01299 -0.0252,-0.02227 -0.0383,-0.02847 -0.0149,-0.0071 -0.0293,-0.0098 -0.042,-0.0103 -0.0162,-5.99e-4 -0.0308,0.0024 -0.0418,0.0052 z"
       id="path18" /><path
       style="fill:#000000;fill-opacity:1;fill-rule:nonzero;stroke:none;stroke-width:0.3;stroke-linecap:round;stroke-linejoin:round;stroke-dasharray:none;stroke-opacity:1;paint-order:stroke markers fill"
       d="m 156.58176,96.426125 c 0.0182,0.0026 0.0385,0.008 0.0576,0.01758 0.0148,0.0074 0.0281,0.01696 0.0391,0.0289 0.009,0.01024 0.017,0.02186 0.0227,0.03503 0.005,0.01184 0.009,0.02508 0.0115,0.03997 0.005,0.02674 0.005,0.06028 0.001,0.102419 -0.004,0.03872 -0.0114,0.08413 -0.0236,0.137501 -0.009,0.04128 -0.0212,0.08638 -0.0355,0.135679 -0.0186,0.06418 -0.0423,0.138515 -0.0734,0.226197 -0.0446,0.125606 -0.1,0.266208 -0.16834,0.427733 -0.0603,0.142615 -0.12381,0.285176 -0.1907,0.433464 -0.0595,0.132019 -0.12253,0.270122 -0.17169,0.382365 -0.0245,0.05596 -0.0469,0.108402 -0.0659,0.155484 -0.0187,0.04644 -0.0346,0.08885 -0.0462,0.12525 -0.006,0.01818 -0.0108,0.03573 -0.0146,0.05219 -0.004,0.01594 -0.007,0.03359 -0.008,0.05123 -4.5e-4,0.009 -4.2e-4,0.01973 0.001,0.03135 0.001,0.01134 0.005,0.02678 0.0128,0.04305 0.004,0.0084 0.01,0.01731 0.0172,0.02597 0.008,0.0088 0.0167,0.01677 0.0274,0.02341 0.0107,0.0066 0.022,0.01127 0.0332,0.01414 0.0111,0.0028 0.0217,0.0038 0.031,0.0038 0.005,-3.7e-5 0.0102,-4.51e-4 0.0137,-8.59e-4 0.004,-4.21e-4 0.007,-9.5e-4 0.01,-0.0015 0.005,-0.001 0.0106,-0.0022 0.0151,-0.0034 0.009,-0.0024 0.019,-0.0055 0.0291,-0.0088 0.0206,-0.0068 0.047,-0.0165 0.0778,-0.02837 0.063,-0.02425 0.14881,-0.05934 0.25255,-0.103792 0.21935,-0.09398 0.51004,-0.225908 0.84264,-0.387325 0.62557,-0.303606 1.28275,-0.654467 1.90963,-1.028323 0.18762,-0.111895 0.37786,-0.228942 0.56842,-0.350701 0.96737,-0.618104 1.82347,-1.281144 2.45013,-1.961995 0.38149,-0.414479 0.63555,-0.78949 0.79993,-1.122625 0.11284,-0.228706 0.17709,-0.42501 0.21363,-0.582875 0.004,-0.01838 0.008,-0.03621 0.0116,-0.05344 0.0529,-0.259621 0.0327,-0.45242 0.0266,-0.531234 -0.006,0.07948 -0.033,0.26803 -0.10488,0.511816 -0.005,0.01632 -0.01,0.03319 -0.0154,0.05059 -0.0469,0.149352 -0.11805,0.334845 -0.23478,0.552039 -0.17005,0.316402 -0.42355,0.675412 -0.80307,1.076556 -0.62419,0.65977 -1.47147,1.308338 -2.43653,1.914906 -0.18981,0.119303 -0.37938,0.233945 -0.56644,0.343433 -0.62434,0.365428 -1.28126,0.709212 -1.90412,1.004119 -0.3314,0.156905 -0.62094,0.284565 -0.83777,0.373951 -0.10282,0.04239 -0.18637,0.07494 -0.24619,0.09648 -0.0295,0.01063 -0.0525,0.01829 -0.0683,0.02294 -0.008,0.0023 -0.0133,0.0037 -0.0159,0.0041 -8.3e-4,1.48e-4 -0.002,2.24e-4 -1.2e-4,-1.68e-4 0.006,-8.68e-4 0.009,-0.0012 0.013,-0.0012 0.007,-7.7e-5 0.0149,6.16e-4 0.0239,0.0029 0.009,0.0023 0.0183,0.0061 0.0272,0.01155 0.009,0.0055 0.0164,0.01208 0.0225,0.01913 0.006,0.007 0.0103,0.0139 0.0134,0.02002 0.006,0.01174 0.008,0.02162 0.008,0.02627 7.7e-4,0.0053 6.7e-4,0.0077 7.6e-4,0.0082 1.9e-4,0.0011 0.001,-0.0045 0.003,-0.0131 0.002,-0.0089 0.006,-0.02037 0.0109,-0.03485 0.01,-0.0291 0.0244,-0.0658 0.0427,-0.109972 0.0184,-0.0443 0.0403,-0.09457 0.0646,-0.149603 0.055,-0.124291 0.11552,-0.25723 0.17055,-0.381521 0.0658,-0.148565 0.1294,-0.296441 0.18749,-0.442208 0.066,-0.165617 0.11927,-0.314625 0.15897,-0.44794 0.0278,-0.0935 0.0478,-0.175171 0.061,-0.246687 0.0102,-0.05501 0.0168,-0.106934 0.0197,-0.155322 0.004,-0.06253 0.001,-0.118567 -0.008,-0.167587 -0.01,-0.05387 -0.0265,-0.09822 -0.0497,-0.132801 -0.0128,-0.01911 -0.0272,-0.03469 -0.0425,-0.04708 -0.017,-0.01372 -0.0347,-0.02308 -0.0521,-0.0293 -0.0201,-0.0072 -0.0398,-0.01015 -0.0579,-0.01098 -0.0232,-0.0011 -0.0451,0.0013 -0.0629,0.0039 z"
       id="path19" /><path
       style="fill:#000000;fill-opacity:1;fill-rule:nonzero;stroke:none;stroke-width:0.3;stroke-linecap:round;stroke-linejoin:round;stroke-dasharray:none;stroke-opacity:1;paint-order:stroke markers fill"
       d="m 159.03972,94.928308 h 0 c 1.3e-4,0.02519 0.28251,0.09367 1.17552,0.1078 0.63939,0.01012 1.44164,-0.01111 2.29301,-0.0433 4.7e-4,-1.8e-5 0.11814,-0.0045 0.11861,-0.0045 0.82593,-0.03205 1.68825,-0.07945 2.34944,-0.151882 0.14216,-0.01557 0.27132,-0.03189 0.38764,-0.04897 0.0319,-0.0047 0.0636,-0.0096 0.0951,-0.01469 0.14328,-0.02324 0.2757,-0.04988 0.38938,-0.07887 0.11924,-0.03041 0.20967,-0.06128 0.27556,-0.09147 0.0385,-0.01763 0.0669,-0.03424 0.0878,-0.04943 0.0125,-0.0091 0.0221,-0.0175 0.0295,-0.02509 0.01,-0.0097 0.0152,-0.01794 0.0189,-0.02429 -0.006,0.0037 -0.015,0.0076 -0.027,0.01169 -0.009,0.0032 -0.0206,0.0065 -0.0345,0.0099 -0.0232,0.0056 -0.0533,0.01148 -0.0928,0.01749 -0.068,0.01035 -0.15843,0.02041 -0.27801,0.03073 -0.11557,0.01 -0.24389,0.01898 -0.38838,0.02861 -0.0111,7.39e-4 -0.0836,0.0055 -0.0947,0.0063 -0.11623,0.0077 -0.24366,0.01561 -0.38562,0.02375 -0.68554,0.03934 -1.48948,0.0709 -2.34122,0.09572 -0.001,4e-5 -0.11696,0.0033 -0.11833,0.0034 -0.85848,0.02376 -1.64514,0.03348 -2.28811,0.06322 -0.89067,0.0412 -1.17199,0.106539 -1.17185,0.134005 z"
       id="path20" /><path
       style="fill:#000000;fill-opacity:1;fill-rule:nonzero;stroke:none;stroke-width:0.3;stroke-linecap:round;stroke-linejoin:round;stroke-dasharray:none;stroke-opacity:1;paint-order:stroke markers fill"
       d="m 163.25955,92.753507 c -0.0108,-0.0088 -0.13988,0.06788 -0.60252,0.621236 -0.11419,0.136585 -0.23839,0.290842 -0.36535,0.455813 -0.22164,0.288007 -0.49786,0.665565 -0.77356,1.079854 -0.1884,0.283103 -0.37784,0.585366 -0.54716,0.885758 -0.16414,0.291206 -0.3087,0.579464 -0.41582,0.847467 -0.0536,0.13414 -0.0979,0.263299 -0.13067,0.385612 -0.0332,0.123967 -0.0549,0.241861 -0.0624,0.351698 -0.008,0.112589 -4.7e-4,0.219011 0.0262,0.315824 0.028,0.101836 0.0773,0.191345 0.14993,0.26356 0.0653,0.06489 0.13786,0.115572 0.21567,0.153389 0.0785,0.03817 0.16121,0.06264 0.24567,0.07606 0.17076,0.02713 0.35091,0.0095 0.52751,-0.03313 0.18105,-0.04369 0.36546,-0.115338 0.5437,-0.200952 0.18242,-0.08762 0.36224,-0.191716 0.53095,-0.300409 0.061,-0.03928 0.12072,-0.07931 0.17887,-0.119575 0.25707,-0.178 0.49995,-0.375914 0.69003,-0.547811 0.30344,-0.274404 0.34122,-0.354378 0.33559,-0.360651 -0.0116,-0.01291 -0.0792,0.03329 -0.4136,0.261704 -0.21726,0.148415 -0.45691,0.308302 -0.72633,0.46956 -0.059,0.03534 -0.1193,0.07043 -0.1804,0.104816 -0.16944,0.09535 -0.34572,0.185382 -0.52056,0.259637 -0.17152,0.07284 -0.34043,0.129962 -0.49897,0.162212 -0.15565,0.03166 -0.29648,0.03835 -0.41782,0.01591 -0.0592,-0.01096 -0.11349,-0.02878 -0.16284,-0.05386 -0.0486,-0.02471 -0.0939,-0.05716 -0.13533,-0.09903 -0.0311,-0.03151 -0.0557,-0.07347 -0.0713,-0.130984 -0.0152,-0.05637 -0.0216,-0.127526 -0.0156,-0.215761 0.006,-0.0858 0.0232,-0.184045 0.0525,-0.294502 0.0288,-0.10865 0.0685,-0.226643 0.11804,-0.352786 0.0993,-0.252599 0.23501,-0.529725 0.39202,-0.816234 0.16159,-0.294874 0.3427,-0.594218 0.52264,-0.877673 0.26054,-0.410436 0.52736,-0.801022 0.72904,-1.094323 0.11341,-0.164923 0.23211,-0.337685 0.32823,-0.47859 0.40433,-0.592704 0.47143,-0.719362 0.45367,-0.733837 z"
       id="path21" /><path
       style="fill:#000000;fill-opacity:1;fill-rule:nonzero;stroke:none;stroke-width:0.3;stroke-linecap:round;stroke-linejoin:round;stroke-dasharray:none;stroke-opacity:1;paint-order:stroke markers fill"
       d="m 163.8062,96.627248 c -0.0143,-0.0046 -0.0804,0.004 -0.14916,0.184214 -0.01,0.02605 -0.0204,0.05655 -0.0309,0.09152 -0.0428,0.141002 -0.1002,0.396522 -0.11154,0.675455 -0.005,0.121503 -0.001,0.249694 0.0184,0.373462 0.019,0.120606 0.0532,0.238732 0.10995,0.342982 0.058,0.106521 0.13834,0.196132 0.24511,0.258494 0.0547,0.03192 0.11434,0.05559 0.17862,0.0712 0.0577,0.01402 0.11854,0.02137 0.18196,0.02269 0.01,2.03e-4 0.0195,2.62e-4 0.0295,1.76e-4 0.14696,-0.0013 0.30691,-0.0357 0.47659,-0.09702 0.16211,-0.05859 0.33174,-0.141233 0.50423,-0.240691 0.3484,-0.200885 0.69907,-0.464997 0.99711,-0.713012 0.34808,-0.289665 0.627,-0.559155 0.77825,-0.712897 0.027,-0.02745 0.0513,-0.05259 0.073,-0.07532 0.20938,-0.219887 0.21973,-0.270819 0.2148,-0.275628 v 0 c -0.008,-0.0075 -0.0507,0.01108 -0.27933,0.207787 -0.008,0.0066 -0.0712,0.06149 -0.0789,0.06804 -0.15144,0.130809 -0.46315,0.401575 -0.80566,0.666017 -0.30401,0.234716 -0.65326,0.481542 -0.99384,0.665902 -0.16833,0.09112 -0.3289,0.163919 -0.47797,0.213724 -0.15658,0.05231 -0.29259,0.07662 -0.40828,0.07534 -0.008,-8.6e-5 -0.0156,-2.84e-4 -0.0231,-5.87e-4 -0.0493,-0.002 -0.0938,-0.0087 -0.13378,-0.01947 -0.0443,-0.01197 -0.083,-0.02894 -0.11687,-0.05013 -0.065,-0.04064 -0.11569,-0.09899 -0.15436,-0.174537 -0.0387,-0.07552 -0.0644,-0.166698 -0.0794,-0.269235 -0.0153,-0.104866 -0.0186,-0.217111 -0.0149,-0.328346 0.008,-0.247077 0.0532,-0.50625 0.0728,-0.638571 0.005,-0.03478 0.009,-0.06491 0.0125,-0.09171 0.0214,-0.183335 -0.0161,-0.223841 -0.0348,-0.229841 z"
       id="path22" /></g></svg>
