<?xml version="1.0" encoding="UTF-8" standalone="no"?>
<!-- Created with Inkscape (http://www.inkscape.org/) -->

<svg
   width="54.283955mm"
   height="29.207422mm"
   viewBox="0 0 54.283955 29.207422"
   version="1.1"
   id="svg5"
   xml:space="preserve"
   inkscape:version="1.2 (dc2aedaf03, 2022-05-15)"
   sodipodi:docname="suzet_signature.svg"
   xmlns:inkscape="http://www.inkscape.org/namespaces/inkscape"
   xmlns:sodipodi="http://sodipodi.sourceforge.net/DTD/sodipodi-0.dtd"
   xmlns="http://www.w3.org/2000/svg"
   xmlns:svg="http://www.w3.org/2000/svg"><sodipodi:namedview
     id="namedview7"
     pagecolor="#ffffff"
     bordercolor="#666666"
     borderopacity="1.0"
     inkscape:showpageshadow="2"
     inkscape:pageopacity="0.0"
     inkscape:pagecheckerboard="0"
     inkscape:deskcolor="#d1d1d1"
     inkscape:document-units="mm"
     showgrid="false"
     inkscape:zoom="3.3638608"
     inkscape:cx="106.57397"
     inkscape:cy="60.495963"
     inkscape:window-width="2560"
     inkscape:window-height="1351"
     inkscape:window-x="-9"
     inkscape:window-y="-9"
     inkscape:window-maximized="1"
     inkscape:current-layer="layer1" /><defs
     id="defs2" /><g
     inkscape:label="Layer 1"
     inkscape:groupmode="layer"
     id="layer1"
     style="display:inline"
     transform="translate(-74.167372,-99.104872)"><g
       id="g2665"
       inkscape:label="vector trace"
       style="display:inline"><path
         style="fill:none;stroke:black;stroke-width:0.264583px;stroke-linecap:round;stroke-linejoin:round;stroke-opacity:1"
         d="m 74.485962,110.70643 6.803628,-9.16326 c 0,0 -3.676398,3.24083 -3.893404,4.05071 -0.217006,0.80988 1.067726,2.95705 -0.10786,3.8994 -1.540773,1.23509 -3.105545,0.51451 -2.723709,-0.91052 0,0 0.416842,1.66999 1.884748,1.69523 1.467906,0.0252 3.070496,-4.36949 3.070496,-4.36949"
         id="path1956"
         sodipodi:nodetypes="ccssczc" /><path
         style="fill:none;stroke:black;stroke-width:0.264583px;stroke-linecap:round;stroke-linejoin:round;stroke-opacity:1"
         d="m 78.98712,107.19112 c 0,0 -1.691503,3.18593 -1.103969,3.52514 0.587534,0.33922 3.839041,-4.74877 3.839041,-5.47632 0,-0.72756 -1.91075,4.38776 -1.700906,4.44398 0.209841,0.0562 2.502022,-3.99717 2.929885,-3.56931 0.427863,0.42786 -1.92704,3.28419 -1.92704,3.28419 0,0 2.965056,-0.61749 2.016226,2.9236 -0.647374,2.41603 -4.18836,2.86903 -4.18836,0.70789"
         id="path2054"
         sodipodi:nodetypes="csssscsc" /><path
         style="fill:none;stroke:black;stroke-width:0.264583px;stroke-linecap:round;stroke-linejoin:round;stroke-opacity:1"
         d="m 82.223614,111.10954 c 0,0 2.585773,-3.09703 1.995863,-3.68694 -0.589909,-0.58991 -2.186421,1.99194 -0.940318,2.71137 1.2461,0.71944 4.558432,-3.93052 4.558432,-6.17217 0,-2.24166 -2.725544,5.67928 -0.91436,6.72497"
         id="path2056" /><path
         style="fill:none;stroke:black;stroke-width:0.264583px;stroke-linecap:round;stroke-linejoin:round;stroke-opacity:1"
         d="m 85.133838,105.50539 c 0,0 0.934024,1.87788 4.286678,0.96352"
         id="path2058" /><path
         style="fill:none;stroke:black;stroke-width:0.264583px;stroke-linecap:round;stroke-linejoin:round;stroke-opacity:1"
         d="m 91.249237,103.59802 c 0,0 -2.546443,3.78525 -1.110996,5.2207 1.435447,1.43545 3.785256,-4.43415 3.785256,-4.43415 l -2.408801,5.55498 c 0,0 2.418633,-6.34153 2.979047,-6.34153 0.560414,0 0.104172,5.4192 -0.570246,6.58733 0.529976,-0.91795 2.465403,-8.19085 3.716433,-7.85564 1.251026,0.33522 -0.902679,8.1647 -1.602589,8.86461"
         id="path2069" /><path
         style="fill:none;stroke:black;stroke-width:0.264583px;stroke-linecap:round;stroke-linejoin:round;stroke-opacity:1"
         d="m 98.155486,108.96808 c 0,0 -0.477702,1.2931 -0.130093,1.64071"
         id="path2071" /><path
         style="fill:none;stroke:black;stroke-width:0.264583px;stroke-linecap:round;stroke-linejoin:round;stroke-opacity:1"
         d="m 100.27789,103.32293 c 0,0 -2.704053,4.0688 -0.792544,5.17241 1.911504,1.10361 3.309224,-4.49109 3.309224,-4.49109 l -2.09955,5.96495 c 0,0 2.05618,-6.55664 2.65572,-6.39599 0.59955,0.16065 -0.73565,5.61866 -1.32091,6.63236 0.61655,-1.06789 2.07288,-6.59487 2.71134,-6.42379 0.63847,0.17107 -1.67304,7.1915 -1.3209,7.28585 0.35212,0.0944 1.8923,-4.00688 2.94771,-4.61623 1.05541,-0.60934 -0.50056,1.83537 -0.50056,1.83537 0,0 1.40434,-2.2803 0.57008,-1.86317 -0.83426,0.41713 -2.21078,2.89209 -1.36262,3.74025 0.84816,0.84817 4.653,-1.74845 6.16247,-7.38187 -0.37897,1.41434 -3.12133,6.15063 -2.24165,7.0303 0.87967,0.87968 3.14618,-2.80262 3.14618,-2.80262 0,0 -1.96916,2.19279 -1.10116,2.69393 0.868,0.50114 3.25231,-1.77677 3.38215,-2.26132 -0.13967,0.52125 -0.41294,1.84838 -0.41294,1.84838 0,0 1.09994,-2.20689 1.37646,-2.28099 0.27651,-0.0741 -1.2589,2.15932 -0.51126,2.35965 0.74764,0.20032 2.16573,-1.95689 2.49729,-1.86805 0.33155,0.0888 -0.74722,1.80905 -0.74722,1.80905 0,0 1.46372,-2.57118 1.96636,-2.28098 0.50265,0.2902 -0.60745,2.1551 -0.13764,2.28098 0.46981,0.12589 3.39758,-1.35434 2.85123,-2.30065 -0.54635,-0.9463 -2.72342,1.77957 -2.00569,2.49729 0.71772,0.71772 2.58829,0.55467 4.16869,-2.18267 -0.43568,1.62599 -1.69737,2.28278 -0.23596,3.12653 1.46141,0.84374 5.33746,-2.39601 5.07323,-3.38215 -0.26424,-0.98615 -8.28423,4.93644 -8.19975,9.10427 0.11798,5.82045 4.07141,10.28745 2.98887,11.56224 -1.08254,1.27479 -13.05667,0.51273 -13.05667,-11.88373 0,-14.59432 19.03081,-9.7056 16.20286,-3.33595 -1.80105,4.05668 -15.56379,0.79047 -15.02304,-1.22763"
         id="path2073"
         sodipodi:nodetypes="csccscscscsscscsccssccsssscssszssc" /><path
         style="fill:none;stroke:black;stroke-width:0.264583px;stroke-linecap:round;stroke-linejoin:round;stroke-opacity:1"
         d="m 110.46284,104.66342 c 0,0 2.71825,-4.32991 2.96853,-5.205885"
         id="path2075" /><path
         style="fill:none;stroke:black;stroke-width:0.264583px;stroke-linecap:round;stroke-linejoin:round;stroke-opacity:1"
         d="m 113.36185,105.00536 c 0,0 -0.36151,0.52836 -0.20857,0.9872"
         id="path2077" /><path
         style="fill:none;stroke:black;stroke-width:0.264583px;stroke-linecap:round;stroke-linejoin:round;stroke-opacity:1"
         d="m 108.90142,108.63019 -0.97616,1.38072"
         id="path2079" /><path
         style="fill:none;stroke:black;stroke-width:0.264583px;stroke-linecap:round;stroke-linejoin:round;stroke-opacity:1"
         d="m 108.84583,109.50691 -0.43249,1.01846"
         id="path2081" /></g></g></svg>
