<?xml version="1.0" encoding="UTF-8" standalone="no"?>
<svg
   version="1.1"
   id="svg1"
   sodipodi:docname="2022svg_new.svg"
   inkscape:version="1.3-dev (4d49aad, 2022-08-16)"
   xmlns:inkscape="http://www.inkscape.org/namespaces/inkscape"
   xmlns:sodipodi="http://sodipodi.sourceforge.net/DTD/sodipodi-0.dtd"
   xmlns="http://www.w3.org/2000/svg"
   xmlns:svg="http://www.w3.org/2000/svg">
  <defs
     id="defs1" />
  <sodipodi:namedview
     id="namedview1"
     pagecolor="#ffffff"
     bordercolor="#999999"
     borderopacity="1"
     inkscape:showpageshadow="0"
     inkscape:pageopacity="0"
     inkscape:pagecheckerboard="0"
     inkscape:deskcolor="#d1d1d1"
     showgrid="false"
     inkscape:zoom="1.5733333"
     inkscape:cx="149.6822"
     inkscape:cy="24.152542"
     inkscape:window-width="2560"
     inkscape:window-height="1400"
     inkscape:window-x="0"
     inkscape:window-y="40"
     inkscape:window-maximized="1"
     inkscape:current-layer="cliptext" />
  <g
     id="cliptext">
    <g
       aria-label="2022"
       id="text1"
       style="font-weight:bold;font-size:500px;font-family:Literata;dominant-baseline:middle;text-anchor:middle"
       transform="matrix(0.226125,0,0,0.226125,103.32181,64.498953)">
      <path
         d="m -377.32216,167.2113 -7,-61 q 39.5,-34.999996 66,-63.499996 26.5,-28.5 42.5,-51.0000003 16.5,-22.9999997 24.5,-41.9999997 8.5,-19 11.5,-35.5 3,-16.500004 3,-32.000004 0,-30.5 -11,-51 -11,-20.5 -40.5,-20.5 -14,0 -27.5,5 -13,4.5 -24.5,12.5 18,19 27.5,31 9.5,12 13,20 3.5,7.5 3.5,15 0,13.000004 -10,25.500004 -10,12 -32.5,12 -21.5,0 -34,-13 -12.5,-13 -12.5,-34.000004 0,-24.5 16.5,-44.5 16.5,-20.5 46,-32.5 30,-12.5 70,-12.5 43.5,0 72,13.5 28.5,13 42.5,34 14.5,21 14.5,44 0,19.000004 -5,36.000004 -4.5,16.5 -18.5,33.5 -13.5,17 -39.5,37.4999997 -26,20.0000003 -68,45.5000003 -41.5,25.5 -103.5,59 h 157 q 16.5,0 26.5,-2 10,-2 16.5,-7.5 7,-5.5 13,-16.5 6,-11.5 14,-30 h 8 l -12,124.999996 z"
         style="font-weight:normal;-inkscape-font-specification:'Literata, @opsz=72.0,wght=900';font-variation-settings:'opsz' 72, 'wght' 900"
         id="path1" />
      <path
         d="m 65.176525,172.7113 q -49.5,0 -83,-24 -33,-24 -50,-65.999996 -16.5,-42 -16.5,-95 0,-54 14,-91.000004 14,-37 36,-59 22.5,-22.5 48.5,-32.5 26.5,-10 51,-10 40.000005,0 73.000005,19.5 33.5,19.5 53.5,59.5 20,40.000004 20,102.500004 0,64 -20.5,108 -20.5,43.499996 -54,65.999996 -33,22 -72.000005,22 z m 2,-9 q 9,0 14,-6 5.5,-6.5 8.5,-24.5 3,-18.5 4,-53.999996 1,-36 1,-95 0,-59.5 -2.5,-95.000004 -2,-36 -6.5,-54 -4,-18.5 -10,-24.5 -5.5,-6.5 -12.5,-6.5 -7.5,0 -13.5,5.5 -5.5,5.5 -9.5,23 -3.5,17.5 -5.5,52.5 -2,35.000004 -2,94.000004 0,57.5 2.5,94 2.5,36.499996 7,55.999996 5,19.5 11,27 6.5,7.5 14,7.5 z"
         style="font-weight:normal;-inkscape-font-specification:'Literata, @opsz=72.0,wght=900';font-variation-settings:'opsz' 72, 'wght' 900"
         id="path2" />
      <path
         d="m 242.17613,167.2113 -7,-61 q 39.5,-34.999996 66,-63.499996 26.5,-28.5 42.5,-51.0000003 16.5,-22.9999997 24.5,-41.9999997 8.5,-19 11.5,-35.5 3,-16.500004 3,-32.000004 0,-30.5 -11,-51 -11,-20.5 -40.5,-20.5 -14,0 -27.5,5 -13,4.5 -24.5,12.5 18,19 27.5,31 9.5,12 13,20 3.5,7.5 3.5,15 0,13.000004 -10,25.500004 -10,12 -32.5,12 -21.5,0 -34,-13 -12.5,-13 -12.5,-34.000004 0,-24.5 16.5,-44.5 16.5,-20.5 46,-32.5 30,-12.5 70,-12.5 43.5,0 72,13.5 28.5,13 42.5,34 14.5,21 14.5,44 0,19.000004 -5,36.000004 -4.5,16.5 -18.5,33.5 -13.5,17 -39.5,37.4999997 -26,20.0000003 -68,45.5000003 -41.5,25.5 -103.5,59 h 157 q 16.5,0 26.5,-2 10,-2 16.5,-7.5 7,-5.5 13,-16.5 6,-11.5 14,-30 h 8 l -12,124.999996 z"
         style="font-weight:normal;-inkscape-font-specification:'Literata, @opsz=72.0,wght=900';font-variation-settings:'opsz' 72, 'wght' 900"
         id="path3" />
      <path
         d="m 544.17515,167.2113 -7,-61 q 39.5,-34.999996 66,-63.499996 26.5,-28.5 42.5,-51.0000003 16.5,-22.9999997 24.5,-41.9999997 8.5,-19 11.5,-35.5 3,-16.500004 3,-32.000004 0,-30.5 -11,-51 -11,-20.5 -40.5,-20.5 -14,0 -27.5,5 -13,4.5 -24.5,12.5 18,19 27.5,31 9.5,12 13,20 3.5,7.5 3.5,15 0,13.000004 -10,25.500004 -10,12 -32.5,12 -21.5,0 -34,-13 -12.5,-13 -12.5,-34.000004 0,-24.5 16.5,-44.5 16.5,-20.5 46,-32.5 30,-12.5 70,-12.5 43.5,0 72,13.5 28.5,13 42.5,34 14.5,21 14.5,44 0,19.000004 -5,36.000004 -4.5,16.5 -18.5,33.5 -13.5,17 -39.5,37.4999997 -26,20.0000003 -68,45.5000003 -41.5,25.5 -103.5,59 h 157 q 16.5,0 26.5,-2 10,-2 16.5,-7.5 7,-5.5 13,-16.5 6,-11.5 14,-30 h 8 l -12,124.999996 z"
         style="font-weight:normal;-inkscape-font-specification:'Literata, @opsz=72.0,wght=900';font-variation-settings:'opsz' 72, 'wght' 900"
         id="path4" />
    </g>
  </g>
</svg>
