<svg width="3466" height="619" viewBox="0 0 3466 619" fill="none" xmlns="http://www.w3.org/2000/svg">
<path d="M884.755 411.648C818.658 411.648 778.174 366.083 778.174 296.83C778.174 227.578 819.602 181.383 884.755 181.383C930.629 181.383 969.186 201.293 980.595 259.804C980.595 261.063 979.651 262.322 978.392 262.322H945.501C944.242 262.322 942.668 261.378 942.354 259.804C936.019 228.483 914.853 212.665 884.165 212.665C841.792 212.665 818.383 244.93 818.383 296.791C818.383 348.652 842.736 380.288 883.85 380.288C917.685 380.288 938.262 361.951 943.298 328.112C943.613 326.538 944.872 325.594 946.131 325.594H979.966C981.225 325.594 982.169 326.853 982.169 328.112C972.058 386.937 936.295 411.609 884.755 411.609V411.648Z" fill="black"/>
<path d="M1073.25 269.954C1054.6 269.954 1036.9 284.828 1031.51 312.647L1032.45 404.682C1032.45 405.941 1031.19 407.201 1029.93 407.201H997.041C995.782 407.201 994.523 405.941 994.523 404.682L995.782 295.57L994.523 188.346C994.523 187.087 995.782 185.828 997.041 185.828H1029.93C1031.19 185.828 1032.45 187.087 1032.45 188.346L1031.82 266.138C1042.56 250.634 1059.64 240.522 1083.05 240.522C1118.46 240.522 1140.29 262.045 1139.66 309.46V343.299L1140.29 404.643C1140.29 405.902 1139.03 407.161 1137.77 407.161H1103.94C1102.68 407.161 1101.42 405.902 1101.42 404.643L1102.36 343.929L1102.05 305.328C1102.05 280.657 1089.42 269.915 1073.25 269.915V269.954Z" fill="black"/>
<path d="M1159.92 227.578C1158.66 227.578 1157.41 226.319 1157.41 225.059V192.479C1157.41 191.22 1158.66 189.961 1159.92 189.961H1193.44C1194.7 189.961 1195.96 191.22 1195.96 192.479V225.059C1195.96 226.319 1194.7 227.578 1193.44 227.578H1159.92ZM1159.92 407.241C1158.66 407.241 1157.41 405.982 1157.41 404.723L1158.03 324.689L1157.41 246.898C1157.41 245.639 1158.66 244.379 1159.92 244.379H1193.76C1195.02 244.379 1196.28 245.639 1196.28 246.898L1195.33 324.689L1196.28 404.723C1196.28 405.982 1195.02 407.241 1193.76 407.241H1159.92Z" fill="black"/>
<path d="M1290.23 411.019C1239.63 411.019 1210.52 377.809 1210.52 326.263C1210.52 274.717 1239.63 240.562 1290.86 240.562C1331.97 240.562 1357.9 263.975 1361.4 299.073C1361.72 300.332 1360.46 301.591 1359.2 301.591H1329.14C1327.88 301.591 1326.62 300.647 1326.31 299.073C1322.53 278.219 1308.92 267.752 1290.9 267.752C1262.77 267.752 1249.47 287.977 1249.47 325.948C1249.47 363.919 1263.08 383.829 1290.9 384.144C1311.47 384.459 1325.68 371.159 1327.57 347.786C1327.88 346.212 1329.14 345.268 1330.4 345.268H1361.4C1362.66 345.268 1363.92 346.527 1363.6 347.786C1360.46 384.459 1332.6 411.058 1290.23 411.058V411.019Z" fill="black"/>
<path d="M1491.98 407.244C1490.72 407.244 1489.46 405.985 1489.46 404.726L1490.09 384.816C1479.04 400.948 1461.96 410.431 1440.13 410.431C1394.92 410.431 1371.2 373.759 1371.2 326.305C1371.2 278.851 1397.12 241.234 1440.76 241.234C1462.28 241.234 1479.04 249.458 1490.09 265.276L1489.15 246.94C1489.15 245.681 1490.41 244.422 1491.67 244.422H1525.19C1526.45 244.422 1527.71 245.681 1527.71 246.94L1526.76 325.4L1527.71 404.805C1527.71 406.064 1526.45 407.323 1525.19 407.323H1491.98V407.244ZM1450.24 383.517C1475.85 383.517 1490.72 364.551 1491.04 326.895C1491.35 289.239 1476.79 268.385 1451.18 268.07C1423.37 267.755 1409.75 288.924 1409.75 323.747C1409.75 361.718 1423.68 383.517 1450.24 383.517Z" fill="black"/>
<path d="M1620.08 469.843C1579.6 470.472 1548.91 453.71 1546.08 417.982C1546.08 416.723 1547.34 415.464 1548.6 415.464H1581.17C1582.43 415.464 1583.69 416.408 1584 417.982C1586.21 434.744 1599.82 443.283 1620.99 443.283C1644.71 443.283 1660.84 429.983 1660.84 399.331V380.68C1650.1 396.813 1633.66 406.295 1612.14 406.295C1565 406.295 1540.65 371.197 1540.65 325.002C1540.65 278.808 1566.58 241.82 1610.56 241.82C1632.08 241.82 1648.53 250.044 1659.27 265.232L1658.64 246.896C1658.64 245.637 1659.9 244.378 1661.16 244.378H1694.36C1695.62 244.378 1696.88 245.637 1696.88 246.896L1695.94 319.966L1696.25 400C1696.57 443.637 1670.01 469.921 1620.04 469.921L1620.08 469.843ZM1620.4 380.011C1645.38 380.011 1659.94 362.304 1660.25 326.222C1660.57 289.235 1646.32 268.656 1620.4 268.341C1593.21 267.711 1579.28 288.566 1579.28 323.389C1579.28 360.376 1593.53 380.326 1620.4 380.011Z" fill="black"/>
<path d="M1790.52 411.019C1738.98 411.019 1709.86 377.809 1709.86 326.263C1709.86 274.717 1738.98 240.562 1790.52 240.562C1842.06 240.562 1870.54 273.772 1870.54 325.318C1870.54 376.864 1841.74 411.019 1790.52 411.019ZM1790.52 384.144C1818.02 384.144 1831.32 365.178 1831.32 326.263C1831.32 287.347 1817.7 267.437 1790.2 267.437C1762.07 267.752 1748.77 287.977 1748.77 326.577C1748.77 365.178 1762.7 384.144 1790.52 384.144Z" fill="black"/>
<path d="M1965.75 326.891H1924.01L1924.64 404.682C1924.64 405.941 1923.38 407.201 1922.12 407.201H1887.66C1886.4 407.201 1885.14 405.941 1885.14 404.682L1886.08 295.255L1885.14 188.346C1885.14 187.087 1886.4 185.828 1887.66 185.828H1965.75C2016.66 185.828 2047.04 209.24 2047.04 255.396C2047.04 301.551 2015.72 326.891 1965.75 326.891ZM1923.7 296.2V297.144H1968.27C1992 297.144 2009.38 285.458 2009.38 256.025C2009.38 228.521 1994.2 215.536 1967.01 215.536H1924.32L1923.7 296.2Z" fill="#ED0000"/>
<path d="M2112.78 411.022C2078.63 411.022 2057.11 388.24 2057.11 347.121V313.596L2056.48 246.862C2056.48 245.603 2057.74 244.344 2059 244.344H2092.52C2093.78 244.344 2095.04 245.603 2095.04 246.862L2094.41 313.596V346.177C2094.41 369.274 2106.72 381.275 2123.84 381.275C2143.11 381.275 2160.82 365.142 2164 331.303V313.596L2163.69 246.862C2163.69 245.603 2164.95 244.344 2166.21 244.344H2200.04C2201.3 244.344 2202.56 245.603 2202.56 246.862L2201.93 320.876L2202.25 404.687C2202.25 405.946 2200.99 407.206 2199.73 407.206H2167.78C2166.52 407.206 2165.26 405.946 2165.26 404.687L2166.21 383.479C2155.47 398.667 2137.09 410.983 2112.74 410.983L2112.78 411.022Z" fill="#ED0000"/>
<path d="M2306.98 410.384C2285.46 410.384 2268.7 402.16 2257.64 386.343L2258.59 404.679C2258.59 405.938 2257.33 407.197 2256.07 407.197H2222.55C2221.29 407.197 2220.03 405.938 2220.03 404.679L2220.97 291.75L2220.03 188.303C2220.03 187.044 2221.29 185.785 2222.55 185.785H2256.07C2257.33 185.785 2258.59 187.044 2258.59 188.303L2258.27 265.465C2269.64 249.962 2286.09 241.109 2307.61 241.109C2352.81 241.109 2376.54 277.781 2376.54 325.235C2376.54 372.689 2350.61 410.306 2306.98 410.306V410.384ZM2296.55 382.88C2324.37 383.509 2337.67 361.671 2337.67 327.202C2337.67 290.215 2324.05 268.377 2297.5 268.692C2271.89 268.692 2257.01 287.343 2256.7 324.054C2256.38 361.711 2270.94 382.565 2296.55 382.88Z" fill="#ED0000"/>
<path d="M2393.65 407.244C2392.39 407.244 2391.13 405.984 2391.13 404.725L2392.39 295.928L2391.13 188.389C2391.13 187.13 2392.39 185.871 2393.65 185.871H2426.54C2427.8 185.871 2429.06 187.13 2429.06 188.389L2428.12 295.928L2429.06 404.725C2429.06 405.984 2427.8 407.244 2426.54 407.244H2393.65Z" fill="#ED0000"/>
<path d="M2451.53 227.578C2450.27 227.578 2449.01 226.319 2449.01 225.059V192.479C2449.01 191.22 2450.27 189.961 2451.53 189.961H2485.05C2486.31 189.961 2487.57 191.22 2487.57 192.479V225.059C2487.57 226.319 2486.31 227.578 2485.05 227.578H2451.53ZM2451.53 407.241C2450.27 407.241 2449.01 405.982 2449.01 404.723L2449.64 324.689L2449.01 246.898C2449.01 245.639 2450.27 244.379 2451.53 244.379H2485.36C2486.62 244.379 2487.88 245.639 2487.88 246.898L2486.94 324.689L2487.88 404.723C2487.88 405.982 2486.62 407.241 2485.36 407.241H2451.53Z" fill="#ED0000"/>
<path d="M2581.79 411.019C2531.2 411.019 2502.08 377.809 2502.08 326.263C2502.08 274.717 2531.2 240.562 2582.42 240.562C2623.54 240.562 2649.46 263.975 2652.96 299.073C2653.28 300.332 2652.02 301.591 2650.76 301.591H2620.7C2619.44 301.591 2618.19 300.647 2617.87 299.073C2614.09 278.219 2600.48 267.752 2582.46 267.752C2554.33 267.752 2541.03 287.977 2541.03 325.948C2541.03 363.919 2554.65 383.829 2582.46 384.144C2603 384.459 2617.24 371.159 2619.13 347.786C2619.44 346.212 2620.7 345.268 2621.96 345.268H2652.96C2654.22 345.268 2655.48 346.527 2655.17 347.786C2652.02 384.459 2624.17 411.058 2581.79 411.058V411.019Z" fill="#ED0000"/>
<path d="M2703.56 311.073L2703.87 404.682C2703.87 405.941 2702.62 407.201 2701.36 407.201H2670.98C2669.72 407.201 2668.47 405.941 2668.47 404.682L2669.41 297.459L2668.47 188.346C2668.47 187.087 2669.72 185.828 2670.98 185.828H2717.8C2719.38 185.828 2720.63 186.772 2721.26 188.032L2786.1 358.527L2848.42 188.346C2849.05 186.772 2850.31 185.828 2851.88 185.828H2895.52C2896.78 185.828 2898.03 187.087 2898.03 188.346L2897.09 297.459L2898.35 404.682C2898.35 405.941 2897.09 407.201 2895.83 407.201H2861.68C2860.42 407.201 2859.16 405.941 2859.16 404.682L2859.48 311.073L2860.42 257.953L2860.74 239.932L2799.71 404.722C2799.09 406.296 2797.83 407.24 2796.25 407.24H2770.64C2769.07 407.24 2767.81 406.296 2767.18 405.036L2702.03 234.856L2702.65 258.583L2703.6 311.073H2703.56Z" fill="black"/>
<path d="M3065.99 351.564C3067.25 351.564 3068.51 352.823 3068.19 354.082C3063.75 385.403 3036.88 411.019 2993.24 411.019C2940.76 411.019 2912.59 375.92 2912.59 326.263C2912.59 276.605 2942.65 240.562 2991.99 240.562C3041.32 240.562 3071.07 274.717 3072.01 330.394C3072.01 331.653 3070.75 332.913 3069.49 332.913H2950.6C2952.17 367.696 2966.41 384.144 2993.91 384.144C3013.82 384.144 3026.81 374.346 3031.25 354.082C3031.57 352.508 3033.14 351.564 3034.4 351.564H3066.03H3065.99ZM2992.3 267.122C2969.52 267.122 2955.95 281.052 2951.82 307.297H3030.9C3029.32 286.088 3017.28 267.122 2992.3 267.122Z" fill="black"/>
<path d="M3201.06 407.239C3199.8 407.239 3198.54 405.98 3198.54 404.721L3199.48 384.811C3188.43 400.944 3171.35 410.427 3149.52 410.427C3104.31 410.427 3080.59 373.754 3080.59 326.3C3080.59 278.847 3106.51 241.23 3150.15 241.23C3171.35 241.23 3187.8 249.453 3198.85 264.642L3198.54 188.425C3198.54 187.165 3199.8 185.906 3201.06 185.906H3234.58C3235.84 185.906 3237.1 187.165 3237.1 188.425L3236.47 291.202L3237.1 404.76C3237.1 406.02 3235.84 407.279 3234.58 407.279H3201.06V407.239ZM3159.63 383.827C3185.24 383.827 3200.11 364.861 3200.43 327.205C3200.74 289.234 3186.18 268.065 3160.57 267.75C3132.76 267.121 3119.14 288.959 3119.14 324.057C3119.14 361.714 3133.07 383.827 3159.63 383.827Z" fill="black"/>
<path d="M3257.99 227.578C3256.73 227.578 3255.47 226.319 3255.47 225.059V192.479C3255.47 191.22 3256.73 189.961 3257.99 189.961H3291.51C3292.77 189.961 3294.03 191.22 3294.03 192.479V225.059C3294.03 226.319 3292.77 227.578 3291.51 227.578H3257.99ZM3257.99 407.241C3256.73 407.241 3255.47 405.982 3255.47 404.723L3256.1 324.689L3255.47 246.898C3255.47 245.639 3256.73 244.379 3257.99 244.379H3291.82C3293.08 244.379 3294.34 245.639 3294.34 246.898L3293.4 324.689L3294.34 404.723C3294.34 405.982 3293.08 407.241 3291.82 407.241H3257.99Z" fill="black"/>
<path d="M3429.37 407.244C3428.11 407.244 3426.85 405.985 3426.85 404.726L3427.48 384.816C3416.42 400.948 3399.35 410.431 3377.51 410.431C3332.27 410.431 3308.58 373.759 3308.58 326.305C3308.58 278.851 3334.51 241.234 3378.18 241.234C3399.7 241.234 3416.46 249.458 3427.52 265.276L3426.57 246.94C3426.57 245.681 3427.83 244.422 3429.09 244.422H3462.61C3463.87 244.422 3465.13 245.681 3465.13 246.94L3464.19 325.4L3465.13 404.805C3465.13 406.064 3463.87 407.323 3462.61 407.323H3429.41L3429.37 407.244ZM3387.62 383.517C3413.24 383.517 3428.11 364.551 3428.42 326.895C3428.74 289.239 3414.18 268.385 3388.57 268.07C3360.75 267.755 3347.14 288.924 3347.14 323.747C3347.14 361.718 3361.07 383.517 3387.62 383.517Z" fill="black"/>
<path d="M564.263 343.851C550.218 382.963 512.763 411.019 468.855 411.019C412.948 411.019 367.507 365.532 367.507 309.658C367.507 253.784 412.988 208.258 468.855 208.258C512.763 208.258 550.218 236.313 564.263 275.425H616.236C608.603 205.818 577.876 141.327 527.634 91.0791C469.249 32.6865 391.624 0.539062 309.082 0.539062C226.539 0.539062 148.915 32.6865 90.5292 91.0791C32.1436 149.472 0 227.106 0 309.658C0 392.21 32.1436 469.844 90.5292 528.237C148.915 586.629 226.5 618.777 309.082 618.777C391.664 618.777 469.249 586.629 527.634 528.237C577.876 477.989 608.603 413.498 616.236 343.891H564.263V343.851ZM309.121 570.811C239.365 570.811 173.78 543.661 124.483 494.319C75.1459 444.976 47.9992 379.422 47.9992 309.658C47.9992 239.894 75.1459 174.3 124.483 124.997C173.819 75.6546 239.365 48.5044 309.121 48.5044C327.062 48.5044 344.727 50.3144 361.88 53.8164C221.031 54.0525 106.542 168.752 106.542 309.658C106.542 450.563 221.07 565.263 361.92 565.499C344.727 569.001 327.062 570.811 309.121 570.811ZM362.353 517.534C247.745 517.534 154.502 424.279 154.502 309.658C154.502 195.037 247.745 101.742 362.353 101.742C378.562 101.742 394.379 103.631 409.526 107.133C300.623 110.36 213.045 199.955 213.045 309.619C213.045 419.282 300.623 508.877 409.526 512.104C394.379 515.645 378.562 517.495 362.353 517.495V517.534ZM415.624 464.257C330.367 464.257 261.004 394.886 261.004 309.619C261.004 224.351 330.367 154.98 415.624 154.98C430.102 154.98 444.108 156.987 457.367 160.725C380.372 166.627 319.547 231.158 319.547 309.619C319.547 388.079 380.372 452.649 457.367 458.512C444.069 462.25 430.063 464.257 415.584 464.257H415.624Z" fill="black"/>
</svg>
