<svg xmlns="http://www.w3.org/2000/svg" viewBox="0 0 579.95 154.63" style="">
  <defs>
    <style>
      .cls-1{fill:#fff;}
      .cls-2,.cls-3{fill:none;stroke:#53575a;stroke-miterlimit:10;}.cls-2{stroke-width:2.65px;}
      .cls-3{stroke-width:1.77px;}
    </style>
  </defs>
  <g id="engineering">
    <g id="engineering_text" data-name="Engineering Text">
      <path class="cls-1 nnwrRYiZ_0" d="M62.53,142.33V147H28.72v9.57H53.87v4.68H28.72v9.51H62.53v4.68h-40V142.33Z" transform="translate(-15.62 -31.13)"></path><path class="cls-1 nnwrRYiZ_1" d="M116.76,170.19V142.38H123v33.06h-8.43l-31-27.87v27.87H77.33V142.38h8.43Z" transform="translate(-15.62 -31.13)"></path><path class="cls-1 nnwrRYiZ_2" d="M182.16,149.22v.8h-6.3v-.8a1.94,1.94,0,0,0-.88-1.57,3.42,3.42,0,0,0-2.09-.65H146.45a3.42,3.42,0,0,0-2.09.65,1.93,1.93,0,0,0-.87,1.57v19.32a1.93,1.93,0,0,0,.87,1.57,3.42,3.42,0,0,0,2.09.65h26.44a3.42,3.42,0,0,0,2.09-.65,1.94,1.94,0,0,0,.88-1.57v-5.47H162.25V158.4h19.91v10.14a5.93,5.93,0,0,1-2.7,4.87,10.6,10.6,0,0,1-6.57,2H146.45a10.53,10.53,0,0,1-6.5-2,5.92,5.92,0,0,1-2.69-4.87V149.22a5.93,5.93,0,0,1,2.69-4.87,10.53,10.53,0,0,1,6.5-2h26.44a10.59,10.59,0,0,1,6.57,2A6,6,0,0,1,182.16,149.22Z" transform="translate(-15.62 -31.13)"></path><path class="cls-1 nnwrRYiZ_3" d="M197.79,175.44V142.38H204v33.06Z" transform="translate(-15.62 -31.13)"></path><path class="cls-1 nnwrRYiZ_4" d="M261.37,170.19V142.38h6.23v33.06h-8.44l-31-27.87v27.87h-6.23V142.38h8.44Z" transform="translate(-15.62 -31.13)"></path><path class="cls-1 nnwrRYiZ_5" d="M323.65,142.33V147H289.84v9.57H315v4.68H289.84v9.51h33.81v4.68h-40V142.33Z" transform="translate(-15.62 -31.13)"></path><path class="cls-1 nnwrRYiZ_6" d="M381.53,142.33V147H347.72v9.57h25.15v4.68H347.72v9.51h33.81v4.68h-40V142.33Z" transform="translate(-15.62 -31.13)"></path><path class="cls-1 nnwrRYiZ_7" d="M442.67,149.28v7.41a6,6,0,0,1-2.66,4.87,10.46,10.46,0,0,1-6.53,2h-8.13l17.55,11.86h-8L417.6,163.58H404.07v11.86h-6.23V142.38h35.64a10.46,10.46,0,0,1,6.53,2A5.94,5.94,0,0,1,442.67,149.28ZM407,158.91h26.44a3.36,3.36,0,0,0,2.09-.66,1.9,1.9,0,0,0,.87-1.56v-7.41a1.93,1.93,0,0,0-.87-1.57,3.42,3.42,0,0,0-2.09-.65H407a3.42,3.42,0,0,0-2.09.65,1.91,1.91,0,0,0-.88,1.57v7.41a1.88,1.88,0,0,0,.88,1.56A3.36,3.36,0,0,0,407,158.91Z" transform="translate(-15.62 -31.13)"></path><path class="cls-1 nnwrRYiZ_8" d="M458.91,175.44V142.38h6.23v33.06Z" transform="translate(-15.62 -31.13)"></path><path class="cls-1 nnwrRYiZ_9" d="M522.49,170.19V142.38h6.23v33.06h-8.44l-31-27.87v27.87h-6.23V142.38h8.44Z" transform="translate(-15.62 -31.13)"></path><path class="cls-1 nnwrRYiZ_10" d="M587.89,149.22v.8h-6.31v-.8a1.93,1.93,0,0,0-.87-1.57,3.44,3.44,0,0,0-2.09-.65H552.17a3.44,3.44,0,0,0-2.09.65,1.93,1.93,0,0,0-.87,1.57v19.32a1.93,1.93,0,0,0,.87,1.57,3.44,3.44,0,0,0,2.09.65h26.45a3.44,3.44,0,0,0,2.09-.65,1.93,1.93,0,0,0,.87-1.57v-5.47H568V158.4h19.91v10.14a5.93,5.93,0,0,1-2.7,4.87,10.64,10.64,0,0,1-6.57,2H552.17a10.5,10.5,0,0,1-6.49-2,5.93,5.93,0,0,1-2.7-4.87V149.22a6,6,0,0,1,2.7-4.87,10.5,10.5,0,0,1,6.49-2h26.45a10.63,10.63,0,0,1,6.57,2A6,6,0,0,1,587.89,149.22Z" transform="translate(-15.62 -31.13)"></path></g>
      <path id="Bottom_Line" data-name="Bottom Line" class="cls-2 nnwrRYiZ_11" d="M0.66,153.31L579.29,153.31"></path><path id="Top_Line" data-name="Top Line" class="cls-2 nnwrRYiZ_12" d="M0.66,101.71L579.29,101.71"></path>
    </g>
    <g id="KDM"><g id="kdm_fill"><path id="M" class="cls-1 nnwrRYiZ_13" d="M594.91,118.79H536.47V44.22H517v74.57H458.54V44.22H439.06v43.5l-23.82,31.07h-73.6l68.19-87H594.91Z" transform="translate(-15.62 -31.13)"></path><path id="D" class="cls-1 nnwrRYiZ_14" d="M337.52,93.94q0,11.32-10.6,18.09t-28.36,6.76H191.41v-87H298.56q17.74,0,28.36,6.77t10.6,18.09Zm-64.28,12.43V44.22H253.75v62.15Z" transform="translate(-15.62 -31.13)"></path><path id="K" class="cls-1 nnwrRYiZ_15" d="M74.73,118.79H16.28v-87H74.73Zm98.28,0H104.82L94.21,105.12V44.22L104,31.79H173L138.59,75.43Z" transform="translate(-15.62 -31.13)"></path></g>
    <g id="kdm_lines"><path id="M-2" data-name="M" class="cls-3 nnwrRYiZ_16" d="M594.91,118.79H536.47V44.22H517v74.57H458.54V44.22H439.06v43.5l-23.82,31.07h-73.6l68.19-87H594.91Z" transform="translate(-15.62 -31.13)"></path><path id="D-2" data-name="D" class="cls-3 nnwrRYiZ_17" d="M337.52,93.94q0,11.32-10.6,18.09t-28.36,6.76H191.41v-87H298.56q17.74,0,28.36,6.77t10.6,18.09Zm-64.28,12.43V44.22H253.75v62.15Z" transform="translate(-15.62 -31.13)"></path><path id="K-2" data-name="K" class="cls-3 nnwrRYiZ_18" d="M74.73,118.79H16.28v-87H74.73Zm98.28,0H104.82L94.21,105.12V44.22L104,31.79H173L138.59,75.43Z" transform="translate(-15.62 -31.13)"></path></g></g>
      <style data-made-with="vivus-instant">
        #kdm_fill,#engineering_text {opacity: 0; animation:fill_fade 1000ms ease-in-out 3000ms forwards;}
        @keyframes fill_fade{0%{opacity:0;}100%{opacity:1;}}
        .nnwrRYiZ_11, .nnwrRYiZ_12{stroke-dasharray:579 581;stroke-dashoffset:580;animation:nnwrRYiZ_draw 1500ms ease-in-out 2000ms forwards;}
        .nnwrRYiZ_13{stroke-dasharray:919 921;stroke-dashoffset:920;animation:nnwrRYiZ_draw 3500ms ease-in-out 361ms forwards;}.nnwrRYiZ_14{stroke-dasharray:605 607;stroke-dashoffset:606;animation:nnwrRYiZ_draw 3500ms ease-in-out 388ms forwards;}.nnwrRYiZ_15{stroke-dasharray:634 636;stroke-dashoffset:635;animation:nnwrRYiZ_draw 3500ms ease-in-out 416ms forwards;}.nnwrRYiZ_16{stroke-dasharray:919 921;stroke-dashoffset:920;animation:nnwrRYiZ_draw 3500ms ease-in-out 444ms forwards;}.nnwrRYiZ_17{stroke-dasharray:605 607;stroke-dashoffset:606;animation:nnwrRYiZ_draw 3500ms ease-in-out 472ms forwards;}.nnwrRYiZ_18{stroke-dasharray:634 636;stroke-dashoffset:635;animation:nnwrRYiZ_draw 3500ms ease-in-out 500ms forwards;}@keyframes nnwrRYiZ_draw{100%{stroke-dashoffset:0;}}@keyframes nnwrRYiZ_fade{0%{stroke-opacity:1;}95.1219512195122%{stroke-opacity:1;}100%{stroke-opacity:0;}}
</style>
</svg>
