<?xml version="1.0" encoding="UTF-8"?><svg id="Layer_2" xmlns="http://www.w3.org/2000/svg" viewBox="0 0 44.62 43.34"><defs><style>.cls-1{fill:#6d2077;}.cls-1,.cls-2{fill-rule:evenodd;}.cls-2{fill:#fff;}.cls-3{fill:none;stroke:#6d2077;stroke-miterlimit:8;stroke-width:.75px;}</style></defs><g id="Layer_1-2"><g><path class="cls-1" d="M4.8,22.32C4.8,12.64,12.64,4.8,22.32,4.8s17.52,7.84,17.52,17.52-7.84,17.52-17.52,17.52S4.8,32,4.8,22.32"/><path class="cls-1" d="M0,22.32C0,9.99,9.99,0,22.32,0s21.82,9.45,22.3,21.42l-3.44,.14c-.42-10.42-9.2-18.52-19.62-18.1C11.44,3.87,3.44,12.19,3.44,22.32H0Z"/><circle class="cls-3" cx="22.32" cy="22.32" r="20.64" transform="translate(-6.84 34.4) rotate(-67.5)"/><path class="cls-2" d="M29.66,34.68l2.91-1.48c.91-.37,.55-2.21,.36-3.14l-1.82-7.38c0-.37-.73-.92-1.09-.92l-4.18-1.85s-.55,3.51-3.28,4.98c-3.09-1.48-3.46-4.98-3.46-4.98l-4.37,1.85c-.18,0-.91,.55-.91,.92l-2,7.57c-.18,.74-.55,2.58,.55,2.95l2.91,1.48v-.37l-.91-7.38c0-.55,.55-1.11,1.09-1.11h14.01c.55,0,.91,.55,.91,1.11l-.73,7.38v.37Z"/><path class="cls-2" d="M17.59,13.71c0-.18,0-.36,.18-.55h.36c0,.55,.36,1.1,.55,1.46,0,0-.18-1.1,0-2.01,.55-.55,1.64-.36,3.82-.91,1.64-.55,2.18-1.28,2.36-2.01,.55,.73,.91,1.46,1.09,2.01,.18,1.1,.18,2.92,.18,2.92,.18-.36,.36-.91,.55-1.46h.36c0,.18,.18,.36,.18,.55,.18,.73-.18,1.64-.55,2.01h-.73v.18c-.55,2.01-2,3.47-3.64,3.47s-2.91-1.28-3.46-3.47l-.18-.18s-.36,.18-.55,0c-.36-.36-.73-1.28-.55-2.01m.18,2.37s0,1.83-.73,2.19c0,0,.91,1.1,2.36,0,.73,1.1,1.82,1.64,2.91,1.64,1.27,0,2.37-.73,3.09-1.64,1.27,1.1,2.36,0,2.36,0-.73-.36-.73-2.19-.73-2.19,.55-.36,.91-1.46,.73-2.56,0-.36-.18-.73-.54-.91h-.18v-1.1c0-.91-.18-1.83-.18-1.83v.18c-.55-2.01-2.36-2.92-4.55-2.92s-4,.91-4.37,2.74c0,0-.36,.91-.36,1.83v1.1h-.18c-.18,.18-.36,.55-.55,.91-.18,1.1,.18,2.19,.91,2.56"/></g></g></svg>