<?xml version="1.0" encoding="UTF-8"?><svg id="Layer_2" xmlns="http://www.w3.org/2000/svg" viewBox="0 0 44.62 43.34"><defs><style>.cls-1{fill:#fff;}.cls-1,.cls-2{fill-rule:evenodd;}.cls-2{fill:#00a3a1;}.cls-3{fill:none;stroke:#00a3a1;stroke-miterlimit:8;stroke-width:.75px;}</style></defs><g id="Layer_1-2"><g><path class="cls-2" d="M4.8,22.32C4.8,12.64,12.64,4.8,22.32,4.8s17.52,7.84,17.52,17.52-7.84,17.52-17.52,17.52S4.8,32,4.8,22.32"/><path class="cls-2" d="M0,22.32C0,9.99,9.99,0,22.32,0s21.82,9.45,22.3,21.42l-3.44,.14c-.42-10.42-9.2-18.52-19.62-18.1C11.44,3.87,3.44,12.19,3.44,22.32H0Z"/><circle class="cls-3" cx="22.32" cy="22.32" r="20.64" transform="translate(-6.84 34.4) rotate(-67.5)"/><path class="cls-1" d="M30.54,15.26c-.51,0-.85-.34-.85-.85s.34-.93,.85-.93,.94,.42,.94,.93-.43,.85-.94,.85m-2.56,0c-.51,0-.94-.34-.94-.85s.43-.93,.94-.93c.43,0,.85,.42,.85,.93s-.43,.85-.85,.85m-2.64,0c-.51,0-.85-.34-.85-.85s.34-.93,.85-.93,.94,.42,.94,.93-.43,.85-.94,.85m6.73-3.14H12.48c-.34,0-.6,.25-.6,.59V29.92c0,.34,.26,.68,.6,.68h4.18l.77-.76c-.08-.17-.08-.34-.08-.59h-4.18v-12.55H31.48v12.55h-2.56c-.09,.42-.26,.76-.51,1.02l-.34,.34h4.01c.43,0,.68-.34,.68-.68V12.71c0-.34-.26-.59-.68-.59"/><path class="cls-1" d="M25.86,31.45c.08-.08,.08-.17,.17-.25l1.71-1.62c.34-.34,.34-.85,0-1.19-.34-.26-.77-.26-1.11,0l-.17,.17c0-.08-.09-.08-.09-.17l.85-.85c.34-.34,.34-.85,0-1.19-.26-.26-.77-.26-1.11,0l-.51,.51s-.08-.09-.08-.17l.94-.94c.34-.34,.34-.85,0-1.11-.34-.34-.85-.34-1.11,0l-.77,.68c-.08,0-.08-.09-.17-.09l2.56-2.64c.34-.26,.34-.77,0-1.11-.26-.26-.77-.26-1.11,0l-4.09,4.17c-1.71,1.36-2.13,0-2.64-.6-.94-1.02-1.79-1.19-2.13-.85-.08,.08-.68,.68-.34,.94,.17,.17,1.36,1.19,1.45,2.3,.08,.85,.26,2.13,.34,2.72l-1.96,1.96,3.83,3.74,1.96-2.04c.77-.17,1.53-.51,2.04-.94,.51-.51,1.02-.94,1.53-1.45"/><path class="cls-1" d="M24.48,21.97l.59-.59c.08-.17,.17-.42,.34-.59,.68-.59,1.61-.59,2.29,0,.59,.68,.59,1.69,0,2.29-.17,.08-.25,.17-.42,.25l-.68,.68c.51,0,1.02-.25,1.44-.59,.76-.85,.76-2.12,0-2.96-.85-.76-2.12-.76-2.97,0-.34,.42-.59,1.02-.59,1.52"/></g></g></svg>