<?xml version="1.0" encoding="UTF-8"?><svg id="Layer_2" xmlns="http://www.w3.org/2000/svg" viewBox="0 0 44.74 43.33"><defs><style>.cls-1{fill:#fff;}.cls-1,.cls-2{fill-rule:evenodd;}.cls-3{fill:none;stroke:#c6007e;stroke-miterlimit:8;stroke-width:.75px;}.cls-2{fill:#c6007e;}</style></defs><g id="Layer_1-2"><g><path class="cls-2" d="M4.8,22.32C4.8,12.64,12.67,4.8,22.38,4.8s17.58,7.84,17.58,17.52-7.87,17.52-17.58,17.52S4.8,32,4.8,22.32"/><circle class="cls-3" cx="22.32" cy="22.32" r="20.64" transform="translate(-4.53 38.91) rotate(-76.72)"/><path class="cls-2" d="M0,22.32C0,9.99,10.02,0,22.38,0s21.88,9.45,22.36,21.42l-3.44,.14c-.42-10.42-9.23-18.52-19.68-18.1C11.46,3.87,3.44,12.19,3.44,22.32H0Z"/><path class="cls-1" d="M29.08,9.85c-2.44,.73-3.78,.97-5.98,1.7-.37,0-3.05,3.88-3.05,3.88,0,0-.24,.97-.12,3.15,0,.12,2.44-.85,2.44-.85,.12-1.09,.12-1.33,.12-1.33l1.71-1.94c.73,.24,2.08,.48,1.71,.12,.49,.49,.49,1.09,.37,1.58-.49,.48-1.34,1.33-2.08,1.94-.85,.73-.85,3.03,.85,2.79,.73-.85,2.32-2.54,4.39-3.63,1.34-.73,2.32-1.7,3.42-3.64,.12-.24,.98-1.21,1.22-1.57l-3.66-3.27c-.73,.61-1.22,.97-1.34,1.09"/><path class="cls-1" d="M24.95,27.36c-.49-.12-.97-.24-1.34-.24-.12,0-.24,0-.36,.12v.12c.12,0,.12,.24,.24,.37v.24c0,.37-.12,.61-.36,.85-.24,.25-.49,.37-.85,.37-.24,0-.49,0-.73-.12-.24-.12-.36-.25-.49-.49-.12-.12-.12-.24-.12-.37v-.37c0-.24,.12-.37,.12-.49,.12,0,.12-.12,.12-.12h-2.07v.85c0,.37,.12,.61,.12,.86,0,.12-.12,.24-.12,.37v.49h-.12q-.12,.12-.24,.12s-.12-.12-.24-.12l-.12-.12c-.12,0-.24-.12-.37-.12h-.49q-.12,.12-.12,.24c-.12,.12-.24,.37-.24,.73,0,.24,.12,.37,.24,.61,.12,.12,.36,.12,.49,.12h.49c0-.12,.12-.12,.12-.12q.12-.12,.24-.12h.12c.12,.12,.24,.12,.24,.24v.12c.12,.12,.12,.24,.12,.37,0,.49-.12,1.1-.24,1.47v.61h5.97c.36,0,.61-.24,.61-.61v-5.87h-.61Z"/><path class="cls-1" d="M12.85,26.88c.36,0,.97,.12,1.34,.12h.36v-.12c-.12-.12-.24-.24-.24-.48v-.24c0-.36,.12-.6,.36-.84,.24-.12,.49-.24,.85-.24,.24,0,.49,0,.73,.12,.24,0,.36,.12,.49,.36,.12,.12,.12,.36,.12,.48v.24c0,.24-.12,.36-.12,.48q-.12,.12-.12,.24h1.58c.12-.12,.36-.12,.49-.12v-.84c-.12-.24-.12-.48-.12-.84v-.36s.12-.12,.12-.24v-.12c0-.12,.12-.12,.12-.12h.36q.12,.12,.24,.12c0,.12,.12,.12,.37,.12,0,.12,.12,.12,.12,.12,.12,0,.24-.12,.37-.12,0,0,.12-.12,.12-.24,.12-.12,.24-.36,.24-.6s-.12-.48-.24-.6c-.12-.12-.36-.24-.49-.24h-.24c-.12,0-.12,.12-.24,.12,0,0-.12,0-.12,.12h-.49l-.12-.12v-.24c-.12-.12-.12-.24-.12-.36,0-.48,.12-.96,.12-1.44,.12-.24,.12-.48,.12-.6h-6.09c-.24,0-.49,.24-.49,.6v5.76c.12,0,.37,.12,.61,.12"/><path class="cls-1" d="M18.84,31.53h-.12c-.12,.12-.24,.12-.49,.24h-.24c-.37,0-.61-.12-.86-.36-.12-.24-.24-.61-.24-.85s0-.49,.12-.73c0-.24,.24-.49,.37-.61,.12,0,.37-.12,.49-.12s.25,.12,.37,.12,.37,.12,.49,.12l.12,.12v-1.58c0-.24,0-.37-.12-.49h-2.45v-.12s-.12,0-.12-.12v-.12q0-.12,.12-.24v-.12c.12-.12,.12-.24,.24-.36v-.24c0-.12,0-.24-.12-.24,0-.12-.12-.12-.12-.24-.24-.12-.49-.12-.73-.12s-.49,.12-.61,.24c-.12,.12-.24,.24-.24,.49v.12c.12,.12,.12,.24,.12,.24,0,.12,.12,.12,.12,.24,0,0,.12,.12,.12,.24l-.12,.12c0,.12-.12,.12-.12,.24h-.61c-.37,0-.98,0-1.47-.12-.24,0-.37,0-.49-.12v6.09c0,.37,.24,.61,.49,.61h5.87c0-.24,.12-.36,.12-.61,.12-.49,.12-.97,.12-1.46v-.24Z"/><path class="cls-1" d="M25.65,20.91c-1.34,1.46-3.17-.49-2.31-2.43l-3.9,1.46v.12c0,.12,0,.36,.12,.49,.12,.49,.24,.97,.36,1.34,0,.12,0,.24,.12,.24v.12l.12-.12,.24-.24c.12-.12,.24-.12,.24-.12,.36-.12,.73-.12,.97,0,.24,.12,.49,.36,.61,.73,.12,.24,.12,.49,.12,.73s-.12,.49-.24,.61c-.12,.12-.24,.24-.37,.24h-.12c0,.12-.12,.12-.24,.12h-.61c0,.12,.12,.36,.12,.49,.12,.24,.24,.49,.24,.73,.12,0,.12,.12,.12,.24,.12,.12,.24,.36,.24,.49,.36-.24,.97-.49,1.46-.61q.12-.12,.24-.12s.12,0,.12-.12h.49q.12,0,.12,.12t.12,.12v.37c0,.12-.12,.24,0,.49v.12c0,.12,.12,.24,.12,.24,.12,.12,.24,.12,.24,.12,.24,0,.49,0,.73-.12,.24,0,.49-.24,.49-.36,.12-.24,.12-.37,.12-.61-.12,0-.12-.12-.12-.12q-.12-.12-.12-.24-.12,0-.24-.12l-.12-.12v-.24s0-.12,.12-.12q0-.12,.12-.12c.12-.12,.24-.12,.37-.24,.37-.12,.97-.24,1.34-.37,.24,0,.49-.12,.61-.12l-1.34-3.65c-.24,.12-.49,.37-.73,.61"/></g></g></svg>