<?xml version="1.0" encoding="UTF-8" standalone="no"?>
<!-- Created with Inkscape (http://www.inkscape.org/) -->

<svg
   width="211.69908mm"
   height="71.811852mm"
   viewBox="0 0 211.69908 71.811844"
   version="1.1"
   id="svg1"
   xmlns="http://www.w3.org/2000/svg"
   xmlns:svg="http://www.w3.org/2000/svg">
  <defs
     id="defs1" />
  <g
     id="layer1"
     transform="translate(-34.972126,-61.668403)">
     <clipPath
       aria-label="2022"
       id="text1"
       style="font-weight:900;font-size:96.3005px;font-family:'Noto Sans';-inkscape-font-specification:'Noto Sans, Heavy';fill:#6e1c1c;stroke-width:0;stroke-linejoin:round;paint-order:fill markers stroke">
      <path
         d="m 37.570301,131.14487 v -9.16924 q 2.586195,-5.68963 7.335389,-11.09713 4.796217,-5.4075 12.037563,-11.285213 6.959215,-5.642607 9.733497,-9.310302 2.821304,-3.667694 2.821304,-7.194324 0,-8.651998 -8.69902,-8.651998 -4.231955,0 -6.488998,2.304065 -2.210021,2.257043 -2.868325,6.81815 L 38.134562,82.806531 q 1.128521,-9.216259 6.865172,-14.059497 5.783672,-4.843238 15.705257,-4.843238 10.720954,0 16.457605,4.89026 5.736651,4.890259 5.736651,13.730344 0,4.655151 -1.833848,8.416889 -1.833847,3.761739 -4.702173,6.959216 -2.868325,3.150455 -6.394955,5.924735 -3.479607,2.77428 -6.771128,5.4075 -3.291521,2.63322 -6.018782,5.31346 -2.680238,2.68024 -3.996846,5.73665 h 30.75221 v 10.86202 z"
         style="font-weight:bold;font-family:'Liberation Sans';-inkscape-font-specification:'Liberation Sans, Bold';fill:#ffffff"
         id="path1" />
      <path
         d="m 137.39743,97.994549 q 0,16.786761 -5.78367,25.438751 -5.73666,8.652 -17.25698,8.652 -22.758515,0 -22.758515,-34.090751 0,-11.896497 2.492152,-19.419974 2.492151,-7.523476 7.476453,-11.097128 4.9843,-3.573651 13.16609,-3.573651 11.75543,0 17.20995,8.510933 5.45452,8.510932 5.45452,25.57982 z m -13.26013,0 q 0,-9.169237 -0.89341,-14.247584 -0.89341,-5.078347 -2.86833,-7.288368 -1.97491,-2.210021 -5.73665,-2.210021 -3.99685,0 -6.0658,2.257043 -2.02194,2.210021 -2.91535,7.288368 -0.84639,5.031325 -0.84639,14.200562 0,9.075191 0.89341,14.200561 0.94044,5.07835 2.91535,7.28837 2.02193,2.21002 5.83069,2.21002 3.76174,0 5.78368,-2.30407 2.06895,-2.35108 2.96237,-7.47645 0.94043,-5.12537 0.94043,-13.918431 z"
         style="font-weight:bold;font-family:'Liberation Sans';-inkscape-font-specification:'Liberation Sans, Bold';fill:#ffffff"
         id="path2" />
      <path
         d="m 144.68579,131.14487 v -9.16924 q 2.5862,-5.68963 7.33539,-11.09713 4.79622,-5.4075 12.03757,-11.285213 6.95921,-5.642607 9.73349,-9.310302 2.82131,-3.667694 2.82131,-7.194324 0,-8.651998 -8.69902,-8.651998 -4.23196,0 -6.489,2.304065 -2.21002,2.257043 -2.86833,6.81815 l -13.30714,-0.752347 q 1.12852,-9.216259 6.86517,-14.059497 5.78367,-4.843238 15.70525,-4.843238 10.72096,0 16.45761,4.89026 5.73665,4.890259 5.73665,13.730344 0,4.655151 -1.83385,8.416889 -1.83384,3.761739 -4.70217,6.959216 -2.86833,3.150455 -6.39495,5.924735 -3.47961,2.77428 -6.77113,5.4075 -3.29152,2.63322 -6.01878,5.31346 -2.68024,2.68024 -3.99685,5.73665 h 30.75221 v 10.86202 z"
         style="font-weight:bold;font-family:'Liberation Sans';-inkscape-font-specification:'Liberation Sans, Bold';fill:#ffffff"
         id="path3" />
      <path
         d="m 198.24355,131.14487 v -9.16924 q 2.58619,-5.68963 7.33539,-11.09713 4.79621,-5.4075 12.03756,-11.285213 6.95922,-5.642607 9.7335,-9.310302 2.8213,-3.667694 2.8213,-7.194324 0,-8.651998 -8.69902,-8.651998 -4.23195,0 -6.489,2.304065 -2.21002,2.257043 -2.86832,6.81815 l -13.30715,-0.752347 q 1.12852,-9.216259 6.86517,-14.059497 5.78367,-4.843238 15.70526,-4.843238 10.72095,0 16.4576,4.89026 5.73665,4.890259 5.73665,13.730344 0,4.655151 -1.83384,8.416889 -1.83385,3.761739 -4.70218,6.959216 -2.86832,3.150455 -6.39495,5.924735 -3.47961,2.77428 -6.77113,5.4075 -3.29152,2.63322 -6.01878,5.31346 -2.68024,2.68024 -3.99685,5.73665 h 30.75221 v 10.86202 z"
         style="font-weight:bold;font-family:'Liberation Sans';-inkscape-font-specification:'Liberation Sans, Bold';fill:#ffffff"
         id="path4" />
    </clipPath>
  </g>
</svg>
