<?xml version="1.0" encoding="UTF-8"?><svg id="Layer_1" xmlns="http://www.w3.org/2000/svg" viewBox="0 0 440.17 215.11"><defs><style>.cls-1{fill:#bfebe8;}.cls-2{fill:#595d59;}.cls-3{fill:#7fd7d1;}.cls-4{fill:#40c4bc;}.cls-5{fill:#00b0a5;}</style></defs><path class="cls-2" d="m422.7,57.85v.27h2.55c2.88,0,3.67.32,4.43,1.09s.95,1.95.95,3.73c0,5.97,0,18.92,0,31.86-.35-1.88-4.3-10.65-16.57-10.65-13.2,0-21.63,9.22-22.15,24.49v1.77c.52,15.27,8.95,24.49,22.15,24.49,12.34,0,16.26-8.85,16.57-10.67v.59c0,3.01,0,6.02,1.59,7.52,1.58,1.5,4.75,1.52,7.91,1.52h.02c0-13.3,0-53.67,0-66.96,0-3.01,0-6.02-1.59-7.52-1.58-1.5-4.75-1.52-7.91-1.52h-7.97Zm-8.62,26.72c11.95,0,16.26,9.01,16.57,12.61,0,9.96,0,19.05,0,24.66-.3,3.58-4.59,12.63-16.57,12.63-3.86,0-6.02-.91-8.13-3.02-3.56-3.56-3.61-13.53-3.6-21.05v-1.77c-.01-7.51.04-17.48,3.6-21.05,2.11-2.11,4.27-3.02,8.13-3.02h0Zm0,0"/><path class="cls-2" d="m366.96,82.85c-9.6,0-18.33,4.7-18.33,12.11,0,3.32,1.62,6.04,5.95,6.04,4.6,0,6.08-4.44,6.08-5.99-1.29,0-2.66-1.1-2.66-3.61s1.77-8.12,8.96-8.12,10.51,5.75,10.51,11.74v9.8c-1.2,0-6.36-.01-6.36-.01-10.45,0-24.89,3.31-24.89,15.3,0,10.51,7,13.77,13.87,13.77,4.24,0,7.92-1.41,11.05-3.83,4-3.1,6.34-8.66,6.34-9.51v4.3c0,1.73-.14,5.88,1.61,7.44,1.75,1.56,5.19,1.58,7.89,1.58v-32.85c0-5.99,0-18.15-20.01-18.15h0Zm10.51,22.35v12.3c0,6.7-9.12,12.23-14.26,12.23s-9.28-2.58-9.28-9.64c.18-8.25,6.72-14.89,17.18-14.89,0,0,4.5,0,6.36,0h0Zm0,0"/><path class="cls-2" d="m321.37,84.14c-12.89,0-16.6,9.68-16.6,10.88v2.49c.07-3.33,4.25-12.95,16.6-12.95,3.86,0,6.02.91,8.13,3.02,3.56,3.56,3.61,13.53,3.6,21.05v1.77c0,7.51-.04,17.49-3.6,21.05-2.11,2.11-4.27,3.02-8.13,3.02-12.36,0-16.54-9.62-16.59-12.95v2.49c0,1.2,3.7,10.88,16.59,10.88s21.63-9.22,22.15-24.49v-1.77c-.52-15.27-8.95-24.49-22.15-24.49h0Zm-34.07.91v.26h2.55c2.88,0,3.67.32,4.43,1.09.77.77.95,1.94.95,3.73,0,11.6.01,50.28.02,61.88,0,3.01,0,6.02,1.59,7.52,1.58,1.51,4.75,1.52,7.91,1.52h.02c0-13.3,0-53.67,0-66.96,0-3.01,0-6.02-1.59-7.52-1.59-1.5-4.75-1.51-7.92-1.51h-7.96Zm0,0"/><path class="cls-2" d="m238.8,58.29v.27h2.55c2.88,0,3.67.32,4.43,1.09.77.76.95,1.94.95,3.73,0,11.6.01,49.84.01,61.45,0,3.01,0,6.02,1.59,7.52,1.58,1.5,4.75,1.52,7.91,1.52h.02c0-6.89,0-20.67,0-34.44v1.09c0-3.54,6.66-12.93,15.65-12.93,8.34,0,8.08,9.52,8.08,9.96,0,9.38,0,18.04,0,27.28,0,3.01,0,6.02,1.59,7.52,1.58,1.5,4.75,1.52,7.91,1.52h.02c0-12.37,0-27.71,0-36.36s-5.59-13.17-14.39-13.34c-13.57,0-18.75,13.1-18.86,14.17v-31c0-3.01,0-6.02-1.59-7.52-1.59-1.5-4.75-1.52-7.91-1.52h-7.97Zm0,0"/><path class="cls-2" d="m222,83.88c11.46,0,19.62,6.19,19.62,14.96,0,3.14-1.71,6.03-5.94,6.03-4.66,0-5.98-4-5.98-5.98.31-.31,2.42-1.32,2.42-4.07s-.04-5.94-1.48-7.62c-1.44-1.67-4.75-2.89-8.64-2.89s-8.84,1.68-11.22,5.88c-2.38,4.2-2.93,10.81-2.93,18.43s.13,17.51,5.01,22.57c2.07,2.15,5.28,3.28,9.14,3.28,12.46,0,18.89-7.22,19.02-14.93h.39c0,5.79-4.7,15.34-19.41,15.35-13.63,0-24.61-10.09-24.61-26.26s12.66-24.75,24.61-24.75h0Zm0,0"/><path class="cls-2" d="m179.11,83.76c-9.71,0-18.29,11.3-18.51,11.6v-1.58c0-3.01,0-6.02-1.59-7.52-1.59-1.51-4.75-1.51-7.92-1.52h-25.43v.27h2.55c2.88,0,3.67.32,4.44,1.09.77.76.95,1.94.95,3.73-.01,11.55.05,21.99.06,32.97h-.01s0,.04-.03.06h0c-.54.72-8.92,8.63-15.56,8.63-8.33,0-8.15-9.22-8.15-9.39v-37.35h-17.47v.27h2.55c2.88,0,3.67.32,4.43,1.09.77.76.95,1.94.95,3.73,0,10.45.01,20.89.02,31.34,0,9.11,5.53,13.73,14.72,13.73,9.83,0,18.53-11.62,18.54-11.63v1.55c0,3.01,0,6.02,1.59,7.52,1.58,1.5,4.75,1.52,7.92,1.52h.01c0-7.02,0-13.61-.02-20.19l7.92-8.13c0,6.44,0,12.89,0,19.29,0,3.01,0,6.02,1.59,7.52,1.58,1.5,4.75,1.52,7.91,1.52h.02c0-12.62,0-25.39,0-38.02.19-.4,8.79-8.66,15.57-8.66,8.33,0,8.15,9.22,8.15,9.39,0,9.38,0,19.02,0,28.25,0,3.01,0,6.02,1.59,7.52,1.58,1.5,4.75,1.52,7.91,1.52h.01c0-12.37,0-27.71,0-36.36,0-9.11-5.53-13.73-14.72-13.73h0Zm-35.98,1.25h2.55c2.88,0,3.67.32,4.43,1.09.77.76.95,1.94.95,3.73,0,5,0,10.05,0,15.09l-7.92,8.12c-.02-8.97-.03-17.98-.03-28.03h0Zm0,0"/><path class="cls-2" d="m75.2,82.85c-9.59,0-18.33,4.7-18.33,12.11,0,3.32,1.62,6.04,5.95,6.04,4.6,0,6.08-4.44,6.08-5.99-1.29,0-2.66-1.1-2.66-3.61s1.77-8.12,8.96-8.12,10.52,5.75,10.52,11.74v9.8c-1.2,0-6.37-.01-6.37-.01-10.45,0-24.89,3.31-24.89,15.3,0,10.51,7,13.77,13.87,13.77,4.24,0,7.92-1.41,11.05-3.83,4-3.1,6.34-8.66,6.34-9.51v4.3c0,1.73-.14,5.88,1.61,7.44,1.75,1.56,5.19,1.58,7.89,1.58v-32.85c0-5.99,0-18.15-20.02-18.15h0Zm10.52,22.35v12.3c0,6.7-9.12,12.23-14.27,12.23s-9.27-2.58-9.27-9.64c.18-8.25,6.72-14.89,17.17-14.89,0,0,4.5,0,6.37,0h0Zm0,0"/><path class="cls-2" d="m17.45,133.85h28.2c2.42,0,4.28-.27,5.67-1.66,1.39-1.39,1.36-3.01,1.36-4.11v-1.39s-.38,0-.38,0c0,.33-.01.47-.01,1.39s-.1,2.34-1.34,3.58c-1.24,1.24-2.6,1.22-7.76,1.23l-13.13.02c-2.46,0-8.36.07-9.9-1.48-1.55-1.55-1.59-4.05-1.59-7.33v-53.15c-.01-1.79.17-2.97.94-3.73.77-.77,1.55-1.09,4.44-1.09h2.55v-.27H0v.27h2.55c2.88,0,3.67.32,4.44,1.09.76.77.95,1.95.95,3.73l.02,53.87c0,3.01,0,6.02,1.58,7.52,1.58,1.5,4.75,1.51,7.92,1.51"/><path class="cls-5" d="m145.36,0c-1.49,0-2.97.57-4.11,1.71l-22.76,22.76c-2.28,2.28-2.28,5.95,0,8.23,2.28,2.28,5.95,2.28,8.23,0l14.53-14.53h0c.46-.47,1.7-1.71,4.1-1.71s3.7,1.28,4.12,1.71l14.53,14.53c2.28,2.28,5.95,2.28,8.23,0,2.28-2.28,2.28-5.95,0-8.23L149.47,1.71c-1.14-1.14-2.63-1.71-4.12-1.71h0Zm0,0"/><path class="cls-4" d="m145.36,34.41c-1.49,0-2.97.57-4.11,1.71l-22.76,22.76c-2.28,2.28-2.28,5.95,0,8.23,2.28,2.28,5.95,2.28,8.23,0l14.53-14.53h0c.46-.47,1.7-1.7,4.1-1.7s3.7,1.28,4.12,1.7l14.53,14.53c2.28,2.28,5.95,2.28,8.23,0,2.28-2.28,2.28-5.95,0-8.23l-22.76-22.76c-1.14-1.14-2.63-1.71-4.12-1.71h0Zm0,0"/><path class="cls-3" d="m145.36,146.3c-1.49,0-2.97.57-4.11,1.71l-22.76,22.76c-2.28,2.28-2.28,5.95,0,8.23,2.28,2.28,5.95,2.28,8.23,0l14.53-14.53h0c.46-.46,1.7-1.71,4.1-1.71s3.7,1.28,4.12,1.71l14.53,14.53c2.28,2.28,5.95,2.28,8.23,0,2.28-2.28,2.28-5.95,0-8.23l-22.76-22.76c-1.14-1.14-2.63-1.71-4.12-1.71h0Zm0,0"/><path class="cls-1" d="m145.36,180.7c-1.49,0-2.97.57-4.11,1.71l-22.76,22.76c-2.28,2.28-2.28,5.95,0,8.23,2.28,2.28,5.95,2.28,8.23,0l14.53-14.53h0c.46-.46,1.7-1.7,4.1-1.7s3.7,1.28,4.12,1.7l14.53,14.53c2.28,2.28,5.95,2.28,8.23,0,2.28-2.28,2.28-5.95,0-8.23l-22.76-22.76c-1.14-1.14-2.63-1.71-4.12-1.71h0Zm0,0"/></svg>