<?xml version="1.0" encoding="UTF-8" standalone="no"?>
<!-- Generator: Adobe Illustrator 16.0.0, SVG Export Plug-In . SVG Version: 6.00 Build 0)  -->

<svg
   version="1.1"
   id="Layer_2"
   x="0px"
   y="0px"
   width="271.40002"
   height="338.60001"
   viewBox="0 0 271.40002 338.60001"
   enable-background="new 0 0 1400 980"
   xml:space="preserve"
   sodipodi:docname="Headshot.svg"
   xmlns:inkscape="http://www.inkscape.org/namespaces/inkscape"
   xmlns:sodipodi="http://sodipodi.sourceforge.net/DTD/sodipodi-0.dtd"
   xmlns="http://www.w3.org/2000/svg"
   xmlns:svg="http://www.w3.org/2000/svg"><defs
   id="defs60" /><sodipodi:namedview
   id="namedview60"
   pagecolor="#ffffff"
   bordercolor="#999999"
   borderopacity="1"
   inkscape:showpageshadow="0"
   inkscape:pageopacity="0"
   inkscape:pagecheckerboard="0"
   inkscape:deskcolor="#d1d1d1"
   showgrid="false"
   inkscape:export-bgcolor="#ffffffff" />







<g
   id="g61"
   transform="translate(-569.79999,-94)"><rect
     x="571.5"
     y="95.699997"
     fill="#ffffff"
     width="242"
     height="311"
     id="rect22" /><path
     d="m 813.5,408.4 h -242 c -0.9,0 -1.7,-0.8 -1.7,-1.7 v -311 c 0,-0.9 0.8,-1.7 1.7,-1.7 h 242 c 0.9,0 1.7,0.8 1.7,1.7 v 311 c 0,0.9 -0.8,1.7 -1.7,1.7 z M 573.2,405 H 811.8 V 97.4 H 573.2 Z"
     id="path22"
     style="fill:#48a7a7;fill-opacity:1" /><path
     d="m 775.3,259.4 c 4.4,-21.8 -8.7,-28.1 -8.7,-28.1 4.8,-33.4 -19.8,-42.1 -19.8,-42.1 -10.1,-44.8 -53.9,-41.7 -54.2,-41.6 -0.4,0 -44.1,-3.2 -54.2,41.6 0,0 -24.7,8.7 -19.8,42.1 0,0 -13.1,6.3 -8.7,28.1 0,0 -37.3,37.3 3.9,80.8 h 78.9 v 0 h 78.9 c 41,-43.5 3.7,-80.8 3.7,-80.8 z"
     id="path23"
     style="fill:#48a7a7;fill-opacity:1" /><path
     d="m 753,319.5 c -12.8,0 -33.5,-11.9 -33.5,-11.9 0,0 -1.6,8.7 -27,8.7 -25.4,0 -27,-8.7 -27,-8.7 0,0 -20.6,11.9 -33.5,11.9 -50.7,0 -60.5,87.3 -60.5,87.3 h 121 121 c 0,-0.1 -9.7,-87.3 -60.5,-87.3 z"
     id="path24"
     style="fill:#48a7a7;fill-opacity:1" /><polygon
     fill="#ffffff"
     points="719.6,314.8 719.6,283.4 692.5,283.4 665.5,283.4 665.5,314.8 654.6,314.8 692.5,387.4 730.5,314.8 "
     id="polygon24" /><path
     d="m 692.5,389.1 c -0.6,0 -1.2,-0.3 -1.5,-0.9 l -38,-72.6 c -0.3,-0.5 -0.3,-1.2 0.1,-1.7 0.3,-0.5 0.9,-0.8 1.4,-0.8 h 9.3 v -29.6 c 0,-0.9 0.8,-1.7 1.7,-1.7 h 54.1 c 0.9,0 1.7,0.8 1.7,1.7 v 29.6 h 9.3 c 0.6,0 1.1,0.3 1.4,0.8 0.3,0.5 0.3,1.1 0.1,1.7 l -38,72.6 c -0.3,0.6 -0.9,0.9 -1.6,0.9 z m -35.1,-72.6 35.2,67.3 35.2,-67.3 h -8.2 c -0.9,0 -1.7,-0.8 -1.7,-1.7 v -29.6 h -50.7 v 29.6 c 0,0.9 -0.8,1.7 -1.7,1.7 z"
     id="path25"
     style="fill:#48a7a7;fill-opacity:1" /><path
     fill="#ffffff"
     d="m 692.5,192 h -40.8 c 0,0 0,33.1 0,55.7 0,22.6 21.6,52.9 40.8,52.9 19.5,0 40.8,-30.4 40.8,-52.9 0,-22.5 0,-55.7 0,-55.7 z"
     id="path26" /><path
     d="M 692.5,302.3 C 672,302.3 650,270.3 650,247.7 V 192 c 0,-0.9 0.8,-1.7 1.7,-1.7 h 81.5 c 0.9,0 1.7,0.8 1.7,1.7 v 55.7 c 0.1,22.8 -21.3,54.6 -42.4,54.6 z m -39,-108.6 v 54 c 0,22.5 21.9,51.2 39.1,51.2 18.9,0 39.1,-30.1 39.1,-51.2 v -54 z"
     id="path27"
     style="fill:#48a7a7;fill-opacity:1" /><path
     d="m 650.3,192 v 0 0 18.2 c 0,0 9.4,-1.7 15.2,-7.7 30.6,16.1 69.2,12.5 69.2,12.5 v -23 z"
     id="path28"
     style="fill:#48a7a7;fill-opacity:1" /><path
     d="m 839.5,432.6 h -268 c -0.9,0 -1.7,-0.8 -1.7,-1.7 0,-0.9 0.8,-1.7 1.7,-1.7 H 837.8 V 95.7 c 0,-0.9 0.8,-1.7 1.7,-1.7 0.9,0 1.7,0.8 1.7,1.7 v 335.2 c 0,0.9 -0.8,1.7 -1.7,1.7 z"
     id="path29"
     style="fill:#48a7a7;fill-opacity:1" /></g>



</svg>
