<?xml version="1.0" encoding="UTF-8" standalone="no"?>
<!-- Generator: Adobe Illustrator 16.0.0, SVG Export Plug-In . SVG Version: 6.00 Build 0)  -->

<svg
   version="1.1"
   id="Layer_2"
   x="0px"
   y="0px"
   width="272"
   height="338.60001"
   viewBox="0 0 272 338.60001"
   enable-background="new 0 0 1400 980"
   xml:space="preserve"
   sodipodi:docname="Headshot.svg"
   xmlns:inkscape="http://www.inkscape.org/namespaces/inkscape"
   xmlns:sodipodi="http://sodipodi.sourceforge.net/DTD/sodipodi-0.dtd"
   xmlns="http://www.w3.org/2000/svg"
   xmlns:svg="http://www.w3.org/2000/svg"><defs
   id="defs60" /><sodipodi:namedview
   id="namedview60"
   pagecolor="#ffffff"
   bordercolor="#999999"
   borderopacity="1"
   inkscape:showpageshadow="0"
   inkscape:pageopacity="0"
   inkscape:pagecheckerboard="0"
   inkscape:deskcolor="#d1d1d1"
   showgrid="false"
   inkscape:export-bgcolor="#ffffffff" />









<g
   id="g60"
   transform="translate(-932.90002,-94)"><rect
     x="934.59998"
     y="95.699997"
     fill="#ffffff"
     width="242"
     height="311"
     id="rect41" /><path
     d="m 1176.6,408.4 h -242 c -0.9,0 -1.7,-0.8 -1.7,-1.7 v -311 c 0,-0.9 0.8,-1.7 1.7,-1.7 h 242 c 0.9,0 1.7,0.8 1.7,1.7 v 311 c 0,0.9 -0.7,1.7 -1.7,1.7 z M 936.3,405 H 1175 V 97.4 H 936.3 Z"
     id="path41"
     style="fill:#48a7a7;fill-opacity:1" /><path
     d="m 1055.7,151.4 v 0 c 0,0 0,0 0,0 0,0 -0.1,0 0,0 v 0 c -64.8,0 -78.3,114.4 -68.9,149.1 9.4,34.7 68.5,16.2 68.9,16 0.4,0.1 59.6,18.6 68.9,-16 9.4,-34.7 -4.2,-149 -68.9,-149.1 z"
     id="path42"
     style="fill:#48a7a7;fill-opacity:1" /><path
     d="m 1116.2,319.5 c -12.8,0 -33.5,-11.9 -33.5,-11.9 0,0 -1.6,8.7 -27,8.7 -25.4,0 -27,-8.7 -27,-8.7 0,0 -20.6,11.9 -33.5,11.9 -50.7,0 -60.5,87.3 -60.5,87.3 h 121 121 c 0,-0.1 -9.8,-87.3 -60.5,-87.3 z"
     id="path43"
     style="fill:#48a7a7;fill-opacity:1" /><polygon
     fill="#ffffff"
     points="1082.7,314.8 1082.7,283.4 1055.7,283.4 1028.6,283.4 1028.6,314.8 1017.7,314.8 1055.7,387.4 1093.7,314.8 "
     id="polygon43" /><path
     d="m 1055.7,389.1 c -0.6,0 -1.2,-0.3 -1.5,-0.9 l -38,-72.6 c -0.3,-0.5 -0.3,-1.2 0.1,-1.7 0.3,-0.5 0.9,-0.8 1.4,-0.8 h 9.3 v -29.6 c 0,-0.9 0.8,-1.7 1.7,-1.7 h 54.1 c 0.9,0 1.7,0.8 1.7,1.7 v 29.6 h 9.3 c 0.6,0 1.1,0.3 1.4,0.8 0.3,0.5 0.3,1.1 0.1,1.7 l -38,72.6 c -0.4,0.6 -1,0.9 -1.6,0.9 z m -35.2,-72.6 35.2,67.3 35.2,-67.3 h -8.2 c -0.9,0 -1.7,-0.8 -1.7,-1.7 v -29.6 h -50.7 v 29.6 c 0,0.9 -0.8,1.7 -1.7,1.7 z"
     id="path44"
     style="fill:#48a7a7;fill-opacity:1" /><path
     fill="#ffffff"
     d="m 1055.7,192 h -40.8 c 0,0 0,33.1 0,55.7 0,22.6 21.6,52.9 40.8,52.9 19.5,0 40.8,-30.4 40.8,-52.9 0,-22.5 0,-55.7 0,-55.7 z"
     id="path45" /><path
     d="m 1055.7,302.3 c -20.5,0 -42.5,-32 -42.5,-54.6 V 192 c 0,-0.9 0.8,-1.7 1.7,-1.7 h 81.5 c 0.9,0 1.7,0.8 1.7,1.7 v 55.7 c 0,22.8 -21.4,54.6 -42.4,54.6 z m -39.1,-108.6 v 54 c 0,22.5 21.9,51.2 39.1,51.2 18.9,0 39.1,-30.1 39.1,-51.2 v -54 z"
     id="path46"
     style="fill:#48a7a7;fill-opacity:1" /><path
     d="m 1013.4,215.1 c 0,0 53.4,5 84.4,-23.1 h -84.4 z"
     id="path47"
     style="fill:#48a7a7;fill-opacity:1" /><path
     d="m 1203.2,432.6 h -268 c -0.9,0 -1.7,-0.8 -1.7,-1.7 0,-0.9 0.8,-1.7 1.7,-1.7 h 266.3 V 95.7 c 0,-0.9 0.8,-1.7 1.7,-1.7 0.9,0 1.7,0.8 1.7,1.7 v 335.2 c 0,0.9 -0.7,1.7 -1.7,1.7 z"
     id="path48"
     style="fill:#48a7a7;fill-opacity:1" /></g>

</svg>
