<?xml version="1.0" encoding="UTF-8" standalone="no"?>
<!-- Generator: Adobe Illustrator 16.0.0, SVG Export Plug-In . SVG Version: 6.00 Build 0)  -->

<svg
   version="1.1"
   id="Layer_2"
   x="0px"
   y="0px"
   width="271.39999"
   height="338.60001"
   viewBox="0 0 271.39999 338.60001"
   enable-background="new 0 0 1400 980"
   xml:space="preserve"
   xmlns="http://www.w3.org/2000/svg"
   xmlns:svg="http://www.w3.org/2000/svg"><defs
   id="defs60" />





<g
   id="g62"
   transform="translate(-195,-94)"><rect
     x="196.8"
     y="95.699997"
     fill="#ffffff"
     width="242"
     height="311"
     id="rect11" /><path
     d="m 438.8,408.4 h -242 c -0.9,0 -1.7,-0.8 -1.7,-1.7 v -311 c 0,-0.9 0.8,-1.7 1.7,-1.7 h 242 c 0.9,0 1.7,0.8 1.7,1.7 v 311 c -0.1,0.9 -0.8,1.7 -1.7,1.7 z M 198.4,405 H 437 V 97.4 H 198.4 Z"
     id="path12"
     style="fill:#48a7a7;fill-opacity:1;stroke:none;stroke-opacity:1" /><path
     d="m 317.8,151.4 v 0 c -0.1,0 -0.1,0 0,0 -0.1,0 -0.1,0 0,0 v 0 c -64.8,0 -78.3,105.4 -68.9,140.2 H 386.7 C 396,256.8 382.5,151.5 317.8,151.4 Z"
     id="path13"
     style="fill:#48a7a7;fill-opacity:1" /><path
     d="m 378.3,319.5 c -12.8,0 -33.5,-11.9 -33.5,-11.9 0,0 -1.6,8.7 -27,8.7 -25.4,0 -27,-8.7 -27,-8.7 0,0 -20.6,11.9 -33.5,11.9 -50.7,0 -60.5,87.3 -60.5,87.3 h 121 121 c 0,-0.1 -9.8,-87.3 -60.5,-87.3 z"
     id="path14"
     style="fill:#48a7a7;fill-opacity:1" /><path
     fill="#ffffff"
     d="m 344.8,314.8 v -31.3 h -27 -27 v 31.3 h -10.9 c 0,0 9.1,28.6 38,28.6 28.9,0 38,-28.6 38,-28.6 z"
     id="path15" /><path
     d="m 317.8,345 c -29.8,0 -39.5,-29.4 -39.6,-29.7 -0.2,-0.5 -0.1,-1.1 0.2,-1.5 0.3,-0.4 0.8,-0.7 1.4,-0.7 h 9.3 v -29.6 c 0,-0.9 0.8,-1.7 1.7,-1.7 h 54.1 c 0.9,0 1.7,0.8 1.7,1.7 v 29.6 h 9.3 c 0.5,0 1,0.3 1.4,0.7 0.3,0.4 0.4,1 0.2,1.5 -0.3,0.3 -10,29.7 -39.7,29.7 z m -35.6,-28.5 c 2.7,6.5 12.5,25.2 35.5,25.2 22.7,0 32.7,-18.7 35.5,-25.2 h -8.5 c -0.9,0 -1.7,-0.8 -1.7,-1.7 v -29.6 h -50.7 v 29.6 c 0,0.9 -0.8,1.7 -1.7,1.7 z"
     id="path16"
     style="fill:#48a7a7;fill-opacity:1" /><path
     fill="#ffffff"
     d="M 317.8,192 H 277 c 0,0 0,33.1 0,55.7 0,22.5 21.6,52.9 40.8,52.9 19.5,0 40.8,-30.4 40.8,-52.9 0,-22.5 0,-55.7 0,-55.7 z"
     id="path17" /><path
     d="m 317.8,302.3 c -20.5,0 -42.5,-32 -42.5,-54.6 V 192 c 0,-0.9 0.8,-1.7 1.7,-1.7 h 81.5 c 0.9,0 1.7,0.8 1.7,1.7 v 55.7 c 0,22.8 -21.4,54.6 -42.4,54.6 z M 278.7,193.7 v 54 c 0,22.5 21.9,51.2 39.1,51.2 18.9,0 39.1,-30.1 39.1,-51.2 v -54 z"
     id="path18"
     style="fill:#48a7a7;fill-opacity:1" /><path
     d="m 359.9,215.1 c 0,0 -53.4,5 -84.4,-23.1 h 84.4 z"
     id="path19"
     style="fill:#48a7a7;fill-opacity:1" /><path
     d="m 464.7,432.6 h -268 c -0.9,0 -1.7,-0.8 -1.7,-1.7 0,-0.9 0.8,-1.7 1.7,-1.7 H 463 V 95.7 c 0,-0.9 0.8,-1.7 1.7,-1.7 0.9,0 1.7,0.8 1.7,1.7 v 335.2 c 0,0.9 -0.7,1.7 -1.7,1.7 z"
     id="path20"
     style="fill:#48a7a7;fill-opacity:1" /></g>





</svg>
