<?xml version="1.0" encoding="UTF-8" standalone="no"?>
<!-- Created with Inkscape (http://www.inkscape.org/) -->

<svg
   version="1.1"
   id="svg1"
   width="527.81335"
   height="289.49332"
   viewBox="0 0 527.81335 289.49332"
   sodipodi:docname="TCN_Secondary_Logo_RGB.svg"
   inkscape:version="1.4.2 (ebf0e940d0, 2025-05-08)"
   xmlns:inkscape="http://www.inkscape.org/namespaces/inkscape"
   xmlns:sodipodi="http://sodipodi.sourceforge.net/DTD/sodipodi-0.dtd"
   xmlns="http://www.w3.org/2000/svg"
   xmlns:svg="http://www.w3.org/2000/svg">
  <defs
     id="defs1" />
  <sodipodi:namedview
     id="namedview1"
     pagecolor="#ffffff"
     bordercolor="#000000"
     borderopacity="0.25"
     inkscape:showpageshadow="2"
     inkscape:pageopacity="0.0"
     inkscape:pagecheckerboard="0"
     inkscape:deskcolor="#d1d1d1"
     inkscape:zoom="1.1150318"
     inkscape:cx="350.21423"
     inkscape:cy="102.68766"
     inkscape:window-width="2048"
     inkscape:window-height="1080"
     inkscape:window-x="0"
     inkscape:window-y="0"
     inkscape:window-maximized="1"
     inkscape:current-layer="g1">
    <inkscape:page
       x="0"
       y="0"
       inkscape:label="1"
       id="page1"
       width="527.81335"
       height="289.49332"
       margin="0"
       bleed="0" />
  </sodipodi:namedview>
  <g
     id="g1"
     inkscape:groupmode="layer"
     inkscape:label="1">
    <g
       id="group-R5">
      <path
         id="path2"
         d="M 92.9961,189.98 V 1.83984 H 59.957 V 189.98 H 0 v 29.668 H 152.957 V 189.98 H 92.9961"
         style="fill:#505256;fill-opacity:1;fill-rule:nonzero;stroke:none"
         transform="matrix(0.13333333,0,0,-0.13333333,0,289.49333)" />
      <path
         id="path3"
         d="M 342.633,1.83984 V 96.9805 H 254.227 V 1.83984 H 221.191 V 219.648 h 33.036 v -93 h 88.406 v 93 h 33.039 V 1.83984 h -33.039"
         style="fill:#505256;fill-opacity:1;fill-rule:nonzero;stroke:none"
         transform="matrix(0.13333333,0,0,-0.13333333,0,289.49333)" />
      <path
         id="path4"
         d="M 463.168,1.83984 V 219.648 H 602.363 V 189.98 H 496.207 v -63.628 h 90.551 V 96.9805 H 496.207 V 31.5 H 602.363 V 1.83984 H 463.168"
         style="fill:#505256;fill-opacity:1;fill-rule:nonzero;stroke:none"
         transform="matrix(0.13333333,0,0,-0.13333333,0,289.49333)" />
      <path
         id="path5"
         d="m 852.609,0 c -22.625,0 -42.203,8.26953 -57.211,23.25 -21.402,21.4297 -21.101,45.5703 -21.101,87.5 0,41.91 -0.301,66.078 21.101,87.48 15.008,15.008 34.586,23.25 57.211,23.25 40.079,0 70.047,-23.55 77.711,-66.98 h -33.66 c -5.195,22.031 -19.879,37.309 -44.051,37.309 -12.836,0 -24.472,-4.887 -32.117,-13.161 -10.711,-11.609 -13.156,-24.148 -13.156,-67.898 0,-43.75 2.445,-56.2891 13.156,-67.9219 7.645,-8.2695 19.281,-13.1562 32.117,-13.1562 24.172,0 39.157,15.3086 44.352,37.3281 H 930.32 C 922.98,23.5508 892.066,0 852.609,0"
         style="fill:#505256;fill-opacity:1;fill-rule:nonzero;stroke:none"
         transform="matrix(0.13333333,0,0,-0.13333333,0,289.49333)" />
      <path
         id="path6"
         d="M 1126.41,1.83984 V 96.9805 h -88.4 V 1.83984 h -33.04 V 219.648 h 33.04 v -93 h 88.4 v 93 h 33.04 V 1.83984 h -33.04"
         style="fill:#505256;fill-opacity:1;fill-rule:nonzero;stroke:none"
         transform="matrix(0.13333333,0,0,-0.13333333,0,289.49333)" />
      <path
         id="path7"
         d="m 1246.95,219.66 h 33.04 V 1.85156 h -33.04 V 219.66"
         style="fill:#505256;fill-opacity:1;fill-rule:nonzero;stroke:none"
         transform="matrix(0.13333333,0,0,-0.13333333,0,289.49333)" />
      <path
         id="path8"
         d="m 1437.83,0 c -22.62,0 -42.2,8.26953 -57.21,23.25 -21.4,21.4297 -21.1,45.5703 -21.1,87.5 0,41.91 -0.3,66.078 21.1,87.48 15.01,15.008 34.59,23.25 57.21,23.25 40.08,0 70.05,-23.55 77.72,-66.98 h -33.66 c -5.2,22.031 -19.88,37.309 -44.06,37.309 -12.83,0 -24.47,-4.887 -32.11,-13.161 -10.71,-11.609 -13.16,-24.148 -13.16,-67.898 0,-43.75 2.45,-56.2891 13.16,-67.9219 7.64,-8.2695 19.28,-13.1562 32.11,-13.1562 24.18,0 39.16,15.3086 44.36,37.3281 h 33.36 C 1508.21,23.5508 1477.29,0 1437.83,0"
         style="fill:#505256;fill-opacity:1;fill-rule:nonzero;stroke:none"
         transform="matrix(0.13333333,0,0,-0.13333333,0,289.49333)" />
      <path
         id="path9"
         d="M 1936.18,24.7813 C 1919.67,7.35156 1899.17,0.0117188 1876.22,0.0117188 c -22.62,0 -42.2,8.2578112 -57.21,23.2499812 -21.4,21.3985 -21.1,45.5703 -21.1,87.4763 0,41.922 -0.3,66.071 21.1,87.5 15.01,14.981 33.96,23.25 57.21,23.25 46.2,0 73.12,-30.289 79.24,-67.597 h -33.34 c -5.52,23.847 -21.42,37.929 -45.9,37.929 -12.83,0 -24.47,-5.218 -32.11,-13.461 -10.71,-11.64 -13.16,-23.871 -13.16,-67.621 0,-43.7263 2.45,-56.2888 13.16,-67.9099 7.64,-8.2578 19.28,-13.1562 32.11,-13.1562 14.39,0 26.92,5.5195 35.49,15.289 7.96,9.1875 11.01,20.1993 11.01,34.2774 v 12.2422 h -46.5 v 28.1405 h 79.54 V 86.2617 c 0,-28.1406 -5.19,-46.1719 -19.58,-61.4804"
         style="fill:#505256;fill-opacity:1;fill-rule:nonzero;stroke:none"
         transform="matrix(0.13333333,0,0,-0.13333333,0,289.49333)" />
      <path
         id="path10"
         d="M 2500.91,1.83984 2400.27,155.121 V 1.83984 h -33.03 V 219.648 h 30.26 L 2498.17,66.6914 V 219.648 h 33.03 V 1.83984 h -30.29"
         style="fill:#505256;fill-opacity:1;fill-rule:nonzero;stroke:none"
         transform="matrix(0.13333333,0,0,-0.13333333,0,289.49333)" />
      <path
         id="path11"
         d="M 2618.69,1.83984 V 219.648 h 139.2 V 189.98 h -106.16 v -63.628 h 90.55 V 96.9805 h -90.55 V 31.5 h 106.16 V 1.83984 h -139.2"
         style="fill:#505256;fill-opacity:1;fill-rule:nonzero;stroke:none"
         transform="matrix(0.13333333,0,0,-0.13333333,0,289.49333)" />
      <path
         id="path12"
         d="M 2907.49,189.98 V 1.83984 h -33.04 V 189.98 h -59.96 v 29.668 h 152.96 V 189.98 h -59.96"
         style="fill:#505256;fill-opacity:1;fill-rule:nonzero;stroke:none"
         transform="matrix(0.13333333,0,0,-0.13333333,0,289.49333)" />
      <path
         id="path13"
         d="m 3213.42,1.83984 h -28.77 L 3140.3,154.488 3096.25,1.83984 H 3067.5 L 3010.59,219.648 h 34.86 l 37.96,-155.7066 43.73,155.7066 h 26.62 l 43.75,-155.7066 37.93,155.7066 h 34.89 L 3213.42,1.83984"
         style="fill:#505256;fill-opacity:1;fill-rule:nonzero;stroke:none"
         transform="matrix(0.13333333,0,0,-0.13333333,0,289.49333)" />
      <path
         id="path14"
         d="m 1621.07,73.7305 33.97,96.6675 33.03,-96.6675 z m 46.5,145.9175 h -26.62 L 1561.12,1.83984 h 35.18 l 14.99,43.74996 h 85.97 l 14.99,-43.74996 h 35.18 L 1667.57,219.648"
         style="fill:#505256;fill-opacity:1;fill-rule:nonzero;stroke:none"
         transform="matrix(0.13333333,0,0,-0.13333333,0,289.49333)" />
      <path
         id="path15"
         d="m 2137.78,43.1289 c -7.64,-8.2383 -19.58,-13.457 -32.42,-13.457 -12.86,0 -24.79,5.2187 -32.44,13.457 -10.68,11.6328 -12.83,23.8711 -12.83,67.6211 0,43.75 2.15,55.988 12.83,67.602 7.65,8.269 19.58,13.457 32.44,13.457 12.84,0 24.78,-5.188 32.42,-13.457 10.71,-11.614 12.86,-23.852 12.86,-67.602 0,-43.75 -2.15,-55.9883 -12.86,-67.6211 z m 25.09,155.1011 c -14.98,15.008 -34.26,23.25 -57.51,23.25 -23.25,0 -42.22,-8.242 -57.21,-23.25 -21.4,-21.402 -21.1,-45.57 -21.1,-87.48 0,-41.918 -0.3,-66.0703 21.1,-87.5 C 2063.14,8.26953 2082.11,0 2105.36,0 c 23.25,0 42.53,8.26953 57.51,23.25 21.43,21.4297 20.81,45.582 20.81,87.5 0,41.91 0.62,66.078 -20.81,87.48"
         style="fill:#505256;fill-opacity:1;fill-rule:nonzero;stroke:none"
         transform="matrix(0.13333333,0,0,-0.13333333,0,289.49333)" />
      <path
         id="path16"
         d="m 3432.44,43.1289 c -7.64,-8.2383 -19.58,-13.457 -32.41,-13.457 -12.86,0 -24.8,5.2187 -32.44,13.457 -10.69,11.6328 -12.84,23.8711 -12.84,67.6211 0,43.75 2.15,55.988 12.84,67.602 7.64,8.269 19.58,13.457 32.44,13.457 12.83,0 24.77,-5.188 32.41,-13.457 10.71,-11.614 12.86,-23.852 12.86,-67.602 0,-43.75 -2.15,-55.9883 -12.86,-67.6211 z M 3400.03,221.48 c -23.25,0 -42.23,-8.242 -57.22,-23.25 -21.4,-21.402 -21.1,-45.57 -21.1,-87.48 0,-41.918 -0.3,-66.0703 21.1,-87.5 C 3357.8,8.26953 3376.78,0 3400.03,0 c 23.24,0 42.52,8.26953 57.51,23.25 21.42,21.4297 20.8,45.582 20.8,87.5 0,41.91 0.62,66.078 -20.8,87.48 -14.99,15.008 -34.27,23.25 -57.51,23.25"
         style="fill:#505256;fill-opacity:1;fill-rule:nonzero;stroke:none"
         transform="matrix(0.13333333,0,0,-0.13333333,0,289.49333)" />
      <path
         id="path17"
         d="m 3590.93,121.75 v 68.23 h 48.95 c 22.02,0 37.01,-12.839 37.01,-34.261 0,-21.41 -14.99,-33.969 -37.01,-33.969 z m 75.55,-23.5508 c 24.49,6.7228 43.45,26.6208 43.45,57.8208 0,37.031 -26.32,63.628 -67.6,63.628 h -84.44 V 1.83984 h 33.04 V 93.6094 h 41.31 l 45.87,-91.76956 h 38.54 l -50.17,96.35936"
         style="fill:#505256;fill-opacity:1;fill-rule:nonzero;stroke:none"
         transform="matrix(0.13333333,0,0,-0.13333333,0,289.49333)" />
      <path
         id="path18"
         d="m 3910.93,219.648 -89.05,-109.527 v 109.527 h -33.04 V 1.82031 h 33.04 V 65.1719 l 36.73,44.0271 61.16,-107.37869 h 38.86 l -77.99,132.48069 70.67,85.347 h -40.38"
         style="fill:#505256;fill-opacity:1;fill-rule:nonzero;stroke:none"
         transform="matrix(0.13333333,0,0,-0.13333333,0,289.49333)" />
      <path
         id="path19"
         d="m 1574.15,672.09 c -11.33,0 -20.51,9.191 -20.51,20.519 v 276.172 c 0,11.328 9.18,20.508 20.51,20.508 11.33,0 20.51,-9.18 20.51,-20.508 V 692.609 c 0,-11.328 -9.18,-20.519 -20.51,-20.519"
         style="fill:#51aba5;fill-opacity:1;fill-rule:nonzero;stroke:none"
         transform="matrix(0.13333333,0,0,-0.13333333,0,289.49333)" />
      <path
         id="path20"
         d="m 1489.02,1095.69 c -3.48,0 -7.01,0.89 -10.24,2.76 l -239.19,138.08 c -9.81,5.67 -13.16,18.21 -7.5,28.02 5.66,9.81 18.22,13.17 28.02,7.51 l 239.18,-138.09 c 9.82,-5.66 13.18,-18.21 7.51,-28.01 -3.8,-6.59 -10.69,-10.27 -17.78,-10.27"
         style="fill:#4d83af;fill-opacity:1;fill-rule:nonzero;stroke:none"
         transform="matrix(0.13333333,0,0,-0.13333333,0,289.49333)" />
      <path
         id="path21"
         d="m 1249.87,859.309 c -7.09,0 -13.99,3.691 -17.79,10.269 -5.66,9.801 -2.3,22.352 7.51,28.024 l 239.19,138.078 c 9.8,5.66 22.35,2.31 28.02,-7.51 5.67,-9.8 2.31,-22.35 -7.51,-28.02 L 1260.1,862.07 c -3.23,-1.871 -6.75,-2.761 -10.23,-2.761"
         style="fill:#c0b621;fill-opacity:1;fill-rule:nonzero;stroke:none"
         transform="matrix(0.13333333,0,0,-0.13333333,0,289.49333)" />
      <path
         id="path22"
         d="m 1574.16,1144.82 c -11.33,0 -20.51,9.19 -20.51,20.52 v 276.2 c 0,11.32 9.18,20.51 20.51,20.51 11.33,0 20.51,-9.19 20.51,-20.51 v -276.2 c 0,-11.33 -9.18,-20.52 -20.51,-20.52"
         style="fill:#51aba5;fill-opacity:1;fill-rule:nonzero;stroke:none"
         transform="matrix(0.13333333,0,0,-0.13333333,0,289.49333)" />
      <path
         id="path23"
         d="m 1659.28,1095.69 c -7.09,0 -13.99,3.68 -17.79,10.27 -5.66,9.8 -2.3,22.35 7.51,28.01 l 239.19,138.09 c 9.8,5.66 22.36,2.3 28.02,-7.51 5.66,-9.81 2.31,-22.35 -7.51,-28.02 l -239.19,-138.08 c -3.23,-1.87 -6.75,-2.76 -10.23,-2.76"
         style="fill:#51aba5;fill-opacity:1;fill-rule:nonzero;stroke:none"
         transform="matrix(0.13333333,0,0,-0.13333333,0,289.49333)" />
      <path
         id="path24"
         d="m 1574.15,1617.59 c -11.33,0 -20.51,9.18 -20.51,20.52 v 276.17 c 0,11.33 9.18,20.51 20.51,20.51 11.33,0 20.51,-9.18 20.51,-20.51 v -276.17 c 0,-11.34 -9.18,-20.52 -20.51,-20.52"
         style="fill:#4d83af;fill-opacity:1;fill-rule:nonzero;stroke:none"
         transform="matrix(0.13333333,0,0,-0.13333333,0,289.49333)" />
      <path
         id="path25"
         d="m 1489.02,1568.44 c -3.48,0 -7.01,0.89 -10.24,2.76 l -239.19,138.09 c -9.81,5.66 -13.16,18.2 -7.5,28.02 5.66,9.8 18.2,13.17 28.02,7.5 l 239.19,-138.09 c 9.81,-5.66 13.17,-18.2 7.5,-28.02 -3.8,-6.58 -10.69,-10.26 -17.78,-10.26"
         style="fill:#ca87a1;fill-opacity:1;fill-rule:nonzero;stroke:none"
         transform="matrix(0.13333333,0,0,-0.13333333,0,289.49333)" />
      <path
         id="path26"
         d="m 1249.87,1332.07 c -7.09,0 -13.99,3.68 -17.79,10.26 -5.66,9.81 -2.3,22.36 7.51,28.02 l 239.19,138.09 c 9.8,5.66 22.35,2.29 28.02,-7.51 5.67,-9.81 2.31,-22.36 -7.51,-28.02 L 1260.1,1334.82 c -3.23,-1.86 -6.75,-2.75 -10.23,-2.75"
         style="fill:#51aba5;fill-opacity:1;fill-rule:nonzero;stroke:none"
         transform="matrix(0.13333333,0,0,-0.13333333,0,289.49333)" />
      <path
         id="path27"
         d="m 2392.98,672.09 c -11.33,0 -20.51,9.191 -20.51,20.519 v 276.172 c 0,11.328 9.18,20.508 20.51,20.508 11.33,0 20.51,-9.18 20.51,-20.508 V 692.609 c 0,-11.328 -9.18,-20.519 -20.51,-20.519"
         style="fill:#447988;fill-opacity:1;fill-rule:nonzero;stroke:none"
         transform="matrix(0.13333333,0,0,-0.13333333,0,289.49333)" />
      <path
         id="path28"
         d="m 2717.26,859.309 c -3.48,0 -7.01,0.89 -10.23,2.761 l -239.19,138.08 c -9.82,5.67 -13.18,18.22 -7.51,28.02 5.66,9.82 18.22,13.17 28.01,7.51 l 239.19,-138.078 c 9.82,-5.672 13.18,-18.223 7.51,-28.024 -3.8,-6.578 -10.69,-10.269 -17.78,-10.269"
         style="fill:#4d83af;fill-opacity:1;fill-rule:nonzero;stroke:none"
         transform="matrix(0.13333333,0,0,-0.13333333,0,289.49333)" />
      <path
         id="path29"
         d="m 2392.97,1144.82 c -11.33,0 -20.51,9.19 -20.51,20.52 v 276.2 c 0,11.32 9.18,20.51 20.51,20.51 11.33,0 20.51,-9.19 20.51,-20.51 v -276.2 c 0,-11.33 -9.18,-20.52 -20.51,-20.52"
         style="fill:#51aba5;fill-opacity:1;fill-rule:nonzero;stroke:none"
         transform="matrix(0.13333333,0,0,-0.13333333,0,289.49333)" />
      <path
         id="path30"
         d="m 2478.11,1095.69 c -7.09,0 -13.98,3.68 -17.78,10.27 -5.67,9.8 -2.31,22.35 7.51,28.01 l 239.19,138.09 c 9.8,5.66 22.35,2.3 28.01,-7.51 5.67,-9.81 2.31,-22.35 -7.51,-28.02 l -239.19,-138.08 c -3.22,-1.87 -6.75,-2.76 -10.23,-2.76"
         style="fill:#51aba5;fill-opacity:1;fill-rule:nonzero;stroke:none"
         transform="matrix(0.13333333,0,0,-0.13333333,0,289.49333)" />
      <path
         id="path31"
         d="m 2717.25,1332.06 c -3.48,0 -7.01,0.89 -10.24,2.75 l -239.17,138.09 c -9.81,5.67 -13.17,18.21 -7.5,28.03 5.67,9.8 18.21,13.17 28.02,7.5 l 239.17,-138.09 c 9.81,-5.66 13.17,-18.21 7.5,-28.02 -3.8,-6.58 -10.69,-10.26 -17.78,-10.26"
         style="fill:#447988;fill-opacity:1;fill-rule:nonzero;stroke:none"
         transform="matrix(0.13333333,0,0,-0.13333333,0,289.49333)" />
      <path
         id="path32"
         d="m 2392.98,1617.59 c -11.33,0 -20.51,9.18 -20.51,20.52 v 276.17 c 0,11.33 9.18,20.51 20.51,20.51 11.33,0 20.51,-9.18 20.51,-20.51 v -276.17 c 0,-11.34 -9.18,-20.52 -20.51,-20.52"
         style="fill:#447988;fill-opacity:1;fill-rule:nonzero;stroke:none"
         transform="matrix(0.13333333,0,0,-0.13333333,0,289.49333)" />
      <path
         id="path33"
         d="m 1983.55,435.711 c -11.32,0 -20.51,9.187 -20.51,20.519 v 276.168 c 0,11.332 9.19,20.524 20.51,20.524 11.33,0 20.52,-9.192 20.52,-20.524 V 456.23 c 0,-11.332 -9.19,-20.519 -20.52,-20.519"
         style="fill:#51aba5;fill-opacity:1;fill-rule:nonzero;stroke:none"
         transform="matrix(0.13333333,0,0,-0.13333333,0,289.49333)" />
      <path
         id="path34"
         d="m 2478.11,1568.44 c -7.09,0 -13.98,3.68 -17.78,10.26 -5.67,9.82 -2.31,22.36 7.5,28.02 l 239.19,138.09 c 9.82,5.67 22.36,2.3 28.02,-7.5 5.67,-9.82 2.31,-22.36 -7.5,-28.02 L 2488.35,1571.2 c -3.23,-1.87 -6.76,-2.76 -10.24,-2.76"
         style="fill:#51aba5;fill-opacity:1;fill-rule:nonzero;stroke:none"
         transform="matrix(0.13333333,0,0,-0.13333333,0,289.49333)" />
      <path
         id="path35"
         d="m 2307.85,622.941 c -3.49,0 -7.01,0.887 -10.24,2.75 l -239.19,138.098 c -9.81,5.66 -13.17,18.211 -7.51,28.012 5.67,9.82 18.21,13.179 28.02,7.508 l 239.19,-138.09 c 9.81,-5.668 13.17,-18.207 7.51,-28.02 -3.8,-6.578 -10.69,-10.258 -17.78,-10.258"
         style="fill:#c0b621;fill-opacity:1;fill-rule:nonzero;stroke:none"
         transform="matrix(0.13333333,0,0,-0.13333333,0,289.49333)" />
      <path
         id="path36"
         d="m 1898.44,859.309 c -3.48,0 -7.01,0.89 -10.24,2.761 l -239.19,138.08 c -9.81,5.67 -13.17,18.22 -7.51,28.02 5.67,9.82 18.23,13.17 28.02,7.51 l 239.19,-138.078 c 9.81,-5.672 13.17,-18.223 7.51,-28.024 -3.8,-6.578 -10.69,-10.269 -17.78,-10.269"
         style="fill:#447988;fill-opacity:1;fill-rule:nonzero;stroke:none"
         transform="matrix(0.13333333,0,0,-0.13333333,0,289.49333)" />
      <path
         id="path37"
         d="m 1659.28,622.941 c -7.09,0 -13.99,3.68 -17.79,10.258 -5.66,9.813 -2.3,22.352 7.51,28.02 l 239.19,138.09 c 9.81,5.671 22.36,2.312 28.02,-7.508 5.66,-9.801 2.31,-22.352 -7.5,-28.012 L 1669.52,625.691 c -3.24,-1.863 -6.76,-2.75 -10.24,-2.75"
         style="fill:#ca87a1;fill-opacity:1;fill-rule:nonzero;stroke:none"
         transform="matrix(0.13333333,0,0,-0.13333333,0,289.49333)" />
      <path
         id="path38"
         d="m 1983.57,908.449 c -11.32,0 -20.51,9.18 -20.51,20.512 v 276.199 c 0,11.33 9.19,20.52 20.51,20.52 11.33,0 20.52,-9.19 20.52,-20.52 V 928.961 c 0,-11.332 -9.19,-20.512 -20.52,-20.512"
         style="fill:#51aba5;fill-opacity:1;fill-rule:nonzero;stroke:none"
         transform="matrix(0.13333333,0,0,-0.13333333,0,289.49333)" />
      <path
         id="path39"
         d="m 2068.69,859.309 c -7.09,0 -13.98,3.691 -17.78,10.269 -5.67,9.801 -2.31,22.352 7.51,28.024 l 239.19,138.078 c 9.8,5.66 22.35,2.31 28.01,-7.51 5.67,-9.8 2.31,-22.35 -7.51,-28.02 L 2078.93,862.07 c -3.23,-1.871 -6.76,-2.761 -10.24,-2.761"
         style="fill:#51aba5;fill-opacity:1;fill-rule:nonzero;stroke:none"
         transform="matrix(0.13333333,0,0,-0.13333333,0,289.49333)" />
      <path
         id="path40"
         d="m 2307.85,1095.69 c -3.49,0 -7.01,0.89 -10.24,2.76 l -239.19,138.08 c -9.81,5.67 -13.17,18.21 -7.51,28.02 5.67,9.81 18.22,13.17 28.02,7.51 l 239.19,-138.09 c 9.81,-5.66 13.17,-18.21 7.51,-28.01 -3.8,-6.59 -10.69,-10.27 -17.78,-10.27"
         style="fill:#ca87a1;fill-opacity:1;fill-rule:nonzero;stroke:none"
         transform="matrix(0.13333333,0,0,-0.13333333,0,289.49333)" />
      <path
         id="path41"
         d="m 1898.44,1332.07 c -3.48,0 -7.01,0.89 -10.24,2.75 l -239.19,138.09 c -9.81,5.66 -13.17,18.21 -7.51,28.02 5.67,9.8 18.23,13.17 28.02,7.51 l 239.19,-138.09 c 9.81,-5.66 13.17,-18.21 7.51,-28.02 -3.8,-6.58 -10.69,-10.26 -17.78,-10.26"
         style="fill:#447988;fill-opacity:1;fill-rule:nonzero;stroke:none"
         transform="matrix(0.13333333,0,0,-0.13333333,0,289.49333)" />
      <path
         id="path42"
         d="m 2068.69,1332.07 c -7.09,0 -13.98,3.68 -17.78,10.26 -5.67,9.81 -2.31,22.36 7.51,28.02 l 239.19,138.09 c 9.8,5.66 22.35,2.29 28.01,-7.51 5.67,-9.81 2.31,-22.36 -7.51,-28.02 l -239.18,-138.09 c -3.23,-1.86 -6.76,-2.75 -10.24,-2.75"
         style="fill:#c0b621;fill-opacity:1;fill-rule:nonzero;stroke:none"
         transform="matrix(0.13333333,0,0,-0.13333333,0,289.49333)" />
      <path
         id="path43"
         d="m 1983.56,1381.22 c -11.32,0 -20.51,9.18 -20.51,20.51 v 276.17 c 0,11.33 9.19,20.52 20.51,20.52 11.33,0 20.52,-9.19 20.52,-20.52 v -276.17 c 0,-11.33 -9.19,-20.51 -20.52,-20.51"
         style="fill:#51aba5;fill-opacity:1;fill-rule:nonzero;stroke:none"
         transform="matrix(0.13333333,0,0,-0.13333333,0,289.49333)" />
      <path
         id="path44"
         d="m 1983.56,1853.97 c -11.32,0 -20.51,9.18 -20.51,20.51 v 276.18 c 0,11.32 9.19,20.51 20.51,20.51 11.33,0 20.52,-9.19 20.52,-20.51 v -276.18 c 0,-11.33 -9.19,-20.51 -20.52,-20.51"
         style="fill:#c0b621;fill-opacity:1;fill-rule:nonzero;stroke:none"
         transform="matrix(0.13333333,0,0,-0.13333333,0,289.49333)" />
      <path
         id="path45"
         d="m 2307.85,1568.44 c -3.49,0 -7.01,0.89 -10.24,2.76 l -239.19,138.09 c -9.81,5.66 -13.17,18.2 -7.51,28.02 5.67,9.8 18.21,13.17 28.02,7.5 l 239.19,-138.09 c 9.81,-5.66 13.17,-18.2 7.51,-28.02 -3.8,-6.58 -10.69,-10.26 -17.78,-10.26"
         style="fill:#4d83af;fill-opacity:1;fill-rule:nonzero;stroke:none"
         transform="matrix(0.13333333,0,0,-0.13333333,0,289.49333)" />
      <path
         id="path46"
         d="m 1898.44,1804.82 c -3.48,0 -7.01,0.89 -10.24,2.75 l -239.19,138.09 c -9.81,5.66 -13.17,18.2 -7.51,28.02 5.67,9.81 18.23,13.16 28.02,7.5 l 239.19,-138.08 c 9.81,-5.67 13.17,-18.21 7.51,-28.02 -3.8,-6.58 -10.69,-10.26 -17.78,-10.26"
         style="fill:#51aba5;fill-opacity:1;fill-rule:nonzero;stroke:none"
         transform="matrix(0.13333333,0,0,-0.13333333,0,289.49333)" />
      <path
         id="path47"
         d="m 1659.28,1568.44 c -7.09,0 -13.99,3.68 -17.79,10.26 -5.66,9.82 -2.3,22.36 7.51,28.02 l 239.19,138.09 c 9.81,5.67 22.36,2.3 28.02,-7.5 5.66,-9.82 2.31,-22.36 -7.5,-28.02 L 1669.52,1571.2 c -3.24,-1.87 -6.76,-2.76 -10.24,-2.76"
         style="fill:#c0b621;fill-opacity:1;fill-rule:nonzero;stroke:none"
         transform="matrix(0.13333333,0,0,-0.13333333,0,289.49333)" />
      <path
         id="path48"
         d="m 2068.69,1804.82 c -7.09,0 -13.98,3.68 -17.78,10.26 -5.67,9.81 -2.31,22.35 7.51,28.02 l 239.19,138.08 c 9.8,5.66 22.35,2.31 28.01,-7.5 5.67,-9.82 2.31,-22.36 -7.51,-28.02 l -239.18,-138.09 c -3.23,-1.86 -6.76,-2.75 -10.24,-2.75"
         style="fill:#ca87a1;fill-opacity:1;fill-rule:nonzero;stroke:none"
         transform="matrix(0.13333333,0,0,-0.13333333,0,289.49333)" />
    </g>
  </g>
</svg>
