<?xml version="1.0" encoding="UTF-8" standalone="no"?>
<svg
   height="170.70935pt"
   version="1.1"
   width="568.29327pt"
   viewBox="0 0 568.29328 170.70935"
   id="svg48"
   sodipodi:docname="TCN_Logo.svg"
   inkscape:version="1.3.2 (091e20ef0f, 2023-11-25, custom)"
   xmlns:inkscape="http://www.inkscape.org/namespaces/inkscape"
   xmlns:sodipodi="http://sodipodi.sourceforge.net/DTD/sodipodi-0.dtd"
   xmlns="http://www.w3.org/2000/svg"
   xmlns:svg="http://www.w3.org/2000/svg">
  <sodipodi:namedview
     id="namedview48"
     pagecolor="#ffffff"
     bordercolor="#000000"
     borderopacity="0.25"
     inkscape:showpageshadow="2"
     inkscape:pageopacity="0.0"
     inkscape:pagecheckerboard="0"
     inkscape:deskcolor="#d1d1d1"
     inkscape:document-units="pt"
     inkscape:zoom="0.74862252"
     inkscape:cx="5.3431468"
     inkscape:cy="156.28704"
     inkscape:window-width="2560"
     inkscape:window-height="1354"
     inkscape:window-x="0"
     inkscape:window-y="0"
     inkscape:window-maximized="1"
     inkscape:current-layer="Background">
    <inkscape:page
       x="0"
       y="0"
       width="568.29327"
       height="170.70935"
       id="page48"
       margin="0 0 0"
       bleed="0" />
  </sodipodi:namedview>
  <defs
     id="defs1">
    <clipPath
       id="Clip0">
      <path
         d="M 0,0 H 572.93 V 173.546 H 0 Z"
         id="path1" />
    </clipPath>
  </defs>
  <g
     id="Background"
     inkscape:groupmode="layer"
     inkscape:label="Background"
     transform="translate(0,-0.25828689)">
    <g
       clip-path="url(#Clip0)"
       id="TCN_Logo_Primary_CMYK"
       style="fill:none;stroke:none"
       clip-rule="evenodd"
       transform="scale(0.984415,0.982311)">
      <path
         d="M 9.299,2.9668 V 21.7813 H 5.996 V 2.9668 H 0 V 0 H 15.296 V 2.9668 H 9.299"
         style="fill:#5e5b5c;fill-rule:nonzero;stroke:none"
         transform="translate(177.067,75.1522)"
         id="path2" />
      <path
         d="m 12.144,21.7813 v -9.5145 h -8.84 v 9.5145 H 0 V 0 h 3.304 v 9.3 h 8.84 V 0 h 3.304 v 21.7813 h -3.304"
         style="fill:#5e5b5c;fill-rule:nonzero;stroke:none"
         transform="translate(199.186,75.1522)"
         id="path3" />
      <path
         d="M 0,21.7813 V 0 H 13.919 V 2.9668 H 3.303 v 6.3633 h 9.055 v 2.9367 H 3.303 v 6.5477 h 10.616 v 2.9668 H 0"
         style="fill:#5e5b5c;fill-rule:nonzero;stroke:none"
         transform="translate(223.384,75.1522)"
         id="path4" />
      <path
         d="m 7.83102,22.1484 c -2.262,0 -4.22,-0.827 -5.72,-2.325 C -0.0299777,17.6808 2.22938e-5,15.2656 2.22938e-5,11.0734 2.22938e-5,6.8828 -0.0299777,4.4652 2.11102,2.3253 3.61102,0.8242 5.56902,0 7.83102,0 11.84,0 14.836,2.355 15.603,6.6976 H 12.237 C 11.717,4.4953 10.249,2.9668 7.83102,2.9668 c -1.283,0 -2.447,0.4898 -3.211,1.316 -1.071,1.1617 -1.316,2.4148 -1.316,6.7906 0,4.375 0.245,5.6289 1.316,6.7918 0.764,0.8273 1.928,1.3164 3.211,1.3164 2.41798,0 3.91598,-1.5313 4.43598,-3.7332 h 3.336 c -0.734,4.3445 -3.826,6.7 -7.77198,6.7"
         style="fill:#5e5b5c;fill-rule:nonzero;stroke:none"
         transform="translate(254.496,74.9687)"
         id="path5" />
      <path
         d="m 12.144,21.7813 v -9.5145 h -8.84 v 9.5145 H 0 V 0 h 3.304 v 9.3 h 8.84 V 0 h 3.304 v 21.7813 h -3.304"
         style="fill:#5e5b5c;fill-rule:nonzero;stroke:none"
         transform="translate(277.563,75.1522)"
         id="path6" />
      <path
         d="M 0,0 H 3.304 V 21.7804 H 0 V 0"
         style="fill:#5e5b5c;fill-rule:nonzero;stroke:none"
         transform="translate(301.762,75.1511)"
         id="path7" />
      <path
         d="m 7.83102,22.1484 c -2.263,0 -4.22,-0.827 -5.721,-2.325 C -0.0299777,17.6808 2.2314e-5,15.2656 2.2314e-5,11.0734 2.2314e-5,6.8828 -0.0299777,4.4652 2.11002,2.3253 3.61102,0.8242 5.56802,0 7.83102,0 11.84,0 14.836,2.355 15.602,6.6976 H 12.236 C 11.717,4.4953 10.249,2.9668 7.83102,2.9668 c -1.283,0 -2.447,0.4898 -3.211,1.316 -1.071,1.1617 -1.316,2.4148 -1.316,6.7906 0,4.375 0.245,5.6289 1.316,6.7918 0.764,0.8273 1.928,1.3164 3.211,1.3164 2.41798,0 3.91598,-1.5313 4.43498,-3.7332 h 3.336 c -0.734,4.3445 -3.825,6.7 -7.77098,6.7"
         style="fill:#5e5b5c;fill-rule:nonzero;stroke:none"
         transform="translate(313.019,74.9687)"
         id="path8" />
      <path
         d="m 13.827,19.6703 c -1.651,1.7433 -3.701,2.4777 -5.99598,2.4777 -2.263,0 -4.22,-0.8262 -5.721,-2.3254 C -0.0309754,17.6832 2.45537e-5,15.2652 2.45537e-5,11.0754 2.45537e-5,6.8824 -0.0309754,4.4672 2.11002,2.3246 3.61102,0.8265 5.50702,0 7.83102,0 12.451,0 15.143,3.0293 15.755,6.7601 H 12.421 C 11.869,4.375 10.278,2.9668 7.83102,2.9668 c -1.283,0 -2.448,0.5214 -3.211,1.3461 -1.071,1.1636 -1.317,2.3875 -1.317,6.7625 0,4.3722 0.246,5.6281 1.317,6.7902 0.763,0.8262 1.928,1.3156 3.211,1.3156 1.438,0 2.69198,-0.5519 3.54898,-1.5285 0.796,-0.9188 1.101,-2.0203 1.101,-3.4285 V 13.0004 H 7.83102 V 10.1859 H 15.785 v 3.3359 c 0,2.8145 -0.52,4.6184 -1.958,6.1485"
         style="fill:#5e5b5c;fill-rule:nonzero;stroke:none"
         transform="translate(356.858,74.9683)"
         id="path9" />
      <path
         d="M 13.368,21.7813 3.304,6.4532 V 21.7813 H 0 V 0 H 3.027 L 13.093,15.2961 V 0 h 3.304 v 21.7813 h -3.029"
         style="fill:#5e5b5c;fill-rule:nonzero;stroke:none"
         transform="translate(413.79,75.1522)"
         id="path10" />
      <path
         d="M 0,21.7813 V 0 H 13.92 V 2.9668 H 3.304 v 6.3633 h 9.055 v 2.9367 H 3.304 v 6.5477 H 13.92 v 2.9668 H 0"
         style="fill:#5e5b5c;fill-rule:nonzero;stroke:none"
         transform="translate(438.936,75.1522)"
         id="path11" />
      <path
         d="M 9.3,2.9668 V 21.7813 H 5.996 V 2.9668 H 0 V 0 H 15.296 V 2.9668 H 9.3"
         style="fill:#5e5b5c;fill-rule:nonzero;stroke:none"
         transform="translate(458.516,75.1522)"
         id="path12" />
      <path
         d="M 20.282,21.7813 H 17.406 L 12.971,6.5157 8.566,21.7813 H 5.691 L 0,0 H 3.486 L 7.282,15.5704 11.655,0 h 2.662 L 18.692,15.5704 22.485,0 h 3.489 l -5.692,21.7813"
         style="fill:#5e5b5c;fill-rule:nonzero;stroke:none"
         transform="translate(478.126,75.1522)"
         id="path13" />
      <path
         d="M 5.996,14.5918 9.393,4.925 12.696,14.5918 Z M 10.646,0 H 7.984 L 0,21.7813 h 3.519 l 1.499,-4.375 h 8.597 l 1.498,4.375 h 3.519 z"
         style="fill:#5e5b5c;fill-rule:nonzero;stroke:none"
         transform="translate(333.178,75.1522)"
         id="path14" />
      <path
         d="m 11.073,17.8359 c -0.765,0.8242 -1.95798,1.3457 -3.24198,1.3457 -1.286,0 -2.48,-0.5215 -3.244,-1.3457 -1.069,-1.1641 -1.284,-2.3875 -1.284,-6.7625 0,-4.3758 0.215,-5.5992 1.284,-6.7606 0.764,-0.8265 1.958,-1.346 3.244,-1.346 1.284,0 2.47698,0.5195 3.24198,1.346 1.07,1.1614 1.285,2.3848 1.285,6.7606 0,4.375 -0.215,5.5984 -1.285,6.7625 z M 13.582,2.3253 C 12.084,0.8242 10.156,0 7.83102,0 5.50702,0 3.60802,0.8242 2.11002,2.3253 -0.0309754,4.4652 2.45537e-5,6.8828 2.45537e-5,11.0734 c 0,4.1922 -0.0309999537,6.6074 2.1099954463,8.75 1.498,1.498 3.397,2.325 5.721,2.325 2.32498,0 4.25298,-0.827 5.75098,-2.325 2.142,-2.1426 2.081,-4.5578 2.081,-8.75 0,-4.1906 0.061,-6.6082 -2.081,-8.7481 z"
         style="fill:#5e5b5c;fill-rule:nonzero;stroke:none"
         transform="translate(379.772,74.9687)"
         id="path15" />
      <path
         d="m 11.073,17.8359 c -0.765,0.8242 -1.95798,1.3457 -3.24098,1.3457 -1.286,0 -2.48,-0.5215 -3.244,-1.3457 -1.07,-1.1641 -1.284,-2.3875 -1.284,-6.7625 0,-4.3758 0.214,-5.5992 1.284,-6.7606 0.764,-0.8265 1.958,-1.346 3.244,-1.346 1.283,0 2.47598,0.5195 3.24098,1.346 1.071,1.1614 1.286,2.3848 1.286,6.7606 0,4.375 -0.215,5.5984 -1.286,6.7625 z M 7.83202,0 c -2.326,0 -4.223,0.8242 -5.722,2.3253 C -0.0299777,4.4652 2.2314e-5,6.8828 2.2314e-5,11.0734 c 0,4.1922 -0.030000014,6.6074 2.109997686,8.75 1.499,1.498 3.396,2.325 5.722,2.325 2.32398,0 4.25198,-0.827 5.75098,-2.325 2.142,-2.1426 2.08,-4.5578 2.08,-8.75 0,-4.1906 0.062,-6.6082 -2.08,-8.7481 C 12.084,0.8242 10.156,0 7.83202,0 Z"
         style="fill:#5e5b5c;fill-rule:nonzero;stroke:none"
         transform="translate(509.238,74.9687)"
         id="path16" />
      <path
         d="M 3.303,9.7891 V 2.9668 h 4.895 c 2.202,0 3.7,1.2836 3.7,3.4262 0,2.1403 -1.498,3.3961 -3.7,3.3961 z m 7.554,2.3551 C 13.307,11.4727 15.203,9.4825 15.203,6.3633 15.203,2.6598 12.57,0 8.442,0 H 0 v 21.7813 h 3.303 v -9.1777 h 4.13 l 4.588,9.1777 h 3.854 z"
         style="fill:#5e5b5c;fill-rule:nonzero;stroke:none"
         transform="translate(532.857,75.1522)"
         id="path17" />
      <path
         d="M 12.208,0 3.303,10.9527 V 0 H 0 v 21.7828 h 3.303 v -6.3352 l 3.674,-4.4027 6.115,10.7379 h 3.886 L 9.179,8.5355 16.247,0 h -4.039"
         style="fill:#5e5b5c;fill-rule:nonzero;stroke:none"
         transform="translate(555.951,75.1519)"
         id="path18" />
      <path
         d="M 2.0511,31.7203 C 0.9183,31.7203 0,30.8012 0,29.6684 V 2.0512 C 0,0.9184 0.9183,0 2.0511,0 3.184,0 4.1023,0.9184 4.1023,2.0512 v 27.6172 c 0,1.1328 -0.9183,2.0519 -2.0512,2.0519"
         style="fill:#44a4a6;fill-rule:nonzero;stroke:none"
         transform="translate(32.4307,118.188)"
         id="path19" />
      <path
         d="m 25.9678,17.912 c -0.3481,0 -0.7004,-0.0891 -1.0235,-0.2758 L 1.02559,3.82797 C 0.04473,3.26157 -0.291208,2.00647 0.275198,1.02597 0.841605,0.0447662 2.09669,-0.291234 3.07676,0.275166 L 26.9955,14.0838 c 0.9812,0.566 1.3172,1.8211 0.7508,2.8012 -0.3797,0.659 -1.0696,1.027 -1.7785,1.027"
         style="fill:#4683ac;fill-rule:nonzero;stroke:none"
         transform="translate(7.53156e-4,89.636)"
         id="path20" />
      <path
         d="M 2.05369,17.9119 C 1.3447,17.9119 0.655249,17.5432 0.275171,16.885 -0.291235,15.9049 0.0447019,14.6502 1.02634,14.083 L 24.9451,0.275163 c 0.9801,-0.566 2.2352,-0.2312 2.802,0.750797 0.5664,0.9801 0.2304,2.2352 -0.7508,2.802 L 3.07712,17.6362 c -0.32265,0.1871 -0.67539,0.2757 -1.02343,0.2757"
         style="fill:#ceb719;fill-rule:nonzero;stroke:none"
         transform="translate(0,113.274)"
         id="path21" />
      <path
         d="M 2.0515,31.7231 C 0.9187,31.7231 0,30.8039 0,29.6711 V 2.052 C 0,0.919 0.9187,0 2.0515,0 3.1843,0 4.1027,0.919 4.1027,2.052 v 27.6191 c 0,1.1328 -0.9184,2.052 -2.0512,2.052"
         style="fill:#44a4a6;fill-rule:nonzero;stroke:none"
         transform="translate(32.4315,70.912)"
         id="path22" />
      <path
         d="m 2.05367,17.912 c -0.709,0 -1.398396,-0.368 -1.778496,-1.027 -0.5664,-0.9801 -0.2305003,-2.2352 0.751196,-2.8012 L 24.9451,0.275166 c 0.9797,-0.5664 2.2356,-0.2303998 2.802,0.750804 0.5664,0.9805 0.2305,2.2356 -0.7512,2.802 L 3.07717,17.6362 c -0.3231,0.1867 -0.6754,0.2758 -1.0235,0.2758"
         style="fill:#44a4a6;fill-rule:nonzero;stroke:none"
         transform="translate(40.941,89.636)"
         id="path23" />
      <path
         d="M 2.0511,31.72 C 0.9183,31.72 0,30.801 0,29.669 V 2.051 C 0,0.918 0.9183,0 2.0511,0 3.184,0 4.1023,0.918 4.1023,2.051 v 27.618 c 0,1.132 -0.9183,2.051 -2.0512,2.051"
         style="fill:#4683ac;fill-rule:nonzero;stroke:none"
         transform="translate(32.4307,23.638)"
         id="path24" />
      <path
         d="m 25.9678,17.9124 c -0.3481,0 -0.7004,-0.089 -1.0239,-0.275 L 1.02559,3.82837 C 0.04473,3.26137 -0.291208,2.00737 0.275198,1.02537 0.841605,0.0453741 2.09551,-0.291626 3.07715,0.275374 L 26.9959,14.0844 c 0.9808,0.566 1.3168,1.821 0.7504,2.802 -0.3797,0.658 -1.0696,1.026 -1.7785,1.026"
         style="fill:#cf99a7;fill-rule:nonzero;stroke:none"
         transform="translate(7.53156e-4,42.3606)"
         id="path25" />
      <path
         d="m 2.05369,17.9117 c -0.70899,0 -1.398441,-0.368 -1.778519,-1.0262 -0.566406,-0.9813 -0.2304691,-2.2356 0.751169,-2.802 L 24.9451,0.27464 c 0.9801,-0.566 2.2352,-0.2289995 2.802,0.752 0.5664,0.98 0.2304,2.235 -0.7508,2.801 L 3.07712,17.6363 C 2.75447,17.823 2.40173,17.9117 2.05369,17.9117"
         style="fill:#44a4a6;fill-rule:nonzero;stroke:none"
         transform="translate(0,65.9984)"
         id="path26" />
      <path
         d="M 2.052,31.7203 C 0.919,31.7203 0,30.8012 0,29.6684 V 2.0512 C 0,0.9184 0.919,0 2.052,0 3.184,0 4.103,0.9184 4.103,2.0512 v 27.6172 c 0,1.1328 -0.919,2.0519 -2.051,2.0519"
         style="fill:#40798a;fill-rule:nonzero;stroke:none"
         transform="translate(114.313,118.188)"
         id="path27" />
      <path
         d="m 25.9689,17.9119 c -0.348,0 -0.701,-0.0886 -1.024,-0.2757 L 1.02589,3.82796 C 0.044894,3.26116 -0.291106,2.00606 0.274894,1.02596 0.841894,0.043963 2.09789,-0.290837 3.07689,0.275163 L 26.9959,14.083 c 0.982,0.5672 1.317,1.8219 0.751,2.802 -0.38,0.6582 -1.069,1.0269 -1.778,1.0269"
         style="fill:#4683ac;fill-rule:nonzero;stroke:none"
         transform="translate(122.824,113.274)"
         id="path28" />
      <path
         d="M 2.052,31.7231 C 0.919,31.7231 0,30.8039 0,29.6711 V 2.052 C 0,0.919 0.919,0 2.052,0 3.184,0 4.103,0.919 4.103,2.052 v 27.6191 c 0,1.1328 -0.919,2.052 -2.051,2.052"
         style="fill:#44a4a6;fill-rule:nonzero;stroke:none"
         transform="translate(114.312,70.912)"
         id="path29" />
      <path
         d="m 2.05389,17.912 c -0.709,0 -1.398996,-0.368 -1.778996,-1.027 -0.566,-0.9801 -0.23,-2.2352 0.750996,-2.8012 L 24.9449,0.275166 c 0.98,-0.5664 2.236,-0.2303998 2.802,0.750804 0.566,0.9805 0.231,2.2356 -0.751,2.802 L 3.07689,17.6362 c -0.323,0.1867 -0.675,0.2758 -1.023,0.2758"
         style="fill:#44a4a6;fill-rule:nonzero;stroke:none"
         transform="translate(122.824,89.636)"
         id="path30" />
      <path
         d="m 25.9669,17.9125 c -0.348,0 -0.701,-0.089 -1.024,-0.2754 L 1.02589,3.82834 C 0.044894,3.26134 -0.291106,2.00734 0.274894,1.02634 0.841894,0.0453384 2.09689,-0.291662 3.07789,0.275338 L 26.9949,14.0844 c 0.981,0.5664 1.317,1.8207 0.75,2.8024 -0.38,0.6574 -1.069,1.0257 -1.778,1.0257"
         style="fill:#40798a;fill-rule:nonzero;stroke:none"
         transform="translate(122.825,65.9987)"
         id="path31" />
      <path
         d="M 2.052,31.72 C 0.919,31.72 0,30.801 0,29.669 V 2.051 C 0,0.918 0.919,0 2.052,0 3.184,0 4.103,0.918 4.103,2.051 v 27.618 c 0,1.132 -0.919,2.051 -2.051,2.051"
         style="fill:#40798a;fill-rule:nonzero;stroke:none"
         transform="translate(114.313,23.638)"
         id="path32" />
      <path
         d="M 2.0512,31.7211 C 0.9184,31.7211 0,30.802 0,29.6692 V 2.052 C 0,0.9191 0.9184,0 2.0512,0 3.184,0 4.1023,0.9191 4.1023,2.052 v 27.6172 c 0,1.1328 -0.9183,2.0519 -2.0511,2.0519"
         style="fill:#44a4a6;fill-rule:nonzero;stroke:none"
         transform="translate(73.3713,141.825)"
         id="path33" />
      <path
         d="m 2.05389,17.9124 c -0.709,0 -1.398996,-0.368 -1.778996,-1.026 -0.566,-0.981 -0.23,-2.236 0.750996,-2.802 L 24.9449,0.275374 c 0.982,-0.567 2.236,-0.2299999 2.802,0.749996 0.566,0.982 0.231,2.236 -0.75,2.803 L 3.07789,17.6374 c -0.324,0.186 -0.676,0.275 -1.024,0.275"
         style="fill:#44a4a6;fill-rule:nonzero;stroke:none"
         transform="translate(122.824,42.3606)"
         id="path34" />
      <path
         d="m 25.9682,17.9126 c -0.348,0 -0.7,-0.0891 -1.024,-0.275 L 1.02581,3.82782 c -0.9812998,-0.566 -1.3168,-1.8211 -0.7508,-2.8012 0.5664,-0.9820031 1.8203,-1.318003 2.8024,-0.751203 L 26.9962,14.0844 c 0.981,0.5672 1.317,1.8211 0.751,2.8024 -0.38,0.6578 -1.07,1.0258 -1.779,1.0258"
         style="fill:#ceb719;fill-rule:nonzero;stroke:none"
         transform="translate(81.883,136.91)"
         id="path35" />
      <path
         d="m 25.9685,17.9119 c -0.348,0 -0.7007,-0.0886 -1.0234,-0.2757 L 1.02599,3.82796 C 0.044688,3.26116 -0.291212,2.00606 0.275188,1.02596 0.841588,0.043963 2.09749,-0.290837 3.07679,0.275163 L 26.9959,14.083 c 0.9812,0.5672 1.3172,1.8219 0.7508,2.802 -0.3797,0.6582 -1.0692,1.0269 -1.7782,1.0269"
         style="fill:#40798a;fill-rule:nonzero;stroke:none"
         transform="translate(40.9422,113.274)"
         id="path36" />
      <path
         d="m 2.0537,17.9126 c -0.709,0 -1.398398,-0.368 -1.778498,-1.0258 -0.5664,-0.9813 -0.2304997,-2.2352 0.750398,-2.8024 L 24.9447,0.275417 c 0.9817,-0.5668 2.236,-0.2308001 2.8024,0.751203 0.5664,0.9801 0.2305,2.2352 -0.7504,2.8012 L 3.0776,17.6376 c -0.3235,0.1859 -0.6758,0.275 -1.0239,0.275"
         style="fill:#cf99a7;fill-rule:nonzero;stroke:none"
         transform="translate(40.941,136.91)"
         id="path37" />
      <path
         d="M 2.0515,31.7235 C 0.9187,31.7235 0,30.8051 0,29.6723 V 2.052 C 0,0.9192 0.9187,0 2.0515,0 3.1843,0 4.1027,0.9192 4.1027,2.052 v 27.6203 c 0,1.1328 -0.9184,2.0512 -2.0512,2.0512"
         style="fill:#44a4a6;fill-rule:nonzero;stroke:none"
         transform="translate(73.3729,94.5487)"
         id="path38" />
      <path
         d="m 2.05365,17.9119 c -0.7089,0 -1.398398,-0.3687 -1.778498,-1.0269 -0.5664,-0.9801 -0.2304001,-2.2348 0.751198,-2.802 L 24.9448,0.275163 c 0.98,-0.566 2.235,-0.2312 2.802,0.750797 0.567,0.9801 0.231,2.2352 -0.751,2.802 L 3.07715,17.6362 c -0.3231,0.1871 -0.6754,0.2757 -1.0235,0.2757"
         style="fill:#44a4a6;fill-rule:nonzero;stroke:none"
         transform="translate(81.8824,113.274)"
         id="path39" />
      <path
         d="m 25.9682,17.912 c -0.348,0 -0.7,-0.0891 -1.023,-0.2758 L 1.0262,3.82797 C 0.044496,3.26157 -0.291004,2.00647 0.274996,1.02597 0.841396,0.0447662 2.0969,-0.291234 3.077,0.275166 L 26.9962,14.0838 c 0.981,0.566 1.317,1.8211 0.751,2.8012 -0.38,0.659 -1.07,1.027 -1.779,1.027"
         style="fill:#cf99a7;fill-rule:nonzero;stroke:none"
         transform="translate(81.883,89.636)"
         id="path40" />
      <path
         d="m 25.9685,17.9117 c -0.348,0 -0.7007,-0.0887 -1.0234,-0.2754 L 1.02599,3.82764 c -0.981302,-0.566 -1.317202,-1.821 -0.750802,-2.801 0.5664,-0.9809995 1.822302,-1.318 2.801602,-0.752 L 26.9959,14.0835 c 0.9812,0.5664 1.3172,1.8207 0.7508,2.802 -0.3797,0.6582 -1.0692,1.0262 -1.7782,1.0262"
         style="fill:#40798a;fill-rule:nonzero;stroke:none"
         transform="translate(40.9422,65.9984)"
         id="path41" />
      <path
         d="m 2.05365,17.9117 c -0.7089,0 -1.398398,-0.368 -1.778498,-1.0262 -0.5664,-0.9813 -0.2304001,-2.2356 0.751198,-2.802 L 24.9448,0.27464 c 0.98,-0.566 2.235,-0.2289995 2.802,0.752 0.567,0.98 0.231,2.235 -0.751,2.801 L 3.07715,17.6363 c -0.3231,0.1867 -0.6754,0.2754 -1.0235,0.2754"
         style="fill:#ceb719;fill-rule:nonzero;stroke:none"
         transform="translate(81.8824,65.9984)"
         id="path42" />
      <path
         d="M 2.0511,31.7202 C 0.9183,31.7202 0,30.8019 0,29.6687 V 2.052 C 0,0.919 0.9183,0 2.0511,0 3.184,0 4.1023,0.919 4.1023,2.052 v 27.6167 c 0,1.1332 -0.9183,2.0515 -2.0512,2.0515"
         style="fill:#44a4a6;fill-rule:nonzero;stroke:none"
         transform="translate(73.3721,47.275)"
         id="path43" />
      <path
         d="M 2.0511,31.72 C 0.9183,31.72 0,30.802 0,29.669 V 2.051 C 0,0.918 0.9183,0 2.0511,0 3.184,0 4.1023,0.918 4.1023,2.051 v 27.618 c 0,1.133 -0.9183,2.051 -2.0512,2.051"
         style="fill:#ceb719;fill-rule:nonzero;stroke:none"
         transform="translate(73.3721)"
         id="path44" />
      <path
         d="m 25.9682,17.9124 c -0.348,0 -0.7,-0.089 -1.024,-0.275 L 1.02581,3.82837 c -0.9812998,-0.567 -1.3168,-1.821 -0.7508,-2.803 0.5664,-0.9799959 1.8203,-1.316996 2.8024,-0.749996 L 26.9962,14.0844 c 0.981,0.566 1.317,1.821 0.751,2.802 -0.38,0.658 -1.07,1.026 -1.779,1.026"
         style="fill:#4683ac;fill-rule:nonzero;stroke:none"
         transform="translate(81.883,42.3606)"
         id="path45" />
      <path
         d="m 25.9685,17.9114 c -0.348,0 -0.7007,-0.089 -1.0234,-0.275 L 1.02599,3.82741 C 0.044688,3.26141 -0.291212,2.00641 0.275188,1.02641 0.841588,0.044414 2.09749,-0.290586 3.07679,0.274414 L 26.9959,14.0834 c 0.9812,0.566 1.3172,1.821 0.7508,2.802 -0.3797,0.658 -1.0692,1.026 -1.7782,1.026"
         style="fill:#44a4a6;fill-rule:nonzero;stroke:none"
         transform="translate(40.9422,18.7236)"
         id="path46" />
      <path
         d="m 2.0537,17.9124 c -0.709,0 -1.398398,-0.368 -1.778498,-1.026 -0.5664,-0.981 -0.2304997,-2.236 0.750398,-2.802 L 24.9447,0.275374 c 0.9817,-0.567 2.236,-0.2299999 2.8024,0.749996 0.5664,0.982 0.2305,2.236 -0.7504,2.803 L 3.0776,17.6374 c -0.3235,0.186 -0.6758,0.275 -1.0239,0.275"
         style="fill:#ceb719;fill-rule:nonzero;stroke:none"
         transform="translate(40.941,42.3606)"
         id="path47" />
      <path
         d="m 2.05365,17.9114 c -0.7089,0 -1.398398,-0.368 -1.778498,-1.026 -0.5664,-0.981 -0.2304001,-2.236 0.751198,-2.802 L 24.9448,0.274414 c 0.98,-0.565 2.235,-0.23 2.802,0.751996 0.567,0.98 0.231,2.235 -0.751,2.801 L 3.07715,17.6364 c -0.3231,0.186 -0.6754,0.275 -1.0235,0.275"
         style="fill:#cf99a7;fill-rule:nonzero;stroke:none"
         transform="translate(81.8824,18.7236)"
         id="path48" />
    </g>
  </g>
</svg>
