<?xml version="1.0" encoding="utf-8"?>
<!-- Generator: Adobe Illustrator 24.1.1, SVG Export Plug-In . SVG Version: 6.00 Build 0)  -->
<svg version="1.1" id="Layer_1" xmlns="http://www.w3.org/2000/svg" xmlns:xlink="http://www.w3.org/1999/xlink" x="0px" y="0px"
	 viewBox="0 0 368.29 171.77" style="enable-background:new 0 0 368.29 171.77;" xml:space="preserve">
<style type="text/css">
	.st0{fill:#FFFFFF;}
</style>
<g>
	<g>
		<polygon class="st0" points="145.25,84.37 145.25,92.65 143.8,92.65 143.8,84.37 141.16,84.37 141.16,83.06 147.89,83.06 
			147.89,84.37 		"/>
		<polygon class="st0" points="156.23,92.65 156.23,88.46 152.34,88.46 152.34,92.65 150.89,92.65 150.89,83.06 152.34,83.06 
			152.34,87.15 156.23,87.15 156.23,83.06 157.69,83.06 157.69,92.65 		"/>
		<polygon class="st0" points="161.54,92.65 161.54,83.06 167.66,83.06 167.66,84.37 162.99,84.37 162.99,87.17 166.97,87.17 
			166.97,88.46 162.99,88.46 162.99,91.34 167.66,91.34 167.66,92.65 		"/>
		<path class="st0" d="M178.67,92.73c-1,0-1.86-0.36-2.52-1.02c-0.94-0.94-0.93-2.01-0.93-3.85c0-1.84-0.01-2.91,0.93-3.85
			c0.66-0.66,1.52-1.02,2.52-1.02c1.76,0,3.08,1.04,3.42,2.95h-1.48c-0.23-0.97-0.87-1.64-1.94-1.64c-0.56,0-1.08,0.22-1.41,0.58
			c-0.47,0.51-0.58,1.06-0.58,2.99s0.11,2.48,0.58,2.99c0.34,0.36,0.85,0.58,1.41,0.58c1.06,0,1.72-0.67,1.95-1.64h1.47
			C181.77,91.69,180.41,92.73,178.67,92.73"/>
		<polygon class="st0" points="190.72,92.65 190.72,88.46 186.83,88.46 186.83,92.65 185.37,92.65 185.37,83.06 186.83,83.06 
			186.83,87.15 190.72,87.15 190.72,83.06 192.17,83.06 192.17,92.65 		"/>
		<rect x="196.02" y="83.06" class="st0" width="1.45" height="9.58"/>
		<path class="st0" d="M204.42,92.73c-1,0-1.86-0.36-2.52-1.02c-0.94-0.94-0.93-2.01-0.93-3.85c0-1.84-0.01-2.91,0.93-3.85
			c0.66-0.66,1.52-1.02,2.52-1.02c1.76,0,3.08,1.04,3.42,2.95h-1.48c-0.23-0.97-0.87-1.64-1.94-1.64c-0.56,0-1.08,0.22-1.41,0.58
			c-0.47,0.51-0.58,1.06-0.58,2.99s0.11,2.48,0.58,2.99c0.34,0.36,0.85,0.58,1.41,0.58c1.06,0,1.72-0.67,1.95-1.64h1.47
			C207.52,91.69,206.16,92.73,204.42,92.73"/>
		<path class="st0" d="M226.35,91.64c-0.73,0.77-1.63,1.09-2.64,1.09c-1,0-1.86-0.36-2.52-1.02c-0.94-0.94-0.93-2.01-0.93-3.85
			c0-1.84-0.01-2.91,0.93-3.85c0.66-0.66,1.49-1.02,2.52-1.02c2.03,0,3.22,1.33,3.49,2.97h-1.47c-0.24-1.05-0.94-1.67-2.02-1.67
			c-0.56,0-1.08,0.23-1.41,0.59c-0.47,0.51-0.58,1.05-0.58,2.98c0,1.92,0.11,2.48,0.58,2.99c0.34,0.36,0.85,0.58,1.41,0.58
			c0.63,0,1.18-0.24,1.56-0.67c0.35-0.4,0.48-0.89,0.48-1.51V88.7h-2.05v-1.24h3.5v1.47C227.21,90.17,226.98,90.96,226.35,91.64"/>
		<polygon class="st0" points="251.19,92.65 246.77,85.9 246.77,92.65 245.31,92.65 245.31,83.06 246.64,83.06 251.07,89.79 
			251.07,83.06 252.53,83.06 252.53,92.65 		"/>
		<polygon class="st0" points="256.38,92.65 256.38,83.06 262.5,83.06 262.5,84.37 257.83,84.37 257.83,87.17 261.81,87.17 
			261.81,88.46 257.83,88.46 257.83,91.34 262.5,91.34 262.5,92.65 		"/>
		<polygon class="st0" points="269.08,84.37 269.08,92.65 267.63,92.65 267.63,84.37 264.99,84.37 264.99,83.06 271.72,83.06 
			271.72,84.37 		"/>
		<polygon class="st0" points="282.54,92.65 281.28,92.65 279.33,85.93 277.39,92.65 276.12,92.65 273.62,83.06 275.15,83.06 
			276.82,89.91 278.75,83.06 279.92,83.06 281.84,89.91 283.51,83.06 285.05,83.06 		"/>
		<path class="st0" d="M214.53,83.06h-1.17l-3.51,9.58h1.55l0.66-1.92h3.78l0.66,1.92h1.55L214.53,83.06z M212.48,89.48l1.49-4.25
			l1.45,4.25H212.48z"/>
		<path class="st0" d="M236.32,84c-0.66-0.66-1.51-1.02-2.53-1.02c-1.02,0-1.86,0.36-2.52,1.02c-0.94,0.94-0.93,2.01-0.93,3.85
			c0,1.84-0.01,2.91,0.93,3.85c0.66,0.66,1.49,1.02,2.52,1.02c1.02,0,1.87-0.36,2.53-1.02c0.94-0.94,0.92-2.01,0.92-3.85
			C237.24,86.01,237.26,84.95,236.32,84z M235.22,90.83c-0.34,0.36-0.86,0.59-1.43,0.59c-0.57,0-1.09-0.23-1.43-0.59
			c-0.47-0.51-0.56-1.05-0.56-2.98c0-1.92,0.09-2.46,0.56-2.97c0.34-0.36,0.86-0.59,1.43-0.59c0.56,0,1.09,0.23,1.43,0.59
			c0.47,0.51,0.57,1.05,0.57,2.97C235.78,89.78,235.69,90.32,235.22,90.83z"/>
		<path class="st0" d="M290.75,82.98c-1.02,0-1.86,0.36-2.52,1.02c-0.94,0.94-0.93,2.01-0.93,3.85c0,1.84-0.01,2.91,0.93,3.85
			c0.66,0.66,1.49,1.02,2.52,1.02c1.02,0,1.87-0.36,2.53-1.02c0.94-0.94,0.92-2.01,0.92-3.85c0-1.84,0.03-2.91-0.92-3.85
			C292.62,83.34,291.78,82.98,290.75,82.98z M292.18,90.83c-0.34,0.36-0.86,0.59-1.43,0.59c-0.57,0-1.09-0.23-1.43-0.59
			c-0.47-0.51-0.56-1.05-0.56-2.98c0-1.92,0.09-2.46,0.56-2.97c0.34-0.36,0.86-0.59,1.43-0.59c0.56,0,1.09,0.23,1.43,0.59
			c0.47,0.51,0.57,1.05,0.57,2.97C292.75,89.78,292.65,90.32,292.18,90.83z"/>
		<path class="st0" d="M302.48,88.41c1.08-0.3,1.91-1.17,1.91-2.54c0-1.63-1.16-2.8-2.97-2.8h-3.71v9.58h1.45v-4.04h1.82l2.02,4.04
			h1.7L302.48,88.41z M299.15,87.37v-3h2.15c0.97,0,1.63,0.56,1.63,1.51c0,0.94-0.66,1.49-1.63,1.49H299.15z"/>
		<polygon class="st0" points="313.23,83.06 309.31,87.88 309.31,83.06 307.86,83.06 307.86,92.65 309.31,92.65 309.31,89.86 
			310.93,87.92 313.62,92.65 315.33,92.65 311.9,86.82 315.01,83.06 		"/>
	</g>
	<path class="st0" d="M78.42,115.95c-0.5,0-0.9-0.4-0.9-0.9V102.9c0-0.5,0.4-0.9,0.9-0.9s0.9,0.4,0.9,0.9v12.15
		C79.33,115.55,78.92,115.95,78.42,115.95z"/>
	<path class="st0" d="M74.68,97.32c-0.15,0-0.31-0.04-0.45-0.12L63.7,91.12c-0.43-0.25-0.58-0.8-0.33-1.23
		c0.25-0.43,0.8-0.58,1.23-0.33l10.52,6.08c0.43,0.25,0.58,0.8,0.33,1.23C75.29,97.15,74.99,97.32,74.68,97.32z"/>
	<path class="st0" d="M64.16,107.72c-0.31,0-0.62-0.16-0.78-0.45c-0.25-0.43-0.1-0.98,0.33-1.23l10.52-6.08
		c0.43-0.25,0.98-0.1,1.23,0.33c0.25,0.43,0.1,0.98-0.33,1.23l-10.52,6.08C64.46,107.68,64.31,107.72,64.16,107.72z"/>
	<path class="st0" d="M78.42,95.15c-0.5,0-0.9-0.4-0.9-0.9V82.1c0-0.5,0.4-0.9,0.9-0.9c0.5,0,0.9,0.4,0.9,0.9v12.15
		C79.33,94.75,78.92,95.15,78.42,95.15z"/>
	<path class="st0" d="M82.17,97.32c-0.31,0-0.62-0.16-0.78-0.45c-0.25-0.43-0.1-0.98,0.33-1.23l10.52-6.08
		c0.43-0.25,0.98-0.1,1.23,0.33c0.25,0.43,0.1,0.98-0.33,1.23l-10.52,6.08C82.48,97.28,82.32,97.32,82.17,97.32z"/>
	<path class="st0" d="M78.42,74.35c-0.5,0-0.9-0.4-0.9-0.9V61.3c0-0.5,0.4-0.9,0.9-0.9s0.9,0.4,0.9,0.9v12.15
		C79.33,73.95,78.92,74.35,78.42,74.35z"/>
	<path class="st0" d="M74.68,76.52c-0.15,0-0.31-0.04-0.45-0.12L63.7,70.32c-0.43-0.25-0.58-0.8-0.33-1.23
		c0.25-0.43,0.8-0.58,1.23-0.33l10.52,6.08c0.43,0.25,0.58,0.8,0.33,1.23C75.29,76.35,74.99,76.52,74.68,76.52z"/>
	<path class="st0" d="M64.16,86.92c-0.31,0-0.62-0.16-0.78-0.45c-0.25-0.43-0.1-0.98,0.33-1.23l10.52-6.08
		c0.43-0.25,0.98-0.1,1.23,0.33c0.25,0.43,0.1,0.98-0.33,1.23l-10.52,6.08C64.46,86.88,64.31,86.92,64.16,86.92z"/>
	<path class="st0" d="M114.45,115.95c-0.5,0-0.9-0.4-0.9-0.9V102.9c0-0.5,0.4-0.9,0.9-0.9s0.9,0.4,0.9,0.9v12.15
		C115.35,115.55,114.95,115.95,114.45,115.95z"/>
	<path class="st0" d="M128.72,107.72c-0.15,0-0.31-0.04-0.45-0.12l-10.52-6.08c-0.43-0.25-0.58-0.8-0.33-1.23
		c0.25-0.43,0.8-0.58,1.23-0.33l10.52,6.08c0.43,0.25,0.58,0.8,0.33,1.23C129.33,107.55,129.03,107.72,128.72,107.72z"/>
	<path class="st0" d="M114.45,95.15c-0.5,0-0.9-0.4-0.9-0.9V82.1c0-0.5,0.4-0.9,0.9-0.9c0.5,0,0.9,0.4,0.9,0.9v12.15
		C115.35,94.75,114.95,95.15,114.45,95.15z"/>
	<path class="st0" d="M118.2,97.32c-0.31,0-0.62-0.16-0.78-0.45c-0.25-0.43-0.1-0.98,0.33-1.23l10.52-6.08
		c0.43-0.25,0.98-0.1,1.23,0.33c0.25,0.43,0.1,0.98-0.33,1.23l-10.52,6.08C118.5,97.28,118.35,97.32,118.2,97.32z"/>
	<path class="st0" d="M128.72,86.92c-0.15,0-0.31-0.04-0.45-0.12l-10.52-6.08c-0.43-0.25-0.58-0.8-0.33-1.23
		c0.25-0.43,0.8-0.58,1.23-0.33l10.52,6.08c0.43,0.25,0.58,0.8,0.33,1.23C129.33,86.75,129.03,86.92,128.72,86.92z"/>
	<path class="st0" d="M114.45,74.35c-0.5,0-0.9-0.4-0.9-0.9V61.3c0-0.5,0.4-0.9,0.9-0.9s0.9,0.4,0.9,0.9v12.15
		C115.35,73.95,114.95,74.35,114.45,74.35z"/>
	<path class="st0" d="M96.44,126.35c-0.5,0-0.9-0.4-0.9-0.9V113.3c0-0.5,0.4-0.9,0.9-0.9c0.5,0,0.9,0.4,0.9,0.9v12.15
		C97.34,125.95,96.93,126.35,96.44,126.35z"/>
	<path class="st0" d="M118.2,76.52c-0.31,0-0.62-0.16-0.78-0.45c-0.25-0.43-0.1-0.98,0.33-1.23l10.52-6.08
		c0.43-0.25,0.98-0.1,1.23,0.33c0.25,0.43,0.1,0.98-0.33,1.23l-10.52,6.08C118.5,76.48,118.35,76.52,118.2,76.52z"/>
	<path class="st0" d="M110.7,118.12c-0.15,0-0.31-0.04-0.45-0.12l-10.52-6.08c-0.43-0.25-0.58-0.8-0.33-1.23
		c0.25-0.43,0.8-0.58,1.23-0.33l10.52,6.08c0.43,0.25,0.58,0.8,0.33,1.23C111.32,117.95,111.02,118.12,110.7,118.12z"/>
	<path class="st0" d="M92.69,107.72c-0.15,0-0.31-0.04-0.45-0.12l-10.52-6.08c-0.43-0.25-0.58-0.8-0.33-1.23
		c0.25-0.43,0.8-0.58,1.23-0.33l10.52,6.08c0.43,0.25,0.58,0.8,0.33,1.23C93.31,107.55,93,107.72,92.69,107.72z"/>
	<path class="st0" d="M82.17,118.12c-0.31,0-0.62-0.16-0.78-0.45c-0.25-0.43-0.1-0.98,0.33-1.23l10.52-6.08
		c0.43-0.25,0.98-0.1,1.23,0.33c0.25,0.43,0.1,0.98-0.33,1.23L82.62,118C82.48,118.08,82.32,118.12,82.17,118.12z"/>
	<path class="st0" d="M96.44,105.55c-0.5,0-0.9-0.4-0.9-0.9V92.5c0-0.5,0.4-0.9,0.9-0.9s0.9,0.4,0.9,0.9v12.15
		C97.34,105.15,96.94,105.55,96.44,105.55z"/>
	<path class="st0" d="M100.18,107.72c-0.31,0-0.62-0.16-0.78-0.45c-0.25-0.43-0.1-0.98,0.33-1.23l10.52-6.08
		c0.43-0.25,0.98-0.1,1.23,0.33c0.25,0.43,0.1,0.98-0.33,1.23l-10.52,6.08C100.49,107.68,100.34,107.72,100.18,107.72z"/>
	<path class="st0" d="M110.7,97.32c-0.15,0-0.31-0.04-0.45-0.12l-10.52-6.08c-0.43-0.25-0.58-0.8-0.33-1.23
		c0.25-0.43,0.8-0.58,1.23-0.33l10.52,6.08c0.43,0.25,0.58,0.8,0.33,1.23C111.32,97.15,111.02,97.32,110.7,97.32z"/>
	<path class="st0" d="M92.69,86.92c-0.15,0-0.31-0.04-0.45-0.12l-10.52-6.08c-0.43-0.25-0.58-0.8-0.33-1.23
		c0.25-0.43,0.8-0.58,1.23-0.33l10.52,6.08c0.43,0.25,0.58,0.8,0.33,1.23C93.31,86.75,93,86.92,92.69,86.92z"/>
	<path class="st0" d="M100.18,86.92c-0.31,0-0.62-0.16-0.78-0.45c-0.25-0.43-0.1-0.98,0.33-1.23l10.52-6.08
		c0.43-0.25,0.98-0.1,1.23,0.33c0.25,0.43,0.1,0.98-0.33,1.23l-10.52,6.08C100.49,86.88,100.34,86.92,100.18,86.92z"/>
	<path class="st0" d="M96.44,84.75c-0.5,0-0.9-0.4-0.9-0.9V71.7c0-0.5,0.4-0.9,0.9-0.9c0.5,0,0.9,0.4,0.9,0.9v12.15
		C97.34,84.35,96.93,84.75,96.44,84.75z"/>
	<path class="st0" d="M96.44,63.95c-0.5,0-0.9-0.4-0.9-0.9V50.9c0-0.5,0.4-0.9,0.9-0.9c0.5,0,0.9,0.4,0.9,0.9v12.15
		C97.34,63.55,96.93,63.95,96.44,63.95z"/>
	<path class="st0" d="M110.7,76.52c-0.15,0-0.31-0.04-0.45-0.12l-10.52-6.08c-0.43-0.25-0.58-0.8-0.33-1.23
		c0.25-0.43,0.8-0.58,1.23-0.33l10.52,6.08c0.43,0.25,0.58,0.8,0.33,1.23C111.32,76.35,111.02,76.52,110.7,76.52z"/>
	<path class="st0" d="M92.69,66.12c-0.15,0-0.31-0.04-0.45-0.12l-10.52-6.08c-0.43-0.25-0.58-0.8-0.33-1.23
		c0.25-0.43,0.8-0.58,1.23-0.33l10.52,6.08c0.43,0.25,0.58,0.8,0.33,1.23C93.31,65.95,93,66.12,92.69,66.12z"/>
	<path class="st0" d="M82.17,76.52c-0.31,0-0.62-0.16-0.78-0.45c-0.25-0.43-0.1-0.98,0.33-1.23l10.52-6.08
		c0.43-0.25,0.98-0.1,1.23,0.33c0.25,0.43,0.1,0.98-0.33,1.23l-10.52,6.08C82.48,76.48,82.32,76.52,82.17,76.52z"/>
	<path class="st0" d="M100.18,66.12c-0.31,0-0.62-0.16-0.78-0.45c-0.25-0.43-0.1-0.98,0.33-1.23l10.52-6.08
		c0.43-0.25,0.98-0.1,1.23,0.33c0.25,0.43,0.1,0.98-0.33,1.23l-10.52,6.08C100.49,66.08,100.34,66.12,100.18,66.12z"/>
</g>
</svg>
